# Blender v2.73 (sub 0) OBJ File: 'wall-sconce.blend'
# www.blender.org
o Cylinder
v 0.030936 0.157185 0.442848
v 0.030936 0.025935 0.442848
v 0.008535 -0.093010 0.369002
v 0.008535 0.025935 0.369002
v 0.024306 -0.093010 0.375535
v 0.024306 0.025935 0.375535
v 0.036377 -0.093010 0.387606
v 0.036377 0.025935 0.387606
v 0.042909 -0.093010 0.403377
v 0.042909 0.025935 0.403377
v 0.042909 -0.093010 0.420447
v 0.042909 0.025935 0.420447
v 0.036377 -0.093010 0.436218
v 0.036377 0.025935 0.436218
v 0.024306 -0.093010 0.448289
v 0.024306 0.025935 0.448289
v 0.008535 -0.093010 0.454821
v 0.008535 0.025935 0.454821
v -0.008535 -0.093010 0.454821
v -0.008535 0.025935 0.454821
v -0.024306 -0.093010 0.448289
v -0.024306 0.025935 0.448289
v -0.036377 -0.093010 0.436218
v -0.036377 0.025935 0.436218
v -0.042909 -0.093010 0.420447
v -0.042909 0.025935 0.420447
v -0.042909 -0.093010 0.403377
v -0.042909 0.025935 0.403377
v -0.036377 -0.093010 0.387606
v -0.036377 0.025935 0.387606
v -0.024306 -0.093010 0.375535
v -0.024306 0.025935 0.375535
v -0.008535 -0.093010 0.369002
v -0.008535 0.025935 0.369002
v -0.030936 0.025935 0.380976
v -0.030936 0.157185 0.380976
v 0.030936 0.157185 0.380976
v 0.030936 0.025935 0.380976
v -0.030936 0.025935 0.442848
v -0.030936 0.157185 0.442848
v 0.030936 0.157185 0.442848
v 0.030936 0.025935 0.442848
v -0.030936 0.025935 0.380976
v -0.030936 0.157185 0.380976
v 0.030936 0.157185 0.380976
v 0.030936 0.025935 0.380976
v -0.030936 0.025935 0.442848
v -0.030936 0.157185 0.442848
v -0.250000 -0.249999 0.498046
v 0.250000 -0.249999 0.498046
v -0.250000 0.250001 0.498045
v 0.250000 0.250001 0.498045
v 0.017070 -0.106000 0.326093
v 0.017070 -0.084125 0.326093
v 0.048612 -0.106000 0.339158
v 0.048612 -0.084125 0.339158
v 0.042909 -0.093011 0.420447
v 0.042909 -0.093011 0.403376
v 0.072754 -0.106000 0.363299
v 0.072754 -0.084125 0.363299
v 0.036377 -0.093011 0.387605
v 0.024306 -0.093011 0.375535
v 0.085819 -0.106000 0.394841
v 0.085819 -0.084125 0.394841
v 0.008535 -0.093011 0.369002
v -0.008535 -0.093011 0.369002
v 0.085819 -0.106000 0.428982
v 0.085819 -0.084125 0.428982
v -0.024306 -0.093011 0.375535
v -0.036377 -0.093011 0.387605
v 0.072754 -0.106000 0.460524
v 0.072754 -0.084125 0.460524
v -0.042909 -0.093011 0.403376
v -0.042909 -0.093011 0.420447
v 0.048612 -0.106000 0.484665
v 0.048612 -0.084125 0.484665
v -0.036377 -0.093011 0.436218
v -0.024306 -0.093011 0.448288
v 0.017070 -0.106000 0.497730
v 0.017070 -0.084125 0.497730
v -0.008535 -0.093011 0.454821
v 0.008535 -0.093011 0.454821
v -0.017070 -0.106000 0.497730
v -0.017070 -0.084125 0.497730
v 0.024306 -0.093011 0.448288
v 0.036377 -0.093011 0.436218
v -0.048612 -0.106000 0.484665
v -0.048612 -0.084125 0.484665
v 0.000000 -0.106000 0.411912
v 0.000000 -0.093695 0.411912
v -0.072754 -0.106000 0.460524
v -0.072754 -0.084125 0.460524
v 0.010938 -0.106000 0.498045
v 0.010938 -0.106000 0.368162
v -0.085819 -0.106000 0.428982
v -0.085819 -0.084125 0.428982
v -0.010937 -0.106000 0.368162
v -0.010937 -0.106000 0.498045
v -0.085819 -0.106000 0.394841
v -0.085819 -0.084125 0.394841
v 0.010938 -0.149750 0.498045
v 0.010938 -0.149750 0.477537
v -0.072753 -0.106000 0.363299
v -0.072753 -0.084125 0.363299
v -0.010937 -0.149750 0.477537
v -0.010937 -0.149750 0.498045
v -0.048612 -0.106000 0.339158
v -0.048612 -0.084125 0.339158
v 0.250000 0.250001 0.499999
v -0.250000 0.250001 0.499999
v -0.017070 -0.106000 0.326093
v -0.017070 -0.084125 0.326093
v 0.250000 -0.249999 0.499999
v -0.250000 -0.249999 0.499999
vt 0.500000 -0.000000
vt 0.500000 0.500000
vt 0.437500 0.500000
vt 0.437500 -0.000000
vt 0.375000 0.500000
vt 0.375000 -0.000000
vt 0.312500 0.500000
vt 0.312500 -0.000000
vt 0.250000 0.500000
vt 0.250000 -0.000000
vt 0.187500 0.500000
vt 0.187500 -0.000000
vt 0.125000 0.500000
vt 0.125000 -0.000000
vt 0.062500 0.500000
vt 0.062500 -0.000000
vt -0.000000 0.500000
vt -0.000000 -0.000000
vt 1.000000 -0.000000
vt 1.000000 0.500000
vt 0.937500 0.500000
vt 0.937500 -0.000000
vt 0.875000 0.500000
vt 0.875000 -0.000000
vt 0.812500 0.500000
vt 0.812500 -0.000000
vt 0.750000 0.500000
vt 0.750000 -0.000000
vt 0.687500 0.500000
vt 0.687500 -0.000000
vt 0.625000 0.500000
vt 0.625000 -0.000000
vt 0.476190 0.785650
vt 0.488110 0.783278
vt 0.498216 0.776526
vt 0.504969 0.766420
vt 0.507340 0.754500
vt 0.504969 0.742579
vt 0.498216 0.732474
vt 0.488110 0.725721
vt 0.476190 0.723350
vt 0.464269 0.725721
vt 0.454164 0.732474
vt 0.447411 0.742579
vt 0.445040 0.754500
vt 0.447411 0.766420
vt 0.454164 0.776526
vt 0.464269 0.783278
vt 0.562500 -0.000000
vt 0.562500 0.500000
vt 1.000000 1.000000
vt 0.000000 1.000000
vt 0.937500 1.000000
vt 0.625000 0.062500
vt 0.562500 0.062500
vt 0.225161 0.490214
vt 0.282890 0.466302
vt 0.314132 0.623368
vt 0.687500 0.062500
vt 0.180978 0.534397
vt 0.750000 0.062500
vt 0.157066 0.592125
vt 0.812500 0.062500
vt 0.157066 0.654610
vt 0.875000 0.062500
vt 0.180978 0.712339
vt 0.937500 0.062500
vt 0.225162 0.756522
vt 1.000000 0.062500
vt 0.282890 0.780434
vt 0.062500 0.062500
vt 0.000000 0.062500
vt 0.125000 0.062500
vt 1.000000 0.187500
vt 0.875000 0.187500
vt 0.187500 0.062500
vt 0.345375 0.780434
vt 0.250000 0.062500
vt 0.875000 0.687500
vt 0.625000 0.687500
vt 0.625000 0.562500
vt 0.312500 0.062500
vt 1.000000 0.687500
vt 0.375000 0.062500
vt 0.437500 0.062500
vt 0.500000 0.062500
vt 0.376617 0.309236
vt 0.492073 0.357060
vt 0.375000 0.687500
vt 0.492074 0.889676
vt 0.376617 0.937500
vt 0.403103 0.756522
vt 0.345375 0.466302
vt 0.403103 0.490214
vt 0.447286 0.534397
vt 0.471198 0.592125
vt 0.471198 0.654610
vt 0.447286 0.712338
vt 0.580440 0.445427
vt 0.628264 0.560883
vt 0.628264 0.685853
vt 0.580440 0.801309
vt 0.251647 0.937500
vt 0.136191 0.889676
vt 0.047824 0.801309
vt 0.000000 0.685853
vt 0.000000 0.560883
vt 0.047824 0.445426
vt 0.136191 0.357059
vt 0.251648 0.309236
vn 0.195100 0.000000 -0.980800
vn 0.145600 0.665700 -0.731900
vn 0.414600 0.665700 -0.620400
vn 0.555600 0.000000 -0.831500
vn 0.620400 0.665700 -0.414600
vn 0.831500 0.000000 -0.555600
vn 0.731900 0.665700 -0.145600
vn 0.980800 0.000000 -0.195100
vn 0.731900 0.665700 0.145600
vn 0.980800 0.000000 0.195100
vn 0.620400 0.665700 0.414600
vn 0.831500 0.000000 0.555600
vn 0.414600 0.665700 0.620400
vn 0.555600 0.000000 0.831500
vn 0.145600 0.665700 0.731900
vn 0.195100 0.000000 0.980800
vn -0.145600 0.665700 0.731900
vn -0.195100 0.000000 0.980800
vn -0.414600 0.665700 0.620400
vn -0.555600 0.000000 0.831500
vn -0.620400 0.665700 0.414600
vn -0.831500 0.000000 0.555600
vn -0.731900 0.665700 0.145600
vn -0.980800 0.000000 0.195100
vn -0.731900 0.665700 -0.145600
vn -0.980800 0.000000 -0.195100
vn -0.620400 0.665700 -0.414600
vn -0.831500 0.000000 -0.555600
vn -0.414600 0.665700 -0.620400
vn -0.555600 0.000000 -0.831500
vn -0.145600 0.665700 -0.731900
vn -0.195100 0.000000 -0.980800
vn 0.707100 0.000000 0.707100
vn -0.707100 0.000000 0.707100
vn -0.707100 -0.000000 -0.707100
vn 0.707100 -0.000000 -0.707100
vn 0.000000 -0.000000 -1.000000
vn -1.000000 0.000000 0.000000
vn 0.000000 -1.000000 0.000000
vn 1.000000 0.000000 0.000000
vn 0.000000 1.000000 0.000000
vn 0.380100 0.729200 -0.568900
vn 0.568900 0.729200 -0.380100
vn 0.620400 -0.665700 -0.414600
vn 0.414600 -0.665700 -0.620400
vn 0.066200 0.992900 -0.099100
vn 0.023200 0.992900 -0.116900
vn 0.671100 0.729200 -0.133500
vn 0.731900 -0.665700 -0.145600
vn 0.099100 0.992900 -0.066200
vn 0.671100 0.729200 0.133500
vn 0.731900 -0.665700 0.145600
vn 0.116900 0.992900 -0.023200
vn 0.568900 0.729200 0.380100
vn 0.620400 -0.665700 0.414600
vn 0.116900 0.992900 0.023200
vn 0.380100 0.729200 0.568900
vn 0.414600 -0.665700 0.620400
vn 0.099100 0.992900 0.066200
vn 0.133500 0.729200 0.671100
vn 0.145600 -0.665700 0.731900
vn 0.066200 0.992900 0.099100
vn -0.133500 0.729200 0.671100
vn -0.145600 -0.665700 0.731900
vn 0.023200 0.992900 0.116900
vn -0.380100 0.729200 0.568900
vn -0.414600 -0.665700 0.620400
vn -0.568900 0.729200 0.380100
vn -0.620400 -0.665700 0.414600
vn -0.707100 -0.707100 0.000000
vn -0.666900 -0.731700 -0.140900
vn 0.666900 -0.731700 -0.140900
vn 0.707100 -0.707100 0.000000
vn -0.671100 0.729200 0.133500
vn -0.731900 -0.665700 0.145600
vn -0.023200 0.992900 0.116900
vn -0.671100 0.729200 -0.133500
vn -0.731900 -0.665700 -0.145600
vn 0.235400 -0.902400 -0.361000
vn -0.568900 0.729200 -0.380100
vn -0.620400 -0.665700 -0.414600
vn -0.235400 -0.902400 -0.361000
vn -0.380100 0.729200 -0.568900
vn -0.414600 -0.665700 -0.620400
vn -0.133500 0.729200 -0.671100
vn -0.145600 -0.665700 -0.731900
vn 0.133500 0.729200 -0.671100
vn 0.145600 -0.665700 -0.731900
vn -0.066200 0.992900 0.099100
vn -0.023200 0.992900 -0.116900
vn -0.066200 0.992900 -0.099100
vn -0.099100 0.992900 -0.066200
vn -0.116900 0.992900 -0.023200
vn -0.116900 0.992900 0.023200
vn -0.099100 0.992900 0.066200
g Cylinder_Cylinder_candle
s 1
f 3/1/1 4/2/2 6/3/3 5/4/4
f 5/4/4 6/3/3 8/5/5 7/6/6
f 7/6/6 8/5/5 10/7/7 9/8/8
f 9/8/8 10/7/7 12/9/9 11/10/10
f 11/10/10 12/9/9 14/11/11 13/12/12
f 13/12/12 14/11/11 16/13/13 15/14/14
f 15/14/14 16/13/13 18/15/15 17/16/16
f 17/16/16 18/15/15 20/17/17 19/18/18
f 19/19/18 20/20/17 22/21/19 21/22/20
f 21/22/20 22/21/19 24/23/21 23/24/22
f 23/24/22 24/23/21 26/25/23 25/26/24
f 25/26/24 26/25/23 28/27/25 27/28/26
f 27/28/26 28/27/25 30/29/27 29/30/28
f 29/30/28 30/29/27 32/31/29 31/32/30
f 6/33/3 4/34/2 34/35/31 32/36/29 30/37/27 28/38/25 26/39/23 24/40/21 22/41/19 20/42/17 18/43/15 16/44/13 14/45/11 12/46/9 10/47/7 8/48/5
f 33/49/32 34/50/31 4/2/2 3/1/1
f 31/32/30 32/31/29 34/50/31 33/49/32
g Cylinder_Cylinder_flame
s off
f 38/19/33 37/51/33 40/52/33 39/18/33
f 2/19/34 1/51/34 36/52/34 35/18/34
f 46/19/35 47/18/35 48/52/35 45/51/35
f 42/19/36 43/18/36 44/52/36 41/51/36
g Cylinder_Cylinder_back
f 49/19/37 51/51/37 52/52/37 50/18/37
f 51/19/38 49/51/38 114/53/38 110/22/38
f 49/19/39 50/51/39 113/53/39 114/22/39
f 50/19/40 52/51/40 109/53/40 113/22/40
f 52/19/41 51/51/41 110/53/41 109/22/41
g Cylinder_Cylinder_dish
s 1
f 56/49/42 60/32/43 59/54/44 55/55/45
f 78/56/46 81/57/47 90/58/41
f 60/32/43 64/30/48 63/59/49 59/54/44
f 77/60/50 78/56/46 90/58/41
f 64/30/48 68/28/51 67/61/52 63/59/49
f 74/62/53 77/60/50 90/58/41
f 68/28/51 72/26/54 71/63/55 67/61/52
f 73/64/56 74/62/53 90/58/41
f 72/26/54 76/24/57 75/65/58 71/63/55
f 70/66/59 73/64/56 90/58/41
f 76/24/57 80/22/60 79/67/61 75/65/58
f 69/68/62 70/66/59 90/58/41
f 80/22/60 84/19/63 83/69/64 79/67/61
f 66/70/65 69/68/62 90/58/41
f 84/18/63 88/16/66 87/71/67 83/72/64
f 88/16/66 92/14/68 91/73/69 87/71/67
f 106/69/70 105/74/71 102/75/72 101/65/73
f 92/14/68 96/12/74 95/76/75 91/73/69
f 65/77/76 66/70/65 90/58/41
f 96/12/74 100/10/77 99/78/78 95/76/75
f 94/65/79 93/79/40 101/80/73 102/81/72
f 100/10/77 104/8/80 103/82/81 99/78/78
f 97/83/82 94/79/79 102/75/72 105/74/71
f 104/8/80 108/6/83 107/84/84 103/82/81
f 108/6/83 112/4/85 111/85/86 107/84/84
f 111/85/86 112/4/85 54/1/87 53/86/88
f 53/87/88 55/88/45 89/58/39
f 98/89/38 97/84/82 105/81/71 106/80/70
f 56/90/42 54/91/87 65/77/76 62/92/89
f 54/1/87 56/49/42 55/55/45 53/86/88
f 81/57/47 82/93/90 90/58/41
f 82/93/90 85/94/91 90/58/41
f 85/94/91 86/95/92 90/58/41
f 86/95/92 57/96/93 90/58/41
f 57/96/93 58/97/94 90/58/41
f 58/97/94 61/98/95 90/58/41
f 61/98/95 62/92/89 90/58/41
f 62/92/89 65/77/76 90/58/41
f 55/88/45 59/99/44 89/58/39
f 59/99/44 63/100/49 89/58/39
f 63/100/49 67/101/52 89/58/39
f 67/101/52 71/102/55 89/58/39
f 71/102/55 75/90/58 89/58/39
f 75/90/58 79/91/61 89/58/39
f 79/91/61 83/103/64 89/58/39
f 83/103/64 87/104/67 89/58/39
f 87/104/67 91/105/69 89/58/39
f 91/105/69 95/106/75 89/58/39
f 95/106/75 99/107/78 89/58/39
f 99/107/78 103/108/81 89/58/39
f 103/108/81 107/109/84 89/58/39
f 107/109/84 111/110/86 89/58/39
f 111/110/86 53/87/88 89/58/39
f 60/102/43 56/90/42 62/92/89 61/98/95
f 64/101/48 60/102/43 61/98/95 58/97/94
f 68/100/51 64/101/48 58/97/94 57/96/93
f 72/99/54 68/100/51 57/96/93 86/95/92
f 76/88/57 72/99/54 86/95/92 85/94/91
f 80/87/60 76/88/57 85/94/91 82/93/90
f 84/110/63 80/87/60 82/93/90 81/57/47
f 54/91/87 112/103/85 66/70/65 65/77/76
f 112/103/85 108/104/83 69/68/62 66/70/65
f 108/104/83 104/105/80 70/66/59 69/68/62
f 104/105/80 100/106/77 73/64/56 70/66/59
f 100/106/77 96/107/74 74/62/53 73/64/56
f 96/107/74 92/108/68 77/60/50 74/62/53
f 92/108/68 88/109/66 78/56/46 77/60/50
f 88/109/66 84/110/63 81/57/47 78/56/46
