# Blender v2.73 (sub 0) OBJ File: 'openframe_bookshelf.blend'
# www.blender.org
o bookshelf_nodebox-17
v -0.500000 -0.500000 0.000000
v -0.500000 -0.437500 0.000000
v -0.500000 0.000000 0.000000
v -0.437500 -0.437500 0.000000
v -0.375000 -0.437500 0.000000
v -0.375000 -0.437500 0.125000
v -0.312500 -0.437500 0.125000
v -0.250000 -0.437500 0.187500
v -0.437500 0.000000 0.000000
v -0.375000 0.000000 0.000000
v -0.375000 -0.062500 0.125000
v -0.250000 -0.125000 0.187500
v -0.312500 -0.062500 0.125000
v 0.000000 -0.437500 0.062500
v -0.062500 -0.437500 0.125000
v -0.062500 -0.437500 0.187500
v 0.000000 -0.437500 0.125000
v -0.125000 -0.187500 0.187500
v -0.125000 -0.125000 0.187500
v -0.062500 -0.187500 0.187500
v -0.062500 -0.125000 0.125000
v 0.000000 -0.125000 0.125000
v 0.000000 -0.062500 0.062500
v -0.500000 -0.500000 0.500000
v -0.500000 -0.437500 0.500000
v -0.500000 0.000000 0.500000
v -0.437500 -0.437500 0.500000
v -0.312500 -0.437500 0.250000
v -0.250000 -0.437500 0.250000
v -0.437500 0.000000 0.500000
v -0.375000 -0.062500 0.500000
v -0.375000 0.000000 0.500000
v -0.312500 -0.187500 0.250000
v -0.250000 -0.187500 0.250000
v -0.312500 -0.187500 0.500000
v -0.250000 -0.187500 0.500000
v -0.250000 -0.125000 0.500000
v -0.312500 -0.062500 0.500000
v -0.125000 -0.187500 0.500000
v -0.125000 -0.125000 0.500000
v -0.062500 -0.187500 0.500000
v -0.062500 -0.125000 0.500000
v 0.000000 -0.125000 0.500000
v 0.000000 -0.062500 0.500000
v -0.500000 0.062500 0.000000
v -0.437500 0.062500 0.000000
v -0.375000 0.062500 0.000000
v -0.375000 0.062500 0.250000
v -0.312500 0.062500 0.187500
v -0.312500 0.062500 0.250000
v -0.250000 0.062500 0.187500
v -0.437500 0.500000 0.000000
v -0.375000 0.500000 0.000000
v -0.375000 0.437500 0.250000
v -0.312500 0.437500 0.250000
v -0.312500 0.500000 0.187500
v -0.250000 0.437500 0.187500
v -0.250000 0.500000 0.187500
v -0.187500 0.062500 0.125000
v -0.187500 0.062500 0.187500
v -0.062500 0.062500 0.125000
v -0.062500 0.062500 0.250000
v 0.000000 0.062500 0.187500
v 0.000000 0.062500 0.250000
v -0.187500 0.437500 0.187500
v -0.187500 0.500000 0.125000
v -0.062500 0.375000 0.250000
v 0.000000 0.375000 0.250000
v -0.062500 0.500000 0.125000
v 0.000000 0.437500 0.187500
v -0.500000 0.062500 0.500000
v -0.437500 0.062500 0.500000
v -0.437500 0.500000 0.500000
v -0.375000 0.437500 0.500000
v -0.375000 0.500000 0.500000
v -0.312500 0.437500 0.500000
v -0.312500 0.500000 0.500000
v -0.250000 0.437500 0.500000
v -0.250000 0.500000 0.500000
v -0.187500 0.437500 0.500000
v -0.187500 0.500000 0.500000
v -0.062500 0.375000 0.500000
v 0.000000 0.375000 0.500000
v -0.062500 0.500000 0.500000
v 0.000000 0.437500 0.500000
v 0.500000 -0.500000 0.000000
v 0.125000 -0.437500 0.062500
v 0.125000 -0.062500 0.062500
v 0.125000 -0.062500 0.250000
v 0.187500 -0.125000 0.187500
v 0.187500 -0.062500 0.250000
v 0.375000 -0.437500 0.000000
v 0.437500 -0.437500 0.000000
v 0.500000 -0.437500 0.000000
v 0.375000 -0.437500 0.187500
v 0.375000 0.000000 0.000000
v 0.437500 0.000000 0.000000
v 0.500000 0.000000 0.000000
v 0.312500 -0.125000 0.187500
v 0.312500 -0.062500 0.187500
v 0.375000 -0.062500 0.187500
v 0.500000 -0.500000 0.500000
v 0.187500 -0.125000 0.500000
v 0.187500 -0.062500 0.500000
v 0.437500 -0.437500 0.500000
v 0.500000 -0.437500 0.500000
v 0.312500 -0.125000 0.500000
v 0.312500 -0.062500 0.500000
v 0.375000 -0.062500 0.500000
v 0.375000 0.000000 0.500000
v 0.437500 0.000000 0.500000
v 0.500000 0.000000 0.500000
v 0.125000 0.062500 0.187500
v 0.125000 0.062500 0.250000
v 0.187500 0.062500 0.250000
v 0.250000 0.062500 0.187500
v 0.125000 0.437500 0.187500
v 0.125000 0.437500 0.250000
v 0.125000 0.500000 0.250000
v 0.187500 0.500000 0.250000
v 0.250000 0.500000 0.187500
v 0.375000 0.062500 0.000000
v 0.437500 0.062500 0.000000
v 0.500000 0.062500 0.000000
v 0.375000 0.062500 0.187500
v 0.375000 0.500000 0.000000
v 0.437500 0.500000 0.000000
v 0.375000 0.500000 0.187500
v 0.250000 0.062500 0.250000
v 0.125000 0.437500 0.500000
v 0.125000 0.500000 0.500000
v 0.187500 0.437500 0.250000
v 0.250000 0.437500 0.250000
v 0.187500 0.437500 0.500000
v 0.187500 0.500000 0.500000
v 0.250000 0.437500 0.500000
v 0.250000 0.500000 0.500000
v 0.437500 0.062500 0.500000
v 0.500000 0.062500 0.500000
v 0.437500 0.500000 0.500000
v 0.187500 -0.437500 0.187500
v 0.125000 -0.437500 0.250000
v 0.187500 -0.437500 0.250000
v 0.187500 -0.125000 0.250000
v 0.375000 0.500000 0.500000
v 0.312500 -0.437500 0.187500
v -0.125000 -0.437500 0.187500
v 0.375000 -0.437500 0.500000
v 0.125000 -0.062500 0.500000
v 0.375000 0.062500 0.500000
v -0.375000 -0.437500 0.500000
v -0.375000 0.062500 0.500000
v 0.062500 0.437500 0.187500
v 0.062500 0.062500 0.187500
v -0.125000 0.500000 0.125000
v -0.125000 0.062500 0.125000
v -0.187500 -0.437500 0.187500
v -0.187500 -0.125000 0.187500
vt 0.645833 0.791667
vt 0.625000 0.791667
vt 0.625000 0.666667
vt 0.645833 0.666667
vt 0.541667 0.166667
vt 0.541667 0.041667
vt 0.562500 0.041667
vt 0.562500 0.166667
vt 0.979167 0.500000
vt 0.833333 0.500000
vt 0.854167 0.479167
vt 0.979167 0.479167
vt 0.333333 0.770833
vt 0.312500 0.770833
vt 0.312500 0.666667
vt 0.333333 0.666667
vt 0.458333 0.770833
vt 0.437500 0.770833
vt 0.437500 0.666667
vt 0.458333 0.666667
vt 0.333333 0.166667
vt 0.333333 0.062500
vt 0.375000 0.062500
vt 0.375000 0.166667
vt 0.583333 0.666667
vt 0.583333 0.750000
vt 0.562500 0.750000
vt 0.562500 0.666667
vt 0.520833 0.083333
vt 0.541667 0.083333
vt 0.520833 0.166667
vt 0.437500 0.041667
vt 0.458333 0.041667
vt 0.458333 0.166667
vt 0.437500 0.166667
vt 0.625000 0.833333
vt 0.625000 0.979167
vt 0.604167 0.979167
vt 0.604167 0.833333
vt 0.687500 0.833333
vt 0.687500 0.958333
vt 0.666667 0.958333
vt 0.666667 0.833333
vt 0.791667 0.541667
vt 0.791667 0.562500
vt 0.666667 0.562500
vt 0.687500 0.541667
vt 0.458333 0.625000
vt 0.354167 0.625000
vt 0.375000 0.604167
vt 0.458333 0.604167
vt 0.375000 0.833333
vt 0.375000 0.937500
vt 0.354167 0.937500
vt 0.354167 0.833333
vt 0.437500 0.979167
vt 0.416667 0.979167
vt 0.416667 0.833333
vt 0.437500 0.833333
vt 0.395833 0.333333
vt 0.395833 0.250000
vt 0.395833 0.229167
vt 0.416667 0.229167
vt 0.437500 0.229167
vt 0.437500 0.333333
vt 0.104167 0.437500
vt 0.020833 0.437500
vt 0.020833 0.416667
vt 0.104167 0.416667
vt 0.854167 0.979167
vt 0.750000 0.979167
vt 0.770833 0.958333
vt 0.854167 0.958333
vt 0.437500 0.250000
vt 0.458333 0.250000
vt 0.458333 0.333333
vt 0.458333 0.208333
vt 0.479167 0.208333
vt 0.500000 0.208333
vt 0.500000 0.333333
vt 0.187500 0.958333
vt 0.187500 0.979167
vt 0.166667 0.979167
vt 0.166667 0.833333
vt 0.187500 0.833333
vt 0.833333 0.375000
vt 0.791667 0.500000
vt 0.791667 0.375000
vt 0.020833 0.791667
vt 0.020833 0.666667
vt 0.041667 0.666667
vt 0.041667 0.770833
vt 0.041667 0.791667
vt 0.854167 0.729167
vt 0.854167 0.687500
vt 0.937500 0.687500
vt 0.979167 0.729167
vt 0.291667 0.958333
vt 0.291667 0.833333
vt 0.312500 0.833333
vt 0.312500 0.958333
vt 0.666667 0.416667
vt 0.645833 0.416667
vt 0.645833 0.291667
vt 0.666667 0.291667
vt 0.458333 0.062500
vt 0.479167 0.062500
vt 0.479167 0.166667
vt 0.062500 0.979167
vt 0.020833 0.979167
vt 0.020833 0.833333
vt 0.062500 0.833333
vt 0.375000 0.333333
vt 0.375000 0.250000
vt 0.166667 0.604167
vt 0.250000 0.604167
vt 0.250000 0.625000
vt 0.166667 0.625000
vt 0.541667 0.333333
vt 0.541667 0.250000
vt 0.562500 0.250000
vt 0.562500 0.333333
vt 0.500000 0.625000
vt 0.500000 0.583333
vt 0.583333 0.583333
vt 0.625000 0.625000
vt 0.354167 0.250000
vt 0.354167 0.333333
vt 0.520833 0.229167
vt 0.541667 0.229167
vt 0.520833 0.333333
vt 0.687500 0.458333
vt 0.666667 0.458333
vt 0.500000 0.229167
vt 0.312500 0.062500
vt 0.312500 0.166667
vt 0.187500 0.541667
vt 0.187500 0.562500
vt 0.083333 0.562500
vt 0.083333 0.541667
vt 0.812500 0.708333
vt 0.708333 0.708333
vt 0.729167 0.687500
vt 0.812500 0.687500
vt 0.583333 0.479167
vt 0.625000 0.479167
vt 0.270833 0.791667
vt 0.250000 0.791667
vt 0.250000 0.666667
vt 0.270833 0.666667
vt 0.729167 0.500000
vt 0.729167 0.375000
vt 0.166667 0.500000
vt 0.083333 0.500000
vt 0.083333 0.479167
vt 0.166667 0.479167
vt 0.145833 0.666667
vt 0.145833 0.770833
vt 0.125000 0.770833
vt 0.125000 0.666667
vt 0.375000 0.750000
vt 0.375000 0.666667
vt 0.395833 0.666667
vt 0.395833 0.750000
vt 0.562500 0.958333
vt 0.541667 0.958333
vt 0.541667 0.833333
vt 0.562500 0.833333
vt 0.125000 0.958333
vt 0.104167 0.958333
vt 0.104167 0.833333
vt 0.125000 0.833333
vt 0.520833 0.062500
vt 0.500000 0.062500
vt 0.041667 0.104167
vt 0.020833 0.145833
vt 0.020833 0.020833
vt 0.041667 0.145833
vt 0.750000 0.958333
vt 0.083333 0.770833
vt 0.083333 0.666667
vt 0.125000 0.104167
vt 0.270833 0.020833
vt 0.125000 0.125000
vt 0.083333 0.333333
vt 0.083333 0.312500
vt 0.125000 0.333333
vt 0.125000 0.291667
vt 0.250000 0.125000
vt 0.270833 0.145833
vt 0.187500 0.333333
vt 0.187500 0.312500
vt 0.208333 0.312500
vt 0.208333 0.333333
vt 0.041667 0.333333
vt 0.041667 0.312500
vt 0.062500 0.312500
vt 0.062500 0.333333
vt 0.270833 0.187500
vt 0.145833 0.291667
vt 0.020833 0.187500
vt 0.437500 0.020833
vt 0.395833 0.166667
vt 0.395833 0.020833
vt 0.395833 0.083333
vt 0.375000 0.083333
vt 0.354167 0.229167
vt 0.312500 0.333333
vt 0.312500 0.229167
vt 0.229167 0.312500
vt 0.145833 0.312500
vt 0.062500 0.125000
vt 0.062500 0.104167
vt 0.104167 0.104167
vt 0.104167 0.125000
vt 0.145833 0.145833
vt 0.145833 0.125000
vt 0.208333 0.125000
vt 0.208333 0.145833
vt 0.020833 0.312500
vt 0.250000 0.145833
vt 0.354167 0.500000
vt 0.375000 0.500000
vt 0.041667 0.479167
vt 0.041667 0.604167
vt 0.020833 0.625000
vt 0.020833 0.479167
vt 0.125000 0.604167
vt 0.125000 0.625000
vt 0.854167 0.375000
vt 0.854167 0.770833
vt 0.854167 0.895833
vt 0.833333 0.916667
vt 0.833333 0.770833
vt 0.958333 0.895833
vt 0.958333 0.916667
vt 0.708333 0.604167
vt 0.729167 0.604167
vt 0.937500 0.604167
vt 0.979167 0.604167
vt 0.270833 0.333333
vt 0.229167 0.333333
vt 0.750000 0.833333
vt 0.770833 0.833333
vt 0.687500 0.291667
vt 0.687500 0.416667
vt 0.812500 0.916667
vt 0.812500 0.770833
vt 0.520833 0.770833
vt 0.500000 0.770833
vt 0.500000 0.666667
vt 0.520833 0.666667
vt 0.500000 0.812500
vt 1.000000 0.812500
vt 1.000000 0.875000
vt 0.500000 0.875000
vt 1.000000 0.312500
vt 1.000000 0.500000
vt 0.562500 0.500000
vt 0.562500 0.312500
vt 0.562500 1.000000
vt 0.625000 0.875000
vt 1.000000 1.000000
vt 0.062500 0.500000
vt 0.000000 0.500000
vt 0.000000 -0.000000
vt 0.062500 -0.000000
vt 0.500000 -0.000000
vt 0.500000 0.500000
vt 0.125000 0.500000
vt 0.125000 0.750000
vt 0.062500 1.000000
vt 0.562500 -0.000000
vt 1.000000 -0.000000
vt 0.000000 1.000000
vt 0.937500 0.500000
vt 0.937500 -0.000000
vt 0.937500 0.812500
vt 0.937500 0.875000
vt 0.937500 1.000000
vt 0.500000 1.000000
vt 1.000000 0.562500
vt 0.000000 0.562500
vt 0.500000 0.562500
vt 1.000000 0.062500
vt 0.000000 0.062500
vt 0.437500 0.312500
vt 0.437500 -0.000000
vt 0.125000 -0.000000
vt 0.875000 -0.000000
vt 0.875000 0.500000
vt 0.125000 1.000000
vt 0.437500 0.875000
vt 0.875000 1.000000
vt 0.125000 0.875000
vt 0.187500 0.875000
vt 0.937500 0.062500
vt 0.437500 0.062500
vt 0.000000 0.875000
vt 0.000000 0.812500
vt 0.437500 0.812500
vt 0.750000 0.812500
vt 0.625000 0.812500
vt 0.625000 0.750000
vt 0.687500 0.750000
vt 0.750000 0.750000
vt 0.875000 0.812500
vt 0.562500 0.812500
vt 0.437500 0.750000
vt 0.500000 0.750000
vt 0.187500 0.812500
vt 0.187500 0.750000
vt 0.312500 0.875000
vt 0.375000 0.875000
vt 0.250000 0.812500
vt 0.312500 0.812500
vt 0.500000 0.937500
vt 0.625000 0.937500
vt 0.687500 0.812500
vt 0.250000 0.750000
vt 0.375000 0.812500
vt 0.812500 0.812500
vt 0.625000 0.500000
vn 0.000000 0.000000 -1.000000
vn 0.000000 1.000000 0.000000
vn -1.000000 0.000000 0.000000
vn 1.000000 0.000000 0.000000
vn 0.000000 0.000000 1.000000
vn 0.000000 -1.000000 0.000000
g bookshelf_nodebox-17_books
s off
f 11/1/1 13/2/1 7/3/1 6/4/1
f 38/5/2 13/6/2 11/7/2 31/8/2
f 44/9/3 23/10/3 22/11/3 43/12/3
f 21/13/1 22/14/1 17/15/1 15/16/1
f 158/17/1 19/18/1 147/19/1 157/20/1
f 107/21/2 99/22/2 90/23/2 103/24/2
f 28/25/1 33/26/1 34/27/1 29/28/1
f 34/29/2 33/30/2 35/5/2 36/31/2
f 22/32/2 21/33/2 42/34/2 43/35/2
f 49/36/1 56/37/1 58/38/1 51/39/1
f 48/40/1 54/41/1 55/42/1 50/43/1
f 41/44/3 42/45/3 21/46/3 20/47/3
f 85/48/3 70/49/3 68/50/3 83/51/3
f 62/52/1 67/53/1 68/54/1 64/55/1
f 155/56/1 69/57/1 61/58/1 156/59/1
f 130/60/2 118/61/2 117/62/2 153/63/2 70/64/2 85/65/2
f 19/66/4 40/67/4 39/68/4 18/69/4
f 77/70/3 56/71/3 55/72/3 76/73/3
f 83/65/2 68/74/2 67/75/2 82/76/2
f 84/76/2 69/77/2 155/78/2 66/79/2 81/80/2
f 118/81/1 119/82/1 120/83/1 115/84/1 114/85/1
f 14/86/1 23/10/1 88/87/1 87/88/1
f 101/89/1 95/90/1 146/91/1 99/92/1 100/93/1
f 38/94/4 35/95/4 33/96/4 13/97/4
f 153/98/1 154/99/1 63/100/1 70/101/1
f 117/102/4 118/103/4 114/104/4 113/105/4
f 41/34/2 20/106/2 18/107/2 39/108/2
f 121/109/1 128/110/1 125/111/1 116/112/1
f 135/113/2 120/114/2 119/61/2 131/60/2
f 118/115/3 130/116/3 131/117/3 119/118/3
f 76/119/2 55/120/2 54/121/2 74/122/2
f 84/123/4 82/124/4 67/125/4 69/126/4
f 133/127/2 132/114/2 134/113/2 136/128/2
f 58/129/2 56/130/2 77/119/2 79/131/2
f 16/132/3 20/47/3 21/46/3 15/133/3
f 80/80/2 65/134/2 57/129/2 78/131/2
f 101/135/2 100/22/2 108/21/2 109/136/2
f 107/137/3 108/138/3 100/139/3 99/140/3
f 37/141/3 12/142/3 34/143/3 36/144/3
f 67/125/4 62/145/4 61/146/4 69/126/4
f 89/147/1 91/148/1 143/149/1 142/150/1
f 88/87/4 89/151/4 142/152/4 87/88/4
f 91/153/4 104/154/4 103/155/4 144/156/4
f 143/157/3 144/158/3 90/159/3 141/160/3
f 20/161/1 16/162/1 147/163/1 18/164/1
f 57/165/1 65/166/1 60/167/1 51/168/1
f 132/169/1 133/170/1 129/171/1 115/172/1
f 12/173/2 37/31/2 40/108/2 19/107/2 158/174/2
f 35/175/5 31/176/5 151/177/5
f 38/178/5 31/176/5 35/175/5
f 134/115/4 132/116/4 120/117/4 135/118/4
f 78/179/4 57/73/4 58/70/4 79/71/4
f 90/159/1 99/180/1 146/181/1 141/160/1
f 41/182/5 35/175/5 151/177/5
f 41/182/5 151/177/5 148/183/5
f 42/184/5 41/182/5 148/183/5
f 81/185/5 80/186/5 84/187/5
f 84/187/5 80/186/5 82/188/5
f 148/183/5 107/189/5 42/184/5
f 109/190/5 107/189/5 148/183/5
f 131/191/5 130/192/5 134/193/5 135/194/5
f 77/195/5 76/196/5 78/197/5 79/198/5
f 150/199/5 83/200/5 152/201/5
f 23/202/2 44/35/2 149/203/2 88/204/2
f 89/205/2 149/203/2 104/24/2 91/206/2
f 121/207/2 137/128/2 145/208/2 128/209/2
f 136/210/5 85/211/5 150/199/5
f 85/211/5 83/200/5 150/199/5
f 83/200/5 82/188/5 152/201/5
f 80/186/5 152/201/5 82/188/5
f 37/212/5 36/213/5 39/214/5 40/215/5
f 44/216/5 43/217/5 103/218/5 104/219/5
f 80/186/5 74/220/5 152/201/5
f 108/221/5 107/189/5 109/190/5
f 68/50/3 70/49/3 63/222/3 64/223/3
f 129/224/3 133/225/3 121/226/3 116/227/3
f 136/228/3 137/229/3 121/226/3 133/225/3
f 23/10/3 14/86/3 17/230/3 22/11/3
f 60/231/3 65/232/3 66/233/3 59/234/3
f 80/235/3 81/236/3 66/233/3 65/232/3
f 34/143/3 12/142/3 8/237/3 29/238/3
f 28/239/4 7/240/4 13/97/4 33/96/4
f 145/241/5 136/210/5 150/199/5
f 137/242/5 136/210/5 145/241/5
f 49/243/3 50/244/3 55/72/3 56/71/3
f 117/102/1 113/105/1 154/245/1 153/246/1
f 66/233/1 155/247/1 156/248/1 59/234/1
f 12/249/1 158/250/1 157/251/1 8/252/1
g bookshelf_nodebox-17_wood
f 75/253/2 53/254/2 52/255/2 73/256/2
f 128/257/3 126/258/3 122/259/3 125/260/3
f 10/261/4 11/262/4 6/255/4 5/263/4
f 30/264/6 26/265/6 3/266/6 9/267/6
f 30/268/3 9/269/3 4/264/3 27/267/3
f 75/264/4 74/270/4 54/271/4 53/272/4
f 46/259/3 72/273/3 73/274/3 52/258/3
f 72/264/2 46/272/2 45/275/2 71/265/2
f 27/264/2 4/272/2 2/275/2 25/265/2
f 105/258/4 93/263/4 97/261/4 111/259/4
f 112/258/6 111/276/6 97/277/6 98/274/6
f 126/278/1 127/279/1 123/256/1 122/253/1
f 106/258/2 94/263/2 93/280/2 105/276/2
f 138/269/4 123/281/4 127/272/4 140/264/4
f 139/258/2 124/263/2 123/280/2 138/276/2
f 45/282/1 124/283/1 98/265/1 3/258/1
f 26/258/3 71/282/3 45/284/3 3/269/3
f 124/284/4 139/283/4 112/265/4 98/269/4
f 1/268/3 24/274/3 25/285/3 2/174/3
f 94/174/4 106/286/4 102/266/4 86/268/4
f 101/287/3 109/288/3 110/268/3 96/269/3
f 102/258/6 24/265/6 1/266/6 86/274/6
f 10/289/6 96/290/6 110/291/6 32/270/6
f 47/292/2 61/293/2 122/294/2
f 6/295/2 7/296/2 5/292/2
f 52/277/1 53/297/1 47/174/1 46/268/1
f 10/298/1 5/286/1 4/266/1 9/288/1
f 97/293/1 93/299/1 92/300/1 96/301/1
f 2/285/1 94/286/1 86/266/1 1/274/1
f 25/286/5 24/266/5 102/274/5 106/285/5
f 127/274/2 126/285/2 145/174/2 140/268/2
f 139/282/5 71/283/5 26/265/5 112/258/5
f 30/293/5 27/299/5 151/300/5 32/301/5
f 73/279/5 72/256/5 152/253/5 75/278/5
f 105/266/5 111/288/5 110/298/5 148/286/5
f 138/268/5 140/277/5 145/297/5 150/174/5
f 116/302/2 113/303/2 114/304/2 115/305/2 129/306/2
f 122/294/2 116/302/2 125/307/2
f 113/303/2 116/302/2 122/294/2 63/253/2 154/308/2
f 63/253/2 62/309/2 64/310/2
f 62/309/2 63/253/2 61/293/2
f 63/253/2 122/294/2 61/293/2
f 47/292/2 48/271/2 49/311/2
f 48/271/2 50/312/2 49/311/2
f 47/292/2 59/313/2 156/314/2 61/293/2
f 59/313/2 49/311/2 51/315/2 60/316/2
f 49/311/2 59/313/2 47/292/2
f 5/292/2 14/317/2 92/294/2
f 92/294/2 87/318/2 141/319/2
f 87/318/2 92/294/2 14/317/2
f 5/292/2 7/296/2 16/301/2
f 7/296/2 28/312/2 8/315/2
f 28/312/2 29/320/2 8/315/2
f 7/296/2 8/315/2 157/316/2 147/321/2 16/301/2
f 5/292/2 15/293/2 14/317/2
f 14/317/2 15/293/2 17/256/2
f 5/292/2 16/301/2 15/293/2
f 87/318/2 142/304/2 141/319/2
f 142/304/2 143/305/2 141/319/2
f 92/294/2 141/319/2 146/322/2 95/307/2
f 11/262/4 10/261/4 32/259/4 31/323/4
f 53/272/4 54/271/4 48/310/4 47/281/4
f 96/269/3 92/264/3 95/197/3 101/287/3
