# Blender v2.73 (sub 0) OBJ File: 'speaker-large-open.blend'
# www.blender.org
o Cube
v 0.500000 -0.500000 0.500000
v -0.500000 -0.500000 0.500000
v 0.500000 0.500000 0.500000
v -0.500000 0.500000 0.500000
v 0.500000 -0.500000 -0.437500
v -0.500000 -0.500000 -0.437500
v 0.500000 0.500000 -0.437500
v -0.500000 0.500000 -0.437500
v -0.000000 0.375000 -0.437500
v -0.143506 0.346455 -0.437500
v -0.265165 0.265165 -0.437500
v -0.346455 0.143506 -0.437500
v -0.375000 -0.000000 -0.437500
v -0.346455 -0.143506 -0.437500
v -0.265165 -0.265165 -0.437500
v -0.143506 -0.346455 -0.437500
v -0.000000 -0.375000 -0.437500
v 0.143506 -0.346455 -0.437500
v 0.265165 -0.265165 -0.437500
v 0.346455 -0.143506 -0.437500
v 0.375000 0.000000 -0.437500
v 0.346455 0.143506 -0.437500
v 0.265165 0.265165 -0.437500
v 0.143506 0.346455 -0.437500
v -0.000000 0.312499 -0.437500
v -0.119588 0.288712 -0.437500
v -0.220970 0.220970 -0.437500
v -0.288712 0.119588 -0.437500
v -0.312499 -0.000000 -0.437500
v -0.288712 -0.119588 -0.437500
v -0.220970 -0.220970 -0.437500
v -0.119588 -0.288712 -0.437500
v -0.000000 -0.312499 -0.437500
v 0.119588 -0.288712 -0.437500
v 0.220970 -0.220971 -0.437500
v 0.288712 -0.119588 -0.437500
v 0.312499 0.000000 -0.437500
v 0.288712 0.119588 -0.437500
v 0.220970 0.220971 -0.437500
v 0.119588 0.288712 -0.437500
v -0.000000 0.062500 -0.250000
v -0.023918 0.057742 -0.250000
v -0.044194 0.044194 -0.250000
v 0.057742 -0.023918 -0.250000
v 0.062500 0.000000 -0.250000
v 0.057742 0.023918 -0.250000
v 0.044194 0.044194 -0.250000
v 0.023918 0.057742 -0.250000
v -0.062500 0.000000 -0.250000
v -0.057742 0.000000 -0.273918
v -0.044194 0.000000 -0.294194
v -0.023918 0.000000 -0.307742
v -0.000000 0.000000 -0.312500
v -0.057742 0.023918 -0.250000
v -0.053347 0.022097 -0.273918
v -0.040830 0.016912 -0.294194
v -0.022097 0.009153 -0.307742
v -0.040830 0.040830 -0.273918
v -0.031250 0.031250 -0.294194
v -0.016912 0.016912 -0.307742
v -0.022097 0.053347 -0.273918
v -0.016912 0.040830 -0.294194
v -0.009153 0.022097 -0.307742
v -0.000000 0.057742 -0.273918
v -0.000000 0.044194 -0.294194
v -0.000000 0.023918 -0.307742
v 0.022097 0.053347 -0.273918
v 0.016912 0.040830 -0.294194
v 0.009153 0.022097 -0.307742
v 0.040830 0.040830 -0.273918
v 0.031250 0.031250 -0.294194
v 0.016912 0.016912 -0.307742
v 0.053347 0.022097 -0.273918
v 0.040830 0.016912 -0.294194
v 0.022097 0.009153 -0.307742
v 0.057742 -0.000000 -0.273918
v 0.044194 -0.000000 -0.294194
v 0.023918 -0.000000 -0.307742
v 0.053347 -0.022097 -0.273918
v 0.040830 -0.016912 -0.294194
v 0.022097 -0.009153 -0.307742
v 0.044194 -0.044194 -0.250000
v 0.040830 -0.040830 -0.273918
v 0.031250 -0.031250 -0.294194
v 0.016912 -0.016912 -0.307742
v 0.023918 -0.057742 -0.250000
v 0.022097 -0.053347 -0.273918
v 0.016912 -0.040830 -0.294194
v 0.009153 -0.022097 -0.307742
v -0.000000 -0.062500 -0.250000
v -0.000000 -0.057742 -0.273918
v -0.000000 -0.044194 -0.294194
v -0.000000 -0.023918 -0.307742
v -0.023918 -0.057742 -0.250000
v -0.022097 -0.053347 -0.273918
v -0.016912 -0.040830 -0.294194
v -0.009153 -0.022097 -0.307742
v -0.044194 -0.044194 -0.250000
v -0.040830 -0.040830 -0.273918
v -0.031250 -0.031250 -0.294194
v -0.016912 -0.016912 -0.307742
v -0.057742 -0.023918 -0.250000
v -0.053347 -0.022097 -0.273918
v -0.040830 -0.016912 -0.294194
v -0.022097 -0.009153 -0.307742
vt 0.000000 0.937500
vt 0.000000 -0.000000
vt 1.000000 0.000000
vt 1.000000 0.937500
vt 1.000000 1.000000
vt 0.000000 1.000000
vt 0.193106 0.975742
vt 0.288621 0.745148
vt 0.312500 0.749898
vt 0.312500 0.999491
vt 0.024258 0.806894
vt 0.254852 0.711379
vt 0.268378 0.731622
vt 0.091889 0.908111
vt 0.336379 0.745148
vt 0.431894 0.975742
vt 0.024258 0.568106
vt 0.254852 0.663621
vt 0.250102 0.687500
vt 0.000509 0.687500
vt 0.356622 0.731622
vt 0.533111 0.908111
vt 0.860258 0.687500
vt 0.900745 0.687500
vt 0.894028 0.721270
vt 0.856623 0.705776
vt 0.927797 0.687500
vt 0.919020 0.731622
vt 0.937296 0.687500
vt 0.927797 0.735258
vt 0.874898 0.749898
vt 0.846270 0.721270
vt 0.894028 0.769027
vt 0.846270 0.769027
vt 0.830777 0.731622
vt 0.856623 0.794021
vt 0.812500 0.775745
vt 0.812500 0.735258
vt 0.812500 0.802797
vt 0.778730 0.769027
vt 0.794224 0.731622
vt 0.768378 0.794021
vt 0.750102 0.749898
vt 0.778730 0.721270
vt 0.730973 0.769027
vt 0.730973 0.721270
vt 0.768378 0.705776
vt 0.705980 0.731622
vt 0.724256 0.687500
vt 0.764743 0.687500
vt 0.697203 0.687500
vt 0.730973 0.653730
vt 0.768378 0.669224
vt 0.705980 0.643378
vt 0.750102 0.625102
vt 0.778730 0.653730
vt 0.730973 0.605973
vt 0.778730 0.605973
vt 0.794224 0.643378
vt 0.768378 0.580980
vt 0.724256 0.599256
vt 0.764743 0.572203
vt 0.812500 0.599256
vt 0.812500 0.639742
vt 0.812500 0.572203
vt 0.812500 0.562703
vt 0.846270 0.605973
vt 0.830777 0.643378
vt 0.856623 0.580980
vt 0.860258 0.572203
vt 0.874898 0.625102
vt 0.846270 0.653730
vt 0.894028 0.605973
vt 0.900745 0.599256
vt 0.894028 0.653730
vt 0.856623 0.669224
vt 0.919020 0.643378
vt 0.927797 0.639743
vt 0.812500 0.687500
vt 0.091889 0.466889
vt 0.268378 0.643378
vt 0.312500 0.375509
vt 0.312500 0.625102
vt 0.288621 0.629852
vt 0.193106 0.399258
vt 0.431894 0.399258
vt 0.533111 0.466889
vt 0.356622 0.643378
vt 0.336379 0.629852
vt 0.600742 0.568106
vt 0.624491 0.687500
vt 0.374898 0.687500
vt 0.370149 0.663621
vt 0.370149 0.711379
vt 0.600742 0.806894
vt 0.900745 0.775745
vt 0.860258 0.802797
vt 0.812500 0.812297
vt 0.764743 0.802797
vt 0.724256 0.775745
vt 0.697203 0.735257
vt 0.687703 0.687500
vt 0.697203 0.639742
vt 0.846455 0.356494
vt 0.765165 0.234835
vt 0.643506 0.153545
vt 0.846455 0.643506
vt 0.765165 0.765165
vt 0.643506 0.846455
vt 0.356494 0.846455
vt 0.234835 0.765165
vt 0.153545 0.643506
vt 0.153545 0.356494
vt 0.234835 0.234835
vt 0.356494 0.153545
vt 0.125000 0.500000
vt 0.500000 0.125000
vt 0.875000 0.500000
vt 0.500000 0.875000
vt 0.764905 0.764905
vt 0.720754 0.720754
vt 0.788429 0.619471
vt 0.846115 0.643366
vt 0.153885 0.643366
vt 0.211572 0.619471
vt 0.279247 0.720754
vt 0.235095 0.764905
vt 0.500000 0.874632
vt 0.500000 0.812193
vt 0.619471 0.788429
vt 0.643366 0.846115
vt 0.153885 0.356635
vt 0.211572 0.380529
vt 0.187807 0.500000
vt 0.125368 0.500000
vt 0.356635 0.153885
vt 0.380529 0.211572
vt 0.279246 0.279246
vt 0.235095 0.235095
vt 0.500000 0.125368
vt 0.643366 0.153885
vt 0.619471 0.211572
vt 0.500000 0.187807
vt 0.764905 0.235095
vt 0.846115 0.356635
vt 0.788429 0.380529
vt 0.720754 0.279246
vt 0.812193 0.500000
vt 0.874632 0.500000
vt 0.380529 0.788429
vt 0.356635 0.846115
vn 0.000000 -1.000000 0.000000
vn 0.000000 1.000000 0.000000
vn 1.000000 0.000000 0.000000
vn -0.000000 -0.000000 1.000000
vn -1.000000 -0.000000 -0.000000
vn -0.229600 -0.554300 -0.800000
vn 0.099000 0.239100 -0.965900
vn 0.000000 0.258800 -0.965900
vn 0.000000 -0.600000 -0.800000
vn -0.554300 -0.229600 -0.800000
vn 0.239100 0.099000 -0.965900
vn 0.183000 0.183000 -0.965900
vn -0.424300 -0.424300 -0.800000
vn -0.099000 0.239100 -0.965900
vn 0.229600 -0.554300 -0.800000
vn -0.554300 0.229600 -0.800000
vn 0.239100 -0.099000 -0.965900
vn 0.258800 0.000000 -0.965900
vn -0.600000 -0.000000 -0.800000
vn -0.183000 0.183000 -0.965900
vn 0.424300 -0.424300 -0.800000
vn -0.403100 0.000000 -0.915200
vn -0.718800 0.000000 -0.695200
vn -0.664100 0.275100 -0.695200
vn -0.372400 0.154200 -0.915200
vn -0.927300 0.000000 -0.374300
vn -0.856700 0.354800 -0.374300
vn -0.980800 -0.000000 -0.195100
vn -0.239100 0.099000 -0.965900
vn -0.508300 0.508300 -0.695200
vn -0.285000 0.285000 -0.915200
vn -0.655700 0.655700 -0.374300
vn -0.275100 0.664100 -0.695200
vn -0.154200 0.372400 -0.915200
vn -0.354800 0.856700 -0.374300
vn 0.000000 0.718800 -0.695200
vn 0.000000 0.403100 -0.915200
vn 0.000000 0.927300 -0.374300
vn 0.275100 0.664100 -0.695200
vn 0.154200 0.372400 -0.915200
vn 0.354800 0.856700 -0.374300
vn 0.508300 0.508300 -0.695200
vn 0.285000 0.285000 -0.915200
vn 0.655700 0.655700 -0.374300
vn 0.664100 0.275100 -0.695200
vn 0.372400 0.154200 -0.915200
vn 0.856700 0.354800 -0.374300
vn 0.718800 0.000000 -0.695200
vn 0.403100 0.000000 -0.915200
vn 0.927300 0.000000 -0.374300
vn 0.664100 -0.275100 -0.695200
vn 0.372400 -0.154200 -0.915200
vn 0.856700 -0.354800 -0.374300
vn 0.508300 -0.508300 -0.695200
vn 0.285000 -0.285000 -0.915200
vn 0.655700 -0.655700 -0.374300
vn 0.275100 -0.664100 -0.695200
vn 0.154200 -0.372400 -0.915200
vn 0.354800 -0.856700 -0.374300
vn 0.183000 -0.183000 -0.965900
vn 0.375300 -0.906100 -0.195100
vn 0.000000 -0.718800 -0.695200
vn 0.000000 -0.403100 -0.915200
vn 0.000000 -0.927300 -0.374300
vn -0.000000 -0.980800 -0.195100
vn -0.275100 -0.664100 -0.695200
vn -0.154200 -0.372400 -0.915200
vn -0.354800 -0.856700 -0.374300
vn -0.375300 -0.906100 -0.195100
vn -0.508300 -0.508300 -0.695200
vn -0.285000 -0.285000 -0.915200
vn -0.655700 -0.655700 -0.374300
vn -0.693500 -0.693500 -0.195100
vn -0.664100 -0.275100 -0.695200
vn -0.372400 -0.154200 -0.915200
vn -0.856700 -0.354800 -0.374300
vn -0.906100 -0.375300 -0.195100
vn 0.000000 0.000000 -1.000000
vn -0.424300 0.424300 -0.800000
vn 0.000000 0.600000 -0.800000
vn -0.229600 0.554300 -0.800000
vn 0.229600 0.554300 -0.800000
vn 0.424300 0.424300 -0.800000
vn 0.554300 0.229600 -0.800000
vn 0.600000 0.000000 -0.800000
vn 0.554300 -0.229600 -0.800000
g Cube_Cube_speaker-wood
s off
f 5/1/1 1/2/1 2/3/1 6/4/1
f 7/4/2 8/1/2 4/2/2 3/3/2
f 5/4/3 7/1/3 3/2/3 1/3/3
f 1/5/4 3/6/4 4/2/4 2/3/4
f 2/2/5 4/3/5 8/4/5 6/1/5
g Cube_Cube_speaker-driver
s 1
f 40/7/6 48/8/7 41/9/8 25/10/9
f 38/11/10 46/12/11 47/13/12 39/14/13
f 25/10/9 41/9/8 42/15/14 26/16/15
f 36/17/16 44/18/17 45/19/18 37/20/19
f 39/14/13 47/13/12 48/8/7 40/7/6
f 26/16/15 42/15/14 43/21/20 27/22/21
f 37/20/19 45/19/18 46/12/11 38/11/10
f 52/23/22 51/24/23 56/25/24 57/26/25
f 51/24/23 50/27/26 55/28/27 56/25/24
f 50/27/26 49/29/28 54/30/29 55/28/27
f 57/26/25 56/25/24 59/31/30 60/32/31
f 56/25/24 55/28/27 58/33/32 59/31/30
f 60/32/31 59/31/30 62/34/33 63/35/34
f 59/31/30 58/33/32 61/36/35 62/34/33
f 63/35/34 62/34/33 65/37/36 66/38/37
f 62/34/33 61/36/35 64/39/38 65/37/36
f 66/38/37 65/37/36 68/40/39 69/41/40
f 65/37/36 64/39/38 67/42/41 68/40/39
f 69/41/40 68/40/39 71/43/42 72/44/43
f 68/40/39 67/42/41 70/45/44 71/43/42
f 72/44/43 71/43/42 74/46/45 75/47/46
f 71/43/42 70/45/44 73/48/47 74/46/45
f 75/47/46 74/46/45 77/49/48 78/50/49
f 74/46/45 73/48/47 76/51/50 77/49/48
f 78/50/49 77/49/48 80/52/51 81/53/52
f 77/49/48 76/51/50 79/54/53 80/52/51
f 81/53/52 80/52/51 84/55/54 85/56/55
f 80/52/51 79/54/53 83/57/56 84/55/54
f 85/56/55 84/55/54 88/58/57 89/59/58
f 84/55/54 83/57/56 87/60/59 88/58/57
f 83/57/56 82/61/60 86/62/61 87/60/59
f 89/59/58 88/58/57 92/63/62 93/64/63
f 88/58/57 87/60/59 91/65/64 92/63/62
f 87/60/59 86/62/61 90/66/65 91/65/64
f 93/64/63 92/63/62 96/67/66 97/68/67
f 92/63/62 91/65/64 95/69/68 96/67/66
f 91/65/64 90/66/65 94/70/69 95/69/68
f 97/68/67 96/67/66 100/71/70 101/72/71
f 96/67/66 95/69/68 99/73/72 100/71/70
f 95/69/68 94/70/69 98/74/73 99/73/72
f 101/72/71 100/71/70 104/75/74 105/76/75
f 100/71/70 99/73/72 103/77/76 104/75/74
f 99/73/72 98/74/73 102/78/77 103/77/76
f 53/79/78 52/23/22 57/26/25
f 53/79/78 57/26/25 60/32/31
f 53/79/78 60/32/31 63/35/34
f 53/79/78 63/35/34 66/38/37
f 53/79/78 66/38/37 69/41/40
f 53/79/78 69/41/40 72/44/43
f 53/79/78 72/44/43 75/47/46
f 53/79/78 75/47/46 78/50/49
f 53/79/78 78/50/49 81/53/52
f 53/79/78 81/53/52 85/56/55
f 53/79/78 85/56/55 89/59/58
f 53/79/78 89/59/58 93/64/63
f 53/79/78 93/64/63 97/68/67
f 53/79/78 97/68/67 101/72/71
f 53/79/78 101/72/71 105/76/75
f 53/79/78 105/76/75 52/23/22
f 105/76/75 104/75/74 51/24/23 52/23/22
f 104/75/74 103/77/76 50/27/26 51/24/23
f 103/77/76 102/78/77 49/29/28 50/27/26
f 35/80/79 82/81/60 44/18/17 36/17/16
f 33/82/80 90/83/80 86/84/81 34/85/81
f 32/86/82 31/87/83 98/88/83 94/89/82
f 30/90/84 29/91/85 49/92/85 102/93/84
f 27/22/21 43/21/20 54/94/29 28/95/86
f 34/85/81 86/84/81 82/81/60 35/80/79
f 33/82/80 32/86/82 94/89/82 90/83/80
f 31/87/83 30/90/84 102/93/84 98/88/83
f 28/95/86 54/94/29 49/92/85 29/91/85
f 55/28/27 54/30/29 43/96/20 58/33/32
f 58/33/32 43/96/20 42/97/14 61/36/35
f 61/36/35 42/97/14 41/98/8 64/39/38
f 64/39/38 41/98/8 48/99/7 67/42/41
f 67/42/41 48/99/7 47/100/12 70/45/44
f 70/45/44 47/100/12 46/101/11 73/48/47
f 73/48/47 46/101/11 45/102/18 76/51/50
f 76/51/50 45/102/18 44/103/17 79/54/53
f 79/54/53 44/103/17 82/61/60 83/57/56
g Cube_Cube_speaker-open-front
s off
f 14/104/78 15/105/78 6/3/78
f 15/105/78 16/106/78 6/3/78
f 12/107/78 8/5/78 11/108/78
f 10/109/78 11/108/78 8/5/78
f 24/110/78 7/6/78 23/111/78
f 22/112/78 23/111/78 7/6/78
f 20/113/78 5/2/78 19/114/78
f 18/115/78 19/114/78 5/2/78
f 20/113/78 21/116/78 5/2/78
f 21/116/78 22/112/78 7/6/78
f 7/6/78 5/2/78 21/116/78
f 17/117/78 18/115/78 5/2/78
f 16/106/78 17/117/78 6/3/78
f 5/2/78 6/3/78 17/117/78
f 14/104/78 6/3/78 13/118/78
f 12/107/78 13/118/78 8/5/78
f 8/5/78 13/118/78 6/3/78
f 9/119/78 10/109/78 8/5/78
f 8/5/78 7/6/78 9/119/78
f 9/119/78 7/6/78 24/110/78
g Cube_Cube_metal-surround
f 11/120/78 27/121/78 28/122/78 12/123/78
f 22/124/78 38/125/78 39/126/78 23/127/78
f 9/128/78 25/129/78 26/130/78 10/131/78
f 20/132/78 36/133/78 37/134/78 21/135/78
f 18/136/78 34/137/78 35/138/78 19/139/78
f 17/140/78 16/141/78 32/142/78 33/143/78
f 15/144/78 14/145/78 30/146/78 31/147/78
f 12/123/78 28/122/78 29/148/78 13/149/78
f 23/127/78 39/126/78 40/150/78 24/151/78
f 10/131/78 26/130/78 27/121/78 11/120/78
f 21/135/78 37/134/78 38/125/78 22/124/78
f 19/139/78 35/138/78 36/133/78 20/132/78
f 17/140/78 33/143/78 34/137/78 18/136/78
f 16/141/78 15/144/78 31/147/78 32/142/78
f 14/145/78 13/149/78 29/148/78 30/146/78
f 24/151/78 40/150/78 25/129/78 9/128/78
