# Blender v2.73 (sub 0) OBJ File: 'banister-horizontal_left.blend'
# www.blender.org
o Cylinder_Cylinder_verticals
v -0.312500 0.437500 0.437500
v -0.312500 0.437500 0.500000
v -0.250000 0.437500 0.500000
v -0.250000 0.437500 0.437500
v -0.312500 -0.500000 0.437500
v -0.312500 -0.500000 0.500000
v -0.250000 -0.500000 0.500000
v -0.250000 -0.500000 0.437500
v 0.500000 0.437500 0.312500
v 0.500000 0.437500 0.500000
v -0.500000 0.437500 0.500000
v -0.500000 0.437500 0.312500
v 0.500000 0.500000 0.312500
v 0.500000 0.500000 0.500000
v -0.500000 0.500000 0.500000
v -0.500000 0.500000 0.312500
v 0.312500 -0.500000 0.437500
v 0.312500 -0.500000 0.500000
v 0.250000 -0.500000 0.500000
v 0.250000 -0.500000 0.437500
v 0.312500 0.437500 0.437500
v 0.312500 0.437500 0.500000
v 0.250000 0.437500 0.500000
v 0.250000 0.437500 0.437500
vt 0.750000 0.062500
vt 0.750000 0.000000
vt 0.812500 0.000000
vt 0.812500 0.062500
vt 0.937500 0.000000
vt 0.937500 0.062500
vt 0.000000 0.062500
vt 0.000000 -0.000000
vt 0.937500 0.562500
vt 0.937500 0.625000
vt -0.000000 0.625000
vt -0.000000 0.562500
vt 0.937500 0.875000
vt 0.937500 0.812500
vt 0.000000 0.812500
vt 0.000000 0.875000
vt 0.937500 0.750000
vt 0.937500 0.687500
vt -0.000000 0.687500
vt -0.000000 0.750000
vt 0.187500 0.062500
vt 0.187500 0.000000
vt 0.250000 0.000000
vt 0.250000 0.062500
vt -0.062500 1.000000
vt 0.125000 1.000000
vt 0.125000 0.937500
vt -0.062500 0.937500
vt 0.000000 1.000000
vt 1.000000 1.000000
vt 1.000000 0.937500
vt -0.000000 0.937500
vt 0.000000 0.187500
vt 1.000000 0.187500
vt 1.000000 0.000000
vn 0.000000 -1.000000 0.000000
vn 0.000000 0.000000 -1.000000
vn -1.000000 0.000000 0.000000
vn 0.000000 0.000000 1.000000
vn 1.000000 0.000000 0.000000
vn 0.000000 1.000000 0.000000
g Cylinder_Cylinder_verticals_Cylinder_Cylinder_verticals_verticals
s off
f 8/1/1 7/2/1 6/3/1 5/4/1
f 1/5/2 4/6/2 8/7/2 5/8/2
f 2/9/3 1/10/3 5/11/3 6/12/3
f 3/6/4 2/5/4 6/8/4 7/7/4
f 21/13/5 22/14/5 18/15/5 17/16/5
f 22/17/4 23/18/4 19/19/4 18/20/4
f 23/9/3 24/10/3 20/11/3 19/12/3
f 24/18/2 21/17/2 17/20/2 20/19/2
f 17/21/1 18/22/1 19/23/1 20/24/1
f 4/13/5 3/14/5 7/15/5 8/16/5
g Cylinder_Cylinder_verticals_Cylinder_Cylinder_verticals_railing
f 13/25/5 14/26/5 10/27/5 9/28/5
f 14/29/4 15/30/4 11/31/4 10/32/4
f 15/26/3 16/25/3 12/28/3 11/27/3
f 16/30/2 13/29/2 9/32/2 12/31/2
f 9/8/1 10/33/1 11/34/1 12/35/1
f 16/35/6 15/34/6 14/33/6 13/8/6
