# Blender v2.73 (sub 0) OBJ File: 'medicine-cabinet.blend'
# www.blender.org
o Cylinder
v -0.312500 -0.187500 0.500000
v -0.312500 -0.187500 0.312500
v 0.312500 -0.187500 0.312500
v 0.312500 -0.187500 0.500000
v -0.312500 0.500000 0.500000
v -0.312500 0.500000 0.312500
v 0.312500 0.500000 0.312500
v 0.312500 0.500000 0.500000
v -0.312500 0.437500 0.312500
v 0.312500 0.437500 0.312500
v -0.312500 -0.125000 0.312500
v 0.312500 -0.125000 0.312500
v -0.250000 0.437500 0.312500
v -0.250000 -0.125000 0.312500
v 0.250000 0.437500 0.312500
v 0.250000 -0.125000 0.312500
vt 0.875000 0.562500
vt 0.875000 0.750000
vt 0.187500 0.750000
vt 0.187500 0.562500
vt 0.812500 1.000000
vt 0.187500 1.000000
vt 0.187500 0.937500
vt 0.812500 0.937500
vt 0.875000 0.812500
vt 0.875000 1.000000
vt 0.187500 0.812500
vt 0.187500 0.312500
vt 0.812500 0.312500
vt 0.250000 0.250000
vt 0.250000 0.062500
vt 0.875000 0.062500
vt 0.875000 0.250000
vt 0.812500 0.812500
vt 0.812500 0.375000
vt 0.187500 0.375000
vt 0.750000 0.937500
vt 0.750000 0.375000
vt 0.250000 0.937500
vt 0.250000 0.375000
vn -1.000000 0.000000 0.000000
vn 0.000000 0.000000 -1.000000
vn 1.000000 0.000000 0.000000
vn 0.000000 0.000000 1.000000
vn 0.000000 -1.000000 0.000000
vn 0.000000 1.000000 0.000000
g Cylinder_Cylinder_wood
s off
f 5/1/1 6/2/1 2/3/1 1/4/1
f 6/5/2 7/6/2 10/7/2 9/8/2
f 7/9/3 8/10/3 4/6/3 3/11/3
f 8/5/4 5/6/4 1/12/4 4/13/4
f 1/14/5 2/15/5 3/16/5 4/17/5
f 8/18/6 7/5/6 6/6/6 5/11/6
f 3/12/2 2/13/2 11/19/2 12/20/2
f 13/21/2 14/22/2 11/19/2 9/8/2
f 15/23/2 10/7/2 12/20/2 16/24/2
g Cylinder_Cylinder_mirror
f 14/22/2 13/21/2 15/23/2 16/24/2
