# Blender v2.73 (sub 0) OBJ File: 'homedecor-fence-chainlink.blend'
# www.blender.org
o Cylinder
v 0.500000 -0.500000 0.500000
v -0.500000 -0.500000 0.500000
v -0.500000 -0.500000 0.375000
v 0.500000 -0.500000 0.375000
v 0.500000 0.500000 0.500000
v -0.500000 0.500000 0.500000
v -0.500000 0.500000 0.375000
v 0.500000 0.500000 0.375000
v 0.437500 -0.500000 0.500000
v 0.437500 -0.500000 0.375000
v 0.437500 0.500000 0.500000
v 0.437500 0.500000 0.375000
v -0.437500 -0.500000 0.500000
v -0.437500 -0.500000 0.375000
v -0.437500 0.500000 0.500000
v -0.437500 0.500000 0.375000
v -0.437500 0.500000 0.406250
v -0.437500 -0.500000 0.406250
v 0.437500 0.500000 0.406250
v 0.437500 -0.500000 0.406250
v -0.437500 0.500000 0.468750
v -0.437500 -0.500000 0.468750
v 0.437500 0.500000 0.468750
v 0.437500 -0.500000 0.468750
v -0.437500 0.437500 0.406250
v 0.437500 0.437500 0.406250
v -0.437500 0.437500 0.468750
v 0.437500 0.437500 0.468750
v -0.437500 -0.437500 0.406250
v 0.437500 -0.437500 0.406250
v -0.437500 -0.437500 0.468750
v 0.437500 -0.437500 0.468750
v -0.437500 0.437500 0.437500
v 0.437500 0.437500 0.437500
v -0.437500 -0.437500 0.437500
v 0.437500 -0.437500 0.437500
vt 0.000000 1.000000
vt 0.000000 0.875000
vt 0.062500 0.875000
vt 0.062500 1.000000
vt 1.000000 0.875000
vt 1.000000 1.000000
vt 0.937500 1.000000
vt 0.937500 0.875000
vt 0.062500 0.968750
vt 0.062500 0.906250
vt 0.937500 0.906250
vt 0.937500 0.968750
vt 1.000000 0.125000
vt 0.937500 0.125000
vt 0.937500 0.000000
vt 1.000000 0.000000
vt 0.000000 0.000000
vt 0.062500 0.000000
vt 0.062500 0.125000
vt 0.000000 0.125000
vt 0.062500 0.093750
vt 0.062500 0.031250
vt 0.937500 0.031250
vt 0.937500 0.093750
vt 0.875000 1.000000
vt 0.875000 0.000000
vt 0.125000 1.000000
vt 0.125000 0.000000
vt 0.062500 0.937500
vt 0.937500 0.937500
vt 0.062500 0.062500
vt 0.937500 0.062500
vn 0.000000 1.000000 0.000000
vn 0.000000 -1.000000 0.000000
vn -1.000000 0.000000 -0.000000
vn 1.000000 0.000000 0.000000
vn 0.000000 0.000000 1.000000
vn 0.000000 0.000000 -1.000000
g Cylinder_Cylinder_top
s off
f 5/1/1 8/2/1 12/3/1 11/4/1
f 7/5/1 6/6/1 15/7/1 16/8/1
f 23/9/1 19/10/1 17/11/1 21/12/1
f 30/10/1 29/11/1 31/12/1 32/9/1
g Cylinder_Cylinder_bottom
f 3/13/2 14/14/2 13/15/2 2/16/2
f 1/17/2 9/18/2 10/19/2 4/20/2
f 26/21/2 28/22/2 27/23/2 25/24/2
f 24/22/2 22/23/2 18/24/2 20/21/2
g Cylinder_Cylinder_right
f 6/6/3 7/25/3 3/26/3 2/16/3
f 12/25/3 10/26/3 9/16/3 11/6/3
g Cylinder_Cylinder_left
f 8/27/4 5/1/4 1/17/4 4/28/4
f 13/17/4 14/28/4 16/27/4 15/1/4
g Cylinder_Cylinder_back
f 1/17/5 5/1/5 11/4/5 9/18/5
f 6/6/5 2/16/5 13/15/5 15/7/5
f 28/29/5 23/4/5 21/7/5 27/30/5
f 32/31/5 31/32/5 22/15/5 24/18/5
g Cylinder_Cylinder_front
f 8/1/6 4/17/6 10/18/6 12/4/6
f 3/16/6 7/6/6 16/7/6 14/15/6
f 25/30/6 17/7/6 19/4/6 26/29/6
f 18/15/6 29/32/6 30/31/6 20/18/6
f 33/30/5 35/32/5 36/31/5 34/29/5
