# Blender v2.73 (sub 0) OBJ File: 'trash_can.blend'
# www.blender.org
o poubelle_Poubelle_Cylinder.214
v -0.124387 -0.499107 0.262526
v -0.147565 0.203898 0.310496
v -0.246590 0.203899 0.239106
v -0.208403 -0.499106 0.201957
v -0.315226 0.203899 0.138154
v -0.266637 -0.499106 0.116305
v -0.345195 0.203899 0.019813
v -0.292063 -0.499106 0.015900
v -0.332882 0.203899 -0.101640
v -0.281616 -0.499106 -0.087145
v -0.279773 0.203899 -0.211556
v -0.236556 -0.499106 -0.180402
v -0.192272 0.203900 -0.296680
v -0.162318 -0.499106 -0.252624
v -0.080934 0.203900 -0.346744
v -0.067854 -0.499106 -0.295100
v 0.040812 0.203900 -0.355708
v 0.035439 -0.499105 -0.302705
v 0.158281 0.203900 -0.322492
v 0.135105 -0.499105 -0.274523
v 0.257306 0.203899 -0.251102
v 0.219121 -0.499105 -0.213954
v 0.325943 0.203899 -0.150150
v 0.277355 -0.499105 -0.128301
v 0.355912 0.203899 -0.031810
v 0.302781 -0.499105 -0.027898
v 0.343599 0.203899 0.089643
v 0.292335 -0.499105 0.075148
v 0.290489 0.203899 0.199560
v 0.247275 -0.499105 0.168405
v 0.202989 0.203899 0.284684
v 0.173036 -0.499106 0.240627
v 0.091651 0.203898 0.334747
v 0.078573 -0.499106 0.283103
v -0.030095 0.203898 0.343712
v -0.024721 -0.499107 0.290709
v -0.032947 0.218496 0.371843
v -0.159866 0.218496 0.335955
v 0.098592 0.218496 0.362157
v 0.218886 0.218497 0.308067
v 0.313425 0.218497 0.216096
v 0.370807 0.218497 0.097336
v 0.384110 0.218498 -0.033886
v 0.351730 0.218498 -0.161745
v 0.277573 0.218498 -0.270819
v 0.170583 0.218498 -0.347951
v 0.043664 0.218498 -0.383839
v -0.087876 0.218498 -0.374153
v -0.208169 0.218498 -0.320063
v -0.302709 0.218498 -0.228092
v -0.360090 0.218498 -0.109333
v -0.373393 0.218497 0.021889
v -0.341014 0.218497 0.149749
v -0.266857 0.218497 0.258822
v -0.166289 0.193365 0.349248
v -0.277439 0.193366 0.269117
v -0.354479 0.193366 0.155803
v -0.388117 0.193366 0.022974
v -0.374296 0.193366 -0.113350
v -0.314684 0.193366 -0.236726
v -0.216470 0.193367 -0.332272
v -0.091500 0.193367 -0.388465
v 0.045153 0.193367 -0.398526
v 0.177005 0.193367 -0.361244
v 0.288155 0.193366 -0.281114
v 0.365195 0.193366 -0.167800
v 0.398834 0.193366 -0.034970
v 0.385013 0.193366 0.101352
v 0.325401 0.193366 0.224728
v 0.227187 0.193365 0.320276
v 0.102217 0.193365 0.376468
v -0.034436 0.193365 0.386531
v -0.034436 0.258097 0.386531
v -0.166289 0.258097 0.349248
v 0.102217 0.258097 0.376468
v 0.227187 0.258097 0.320276
v 0.325401 0.258098 0.224728
v 0.385013 0.258098 0.101352
v 0.398834 0.258099 -0.034970
v 0.365195 0.258099 -0.167800
v 0.288155 0.258099 -0.281113
v 0.177005 0.258099 -0.361244
v 0.045153 0.258099 -0.398526
v -0.091500 0.258099 -0.388465
v -0.216470 0.258099 -0.332272
v -0.314684 0.258099 -0.236726
v -0.374296 0.258099 -0.113350
v -0.388117 0.258098 0.022974
v -0.354479 0.258098 0.155803
v -0.277439 0.258098 0.269117
v -0.143761 0.258098 0.302623
v -0.240322 0.258098 0.233009
v -0.307251 0.258098 0.134567
v -0.336475 0.258098 0.019171
v -0.324468 0.258099 -0.099260
v -0.272679 0.258099 -0.206443
v -0.187356 0.258099 -0.289449
v -0.078788 0.258099 -0.338267
v 0.039930 0.258099 -0.347009
v 0.154477 0.258099 -0.314619
v 0.251039 0.258099 -0.245005
v 0.317968 0.258099 -0.146564
v 0.347191 0.258099 -0.031168
v 0.335184 0.258098 0.087264
v 0.283396 0.258098 0.194446
v 0.198072 0.258098 0.277453
v 0.089504 0.258097 0.326270
v -0.029213 0.258097 0.335012
v -0.027136 0.313812 0.314521
v -0.134800 0.313813 0.284077
v 0.084448 0.313813 0.306305
v 0.186492 0.313813 0.260421
v 0.266689 0.313813 0.182402
v 0.315365 0.313813 0.081660
v 0.326650 0.313813 -0.029655
v 0.299183 0.313814 -0.138117
v 0.236276 0.313814 -0.230643
v 0.037852 0.313814 -0.326518
v 0.145517 0.313814 -0.296074
v -0.073731 0.313814 -0.318301
v -0.175775 0.313814 -0.272417
v -0.255972 0.313814 -0.194398
v -0.304649 0.313814 -0.093656
v -0.315934 0.313813 0.017659
v -0.288467 0.313813 0.126120
v -0.225559 0.313813 0.218647
v 0.052078 0.313814 -0.102690
v 0.082331 0.313814 -0.080880
v 0.082331 0.355065 -0.080880
v 0.052078 0.355065 -0.102690
v -0.041361 0.313813 0.090693
v -0.071614 0.313813 0.068884
v -0.071614 0.355065 0.068884
v -0.041361 0.355065 0.090693
v -0.071614 0.386203 0.068884
v -0.041361 0.386203 0.090693
v 0.082331 0.386204 -0.080880
v 0.052078 0.386204 -0.102690
v 0.175770 0.313814 -0.274264
v 0.206023 0.313814 -0.252454
v -0.195306 0.313813 0.240457
v -0.165053 0.313813 0.262267
v 0.088043 0.313814 -0.120857
v 0.077220 0.313814 -0.121676
v 0.077220 0.355065 -0.121676
v 0.088043 0.355065 -0.120857
v 0.092348 0.313814 -0.110774
v 0.092348 0.355065 -0.110774
v -0.077327 0.313813 0.108861
v -0.066504 0.313813 0.109679
v -0.066504 0.355065 0.109679
v -0.077327 0.355065 0.108861
v -0.081632 0.313813 0.098776
v -0.081632 0.355065 0.098776
v -0.081632 0.386203 0.098776
v -0.077327 0.386203 0.108861
v -0.066504 0.386203 0.109679
v 0.092348 0.386204 -0.110774
v 0.088043 0.386204 -0.120857
v 0.077220 0.386204 -0.121676
vt 0.322026 0.460840
vt 0.000000 0.456784
vt 0.000901 0.404004
vt 0.322790 0.416061
vt 0.002594 0.360586
vt 0.324227 0.379223
vt 0.679238 0.652419
vt 1.000000 0.641530
vt 0.999384 0.693984
vt 0.678715 0.696924
vt 0.999169 0.749768
vt 0.678534 0.744253
vt 0.999383 0.802154
vt 0.678715 0.788699
vt 1.000000 0.844824
vt 0.679238 0.824902
vt 0.003418 0.625780
vt 0.324227 0.606633
vt 0.323404 0.648576
vt 0.002720 0.661366
vt 0.322966 0.700570
vt 0.002349 0.705479
vt 0.322966 0.756341
vt 0.002349 0.752798
vt 0.323404 0.809164
vt 0.002721 0.797615
vt 0.324227 0.852668
vt 0.003419 0.834525
vt 0.678534 0.832143
vt 0.356771 0.847924
vt 0.355537 0.800514
vt 0.677486 0.791919
vt 0.355108 0.745908
vt 0.677123 0.745589
vt 0.355537 0.690693
vt 0.677486 0.698743
vt 0.356771 0.641530
vt 0.678534 0.657031
vt 0.324227 0.587979
vt 0.002594 0.606633
vt 0.000901 0.564600
vt 0.322790 0.552316
vt 0.000000 0.512558
vt 0.322026 0.508162
vt 0.386913 0.093233
vt 0.367833 0.145653
vt 0.355108 0.143410
vt 0.375723 0.086772
vt 0.367833 0.201438
vt 0.355108 0.203682
vt 0.386912 0.253859
vt 0.375722 0.260319
vt 0.422770 0.296593
vt 0.414464 0.306490
vt 0.471081 0.324485
vt 0.466662 0.336627
vt 0.526018 0.334173
vt 0.526018 0.347093
vt 0.580956 0.324486
vt 0.585375 0.336627
vt 0.629267 0.296593
vt 0.637572 0.306491
vt 0.665125 0.253860
vt 0.676314 0.260321
vt 0.684204 0.201440
vt 0.696929 0.203683
vt 0.684205 0.145655
vt 0.696929 0.143411
vt 0.665125 0.093234
vt 0.676315 0.086774
vt 0.629267 0.050500
vt 0.637573 0.040602
vt 0.580957 0.022608
vt 0.585376 0.010466
vt 0.526020 0.012920
vt 0.526020 0.000000
vt 0.471082 0.022607
vt 0.466663 0.010466
vt 0.422771 0.050499
vt 0.414466 0.040601
vt 0.913966 0.571184
vt 0.913493 0.514111
vt 0.924822 0.515132
vt 0.925313 0.574423
vt 0.914856 0.618186
vt 0.926237 0.623253
vt 0.898822 0.179171
vt 0.900155 0.230396
vt 0.888454 0.234876
vt 0.887068 0.181661
vt 0.898359 0.120173
vt 0.886587 0.120369
vt 0.898822 0.060517
vt 0.887068 0.058394
vt 0.900155 0.007398
vt 0.888454 0.003211
vt 0.884757 0.296439
vt 0.886587 0.341853
vt 0.874911 0.347093
vt 0.873010 0.299914
vt 0.883784 0.240210
vt 0.871998 0.241499
vt 0.883784 0.179949
vt 0.871998 0.178896
vt 0.884757 0.122925
vt 0.873009 0.119654
vt 0.886587 0.076014
vt 0.874910 0.070920
vt 0.900386 0.066681
vt 0.901052 0.010008
vt 0.912420 0.006690
vt 0.911728 0.065566
vt 0.900155 0.126953
vt 0.911487 0.128180
vt 0.900386 0.183554
vt 0.911728 0.186981
vt 0.901052 0.229656
vt 0.912420 0.234876
vt 0.913966 0.397678
vt 0.914855 0.352360
vt 0.926237 0.347093
vt 0.925313 0.394172
vt 0.913493 0.453853
vt 0.924822 0.452531
vt 0.726477 0.178896
vt 0.726477 0.241499
vt 0.696929 0.241472
vt 0.696929 0.178869
vt 0.727488 0.299914
vt 0.697941 0.299887
vt 0.729389 0.347093
vt 0.699841 0.347066
vt 0.791796 0.115427
vt 0.790410 0.170611
vt 0.760858 0.170570
vt 0.762244 0.115386
vt 0.789929 0.232586
vt 0.760378 0.232545
vt 0.790410 0.293877
vt 0.760858 0.293836
vt 0.791796 0.347093
vt 0.762244 0.347052
vt 0.730804 0.347093
vt 0.729880 0.298263
vt 0.759453 0.298248
vt 0.760378 0.347078
vt 0.729389 0.238972
vt 0.758962 0.238957
vt 0.729389 0.176372
vt 0.758962 0.176357
vt 0.729881 0.118012
vt 0.759453 0.117998
vt 0.730805 0.070933
vt 0.760378 0.070919
vt 0.325159 0.588772
vt 0.324467 0.540878
vt 0.354041 0.540992
vt 0.354733 0.588887
vt 0.324227 0.482077
vt 0.353801 0.482191
vt 0.324468 0.419462
vt 0.354041 0.419577
vt 0.325159 0.360586
vt 0.354733 0.360700
vt 0.729389 0.070919
vt 0.727488 0.119654
vt 0.697940 0.119627
vt 0.699841 0.070892
vt 0.021416 0.270440
vt 0.000000 0.211601
vt 0.023304 0.207492
vt 0.041909 0.258608
vt 0.061665 0.318406
vt 0.076875 0.300279
vt 0.115891 0.349713
vt 0.123985 0.327478
vt 0.177555 0.360586
vt 0.177555 0.336923
vt 0.239219 0.349713
vt 0.231126 0.327477
vt 0.293445 0.318405
vt 0.278235 0.300278
vt 0.333693 0.270439
vt 0.313200 0.258608
vt 0.355108 0.211599
vt 0.331806 0.207491
vt 0.355108 0.148985
vt 0.331805 0.153094
vt 0.333692 0.090146
vt 0.313200 0.101977
vt 0.293444 0.042180
vt 0.278234 0.060307
vt 0.239218 0.010872
vt 0.231125 0.033108
vt 0.177554 0.000000
vt 0.177554 0.023663
vt 0.115890 0.010873
vt 0.123984 0.033109
vt 0.061664 0.042181
vt 0.076874 0.060308
vt 0.021416 0.090147
vt 0.041909 0.101979
vt 0.000000 0.148986
vt 0.023304 0.153095
vt 0.870689 0.200955
vt 0.870235 0.255341
vt 0.845258 0.253295
vt 0.845685 0.202178
vt 0.870690 0.306093
vt 0.845685 0.300999
vt 0.871998 0.347093
vt 0.846915 0.339535
vt 0.845258 0.145833
vt 0.844054 0.193774
vt 0.819011 0.196678
vt 0.820142 0.151617
vt 0.843637 0.247614
vt 0.818618 0.247283
vt 0.844054 0.300862
vt 0.819011 0.297331
vt 0.845258 0.347093
vt 0.820142 0.340784
vt 0.793026 0.347093
vt 0.792223 0.304672
vt 0.817863 0.300131
vt 0.818618 0.340004
vt 0.791796 0.253162
vt 0.791796 0.198778
vt 0.817462 0.200601
vt 0.817462 0.251717
vt 0.792223 0.148078
vt 0.817863 0.152948
vt 0.793026 0.107178
vt 0.818618 0.114506
vt 0.329147 0.828858
vt 0.328387 0.787252
vt 0.354018 0.782532
vt 0.354733 0.821638
vt 0.327982 0.736170
vt 0.353638 0.734519
vt 0.327982 0.681773
vt 0.353637 0.683391
vt 0.328386 0.630622
vt 0.354018 0.635314
vt 0.329147 0.588887
vt 0.354733 0.596087
vt 0.696929 0.000000
vt 0.713054 0.000261
vt 0.713054 0.019090
vt 0.696929 0.018829
vt 0.696929 0.037821
vt 0.713067 0.037695
vt 0.713067 0.056541
vt 0.696929 0.056667
vt 0.713067 0.070766
vt 0.696929 0.070892
vt 0.713054 0.033304
vt 0.696929 0.033043
vt 0.905513 0.337154
vt 0.905432 0.253532
vt 0.919657 0.253697
vt 0.919738 0.337320
vt 0.852032 0.129487
vt 0.852032 0.032832
vt 0.869074 0.032832
vt 0.869074 0.129487
vt 0.832832 0.127450
vt 0.818618 0.127633
vt 0.818770 0.035802
vt 0.832984 0.035619
vt 0.777420 0.115386
vt 0.760378 0.115386
vt 0.760378 0.018732
vt 0.777420 0.018731
vt 0.713067 0.037796
vt 0.717905 0.037821
vt 0.717905 0.056666
vt 0.713067 0.056641
vt 0.886785 0.346708
vt 0.886668 0.336935
vt 0.905629 0.346927
vt 0.851663 0.127207
vt 0.851838 0.141611
vt 0.833008 0.141854
vt 0.852032 0.145407
vt 0.833201 0.145649
vt 0.717895 0.033253
vt 0.713054 0.014474
vt 0.717895 0.014423
vt 0.852032 0.023630
vt 0.851815 0.035376
vt 0.833201 0.023872
vt 0.886587 0.253312
vt 0.886681 0.239266
vt 0.905526 0.239486
vt 0.886785 0.234876
vt 0.905630 0.235096
vt 0.919751 0.239652
vt 0.919855 0.235261
vt 0.717895 0.000210
vt 0.818987 0.024056
vt 0.818793 0.142037
vt 0.818987 0.145833
vt 0.717905 0.070892
vt 0.713067 0.070867
vt 0.919855 0.347093
vt 0.864800 0.143245
vt 0.860509 0.145833
vt 0.856278 0.143244
vt 0.856307 0.019074
vt 0.860597 0.016487
vt 0.864828 0.019076
vt 0.871998 0.149498
vt 0.846095 0.186057
vt 0.846505 0.169935
vt 0.846915 0.153813
vt 0.825894 0.611436
vt 0.779282 0.619655
vt 0.732672 0.611436
vt 0.691683 0.587772
vt 0.661260 0.551514
vt 0.645072 0.507039
vt 0.645072 0.459709
vt 0.661259 0.415234
vt 0.691683 0.378976
vt 0.732671 0.355312
vt 0.779282 0.347093
vt 0.825893 0.355312
vt 0.866882 0.378977
vt 0.897305 0.415233
vt 0.913493 0.459709
vt 0.913493 0.507039
vt 0.897305 0.551514
vt 0.866883 0.587771
vt 0.449738 0.355972
vt 0.500090 0.347093
vt 0.516874 0.350053
vt 0.533657 0.353012
vt 0.550441 0.355971
vt 0.594720 0.381535
vt 0.627585 0.420702
vt 0.645072 0.468747
vt 0.645072 0.519875
vt 0.627585 0.567920
vt 0.594720 0.607087
vt 0.550442 0.632651
vt 0.500091 0.641530
vt 0.483306 0.638571
vt 0.466523 0.635611
vt 0.449739 0.632652
vt 0.405460 0.607088
vt 0.372596 0.567921
vt 0.355108 0.519876
vt 0.355108 0.468748
vt 0.372595 0.420702
vt 0.405460 0.381536
vt 0.817596 0.267855
vt 0.817729 0.283993
vn -0.311700 -0.697500 0.645200
vn -0.354900 -0.578400 0.734500
vn -0.584700 -0.578400 0.568800
vn -0.513600 -0.697500 0.499600
vn -0.743900 -0.578400 0.334500
vn -0.653500 -0.697500 0.293900
vn -0.813500 -0.578400 0.059900
vn -0.714600 -0.697500 0.052600
vn -0.784900 -0.578400 -0.221900
vn -0.689500 -0.697500 -0.195000
vn -0.661700 -0.578400 -0.477000
vn -0.581300 -0.697500 -0.419000
vn -0.458600 -0.578400 -0.674600
vn -0.402900 -0.697500 -0.592600
vn -0.200200 -0.578400 -0.790700
vn -0.175900 -0.697500 -0.694600
vn 0.082200 -0.578400 -0.811500
vn 0.072300 -0.697500 -0.712900
vn 0.354900 -0.578400 -0.734500
vn 0.311700 -0.697500 -0.645200
vn 0.584700 -0.578400 -0.568800
vn 0.513600 -0.697500 -0.499600
vn 0.744000 -0.578400 -0.334500
vn 0.653500 -0.697500 -0.293900
vn 0.813500 -0.578400 -0.059900
vn 0.714600 -0.697500 -0.052600
vn 0.784900 -0.578400 0.221900
vn 0.689500 -0.697500 0.195000
vn 0.661700 -0.578400 0.477000
vn 0.581300 -0.697500 0.419000
vn 0.458600 -0.578400 0.674600
vn 0.402900 -0.697500 0.592600
vn 0.200200 -0.578400 0.790700
vn 0.175900 -0.697500 0.694600
vn -0.082200 -0.578400 0.811500
vn -0.072300 -0.697500 0.712900
vn 0.034800 -0.938500 -0.343400
vn 0.150200 -0.938500 -0.310800
vn -0.084700 -0.938500 -0.334600
vn -0.194000 -0.938500 -0.285400
vn -0.280000 -0.938500 -0.201800
vn -0.332100 -0.938500 -0.093900
vn -0.344200 -0.938500 0.025300
vn -0.314800 -0.938500 0.141500
vn -0.247400 -0.938500 0.240700
vn -0.150200 -0.938500 0.310800
vn -0.034800 -0.938500 0.343400
vn 0.084700 -0.938500 0.334600
vn 0.194000 -0.938500 0.285400
vn 0.280000 -0.938500 0.201800
vn 0.332100 -0.938500 0.093900
vn 0.344200 -0.938500 -0.025300
vn 0.314800 -0.938500 -0.141500
vn 0.247400 -0.938500 -0.240700
vn -0.154900 -0.934400 0.320700
vn -0.255300 -0.934400 0.248300
vn -0.324800 -0.934400 0.146100
vn -0.355200 -0.934400 0.026100
vn -0.342700 -0.934400 -0.096900
vn -0.288900 -0.934400 -0.208300
vn -0.200200 -0.934400 -0.294500
vn -0.087400 -0.934400 -0.345300
vn 0.035900 -0.934400 -0.354300
vn 0.154900 -0.934400 -0.320700
vn 0.255300 -0.934400 -0.248300
vn 0.324800 -0.934400 -0.146000
vn 0.355200 -0.934400 -0.026100
vn 0.342700 -0.934400 0.096900
vn 0.288900 -0.934400 0.208300
vn 0.200200 -0.934400 0.294500
vn 0.087400 -0.934400 0.345300
vn -0.035900 -0.934400 0.354300
vn -0.074900 0.670000 0.738500
vn -0.322900 0.670000 0.668400
vn 0.182200 0.670000 0.719600
vn 0.417400 0.670000 0.613900
vn 0.602200 0.670000 0.434100
vn 0.714300 0.670000 0.202000
vn 0.740300 0.670000 -0.054500
vn 0.677000 0.670000 -0.304400
vn 0.532100 0.670000 -0.517600
vn 0.322900 0.670000 -0.668400
vn 0.074900 0.670000 -0.738500
vn -0.182200 0.670000 -0.719600
vn -0.417400 0.670000 -0.613900
vn -0.602200 0.670000 -0.434100
vn -0.714300 0.670000 -0.202000
vn -0.740300 0.670000 0.054500
vn -0.677000 0.670000 0.304400
vn -0.532100 0.670000 0.517600
vn -0.228700 0.850700 0.473300
vn -0.376800 0.850700 0.366600
vn -0.479400 0.850700 0.215600
vn -0.524200 0.850700 0.038600
vn -0.505800 0.850700 -0.143000
vn -0.426400 0.850700 -0.307400
vn -0.295500 0.850700 -0.434700
vn -0.129000 0.850700 -0.509600
vn 0.053000 0.850700 -0.523000
vn 0.228700 0.850700 -0.473300
vn 0.376800 0.850700 -0.366600
vn 0.479400 0.850700 -0.215600
vn 0.524200 0.850700 -0.038600
vn 0.505800 0.850700 0.143000
vn 0.426400 0.850700 0.307400
vn 0.295500 0.850700 0.434700
vn 0.129000 0.850700 0.509600
vn -0.053000 0.850700 0.523000
vn -0.061600 0.791400 0.608100
vn -0.265900 0.791400 0.550400
vn 0.150100 0.791400 0.592500
vn 0.343700 0.791400 0.505500
vn 0.495800 0.791400 0.357500
vn 0.588200 0.791400 0.166300
vn 0.609600 0.791400 -0.044900
vn 0.557500 0.791400 -0.250600
vn 0.438100 0.791400 -0.426200
vn 0.061600 0.791400 -0.608100
vn 0.265900 0.791400 -0.550400
vn -0.150100 0.791400 -0.592500
vn -0.343700 0.791400 -0.505500
vn -0.495800 0.791400 -0.357500
vn -0.588200 0.791400 -0.166300
vn -0.609600 0.791400 0.044900
vn -0.557500 0.791400 0.250700
vn -0.438100 0.791400 0.426200
vn -0.999900 0.000000 0.011100
vn 0.306400 0.000000 0.951900
vn 0.671700 0.000000 0.740800
vn -0.915800 0.000000 -0.401600
vn 0.999900 0.000000 -0.011100
vn -0.306400 0.000000 -0.951900
vn -0.671600 0.000000 -0.740900
vn 0.915800 0.000000 0.401600
vn 0.584800 0.000000 -0.811200
vn -0.584800 0.000000 0.811200
vn -0.573600 -0.707100 -0.413500
vn -0.573600 0.707100 -0.413500
vn 0.573600 0.707100 0.413500
vn 0.573600 -0.707100 0.413500
vn 0.582200 0.000000 -0.813100
vn -0.281800 0.000000 -0.959500
vn -0.281700 0.000000 -0.959500
vn 0.582200 0.000000 -0.813000
vn 0.999200 0.000000 -0.040100
vn -0.582200 0.000000 0.813100
vn 0.281800 0.000000 0.959500
vn -0.582100 0.000000 0.813000
vn -0.999200 0.000000 0.040000
vn -0.771800 0.635200 0.030900
vn -0.737400 0.628600 -0.247100
vn -0.462700 0.606800 0.646300
vn 0.217500 0.635500 0.740700
vn 0.468400 0.629100 0.620300
vn 0.771800 0.635200 -0.030900
vn 0.737500 0.628600 0.247100
vn 0.462700 0.606800 -0.646300
vn -0.217500 0.635500 -0.740800
vn -0.468400 0.629100 -0.620300
vn -0.335400 0.819100 0.465200
vn 0.335400 0.819100 -0.465200
g poubelle_Poubelle_Cylinder.214_poubelle_Poubelle_Cylinder.214_Poubelle
s 1
f 1/1/1 2/2/2 3/3/3 4/4/4
f 4/4/4 3/3/3 5/5/5 6/6/6
f 6/7/6 5/8/5 7/9/7 8/10/8
f 8/10/8 7/9/7 9/11/9 10/12/10
f 10/12/10 9/11/9 11/13/11 12/14/12
f 12/14/12 11/13/11 13/15/13 14/16/14
f 14/17/14 13/18/13 15/19/15 16/20/16
f 16/20/16 15/19/15 17/21/17 18/22/18
f 18/22/18 17/21/17 19/23/19 20/24/20
f 20/24/20 19/23/19 21/25/21 22/26/22
f 22/26/22 21/25/21 23/27/23 24/28/24
f 24/29/24 23/30/23 25/31/25 26/32/26
f 26/32/26 25/31/25 27/33/27 28/34/28
f 28/34/28 27/33/27 29/35/29 30/36/30
f 30/36/30 29/35/29 31/37/31 32/38/32
f 32/39/32 31/40/31 33/41/33 34/42/34
f 34/42/34 33/41/33 35/43/35 36/44/36
f 2/2/2 1/1/1 36/44/36 35/43/35
f 2/45/2 35/46/35 37/47/37 38/48/38
f 35/46/35 33/49/33 39/50/39 37/47/37
f 33/49/33 31/51/31 40/52/40 39/50/39
f 31/51/31 29/53/29 41/54/41 40/52/40
f 29/53/29 27/55/27 42/56/42 41/54/41
f 27/55/27 25/57/25 43/58/43 42/56/42
f 25/57/25 23/59/23 44/60/44 43/58/43
f 23/59/23 21/61/21 45/62/45 44/60/44
f 21/61/21 19/63/19 46/64/46 45/62/45
f 19/63/19 17/65/17 47/66/47 46/64/46
f 17/65/17 15/67/15 48/68/48 47/66/47
f 15/67/15 13/69/13 49/70/49 48/68/48
f 13/69/13 11/71/11 50/72/50 49/70/49
f 11/71/11 9/73/9 51/74/51 50/72/50
f 9/73/9 7/75/7 52/76/52 51/74/51
f 7/75/7 5/77/5 53/78/53 52/76/52
f 5/77/5 3/79/3 54/80/54 53/78/53
f 3/79/3 2/45/2 38/48/38 54/80/54
f 54/81/54 38/82/38 55/83/55 56/84/56
f 53/85/53 54/81/54 56/84/56 57/86/57
f 52/87/52 53/88/53 57/89/57 58/90/58
f 51/91/51 52/87/52 58/90/58 59/92/59
f 50/93/50 51/91/51 59/92/59 60/94/60
f 49/95/49 50/93/50 60/94/60 61/96/61
f 48/97/48 49/98/49 61/99/61 62/100/62
f 47/101/47 48/97/48 62/100/62 63/102/63
f 46/103/46 47/101/47 63/102/63 64/104/64
f 45/105/45 46/103/46 64/104/64 65/106/65
f 44/107/44 45/105/45 65/106/65 66/108/66
f 43/109/43 44/110/44 66/111/66 67/112/67
f 42/113/42 43/109/43 67/112/67 68/114/68
f 41/115/41 42/113/42 68/114/68 69/116/69
f 40/117/40 41/115/41 69/116/69 70/118/70
f 39/119/39 40/120/40 70/121/70 71/122/71
f 37/123/37 39/119/39 71/122/71 72/124/72
f 38/82/38 37/123/37 72/124/72 55/83/55
f 55/125/55 72/126/72 73/127/73 74/128/74
f 72/126/72 71/129/71 75/130/75 73/127/73
f 71/129/71 70/131/70 76/132/76 75/130/75
f 70/133/70 69/134/69 77/135/77 76/136/76
f 69/134/69 68/137/68 78/138/78 77/135/77
f 68/137/68 67/139/67 79/140/79 78/138/78
f 67/139/67 66/141/66 80/142/80 79/140/79
f 66/143/66 65/144/65 81/145/81 80/146/80
f 65/144/65 64/147/64 82/148/82 81/145/81
f 64/147/64 63/149/63 83/150/83 82/148/82
f 63/149/63 62/151/62 84/152/84 83/150/83
f 62/151/62 61/153/61 85/154/85 84/152/84
f 61/155/61 60/156/60 86/157/86 85/158/85
f 60/156/60 59/159/59 87/160/87 86/157/86
f 59/159/59 58/161/58 88/162/88 87/160/87
f 58/161/58 57/163/57 89/164/89 88/162/88
f 57/165/57 56/166/56 90/167/90 89/168/89
f 56/166/56 55/125/55 74/128/74 90/167/90
f 90/169/90 74/170/74 91/171/91 92/172/92
f 89/173/89 90/169/90 92/172/92 93/174/93
f 88/175/88 89/173/89 93/174/93 94/176/94
f 87/177/87 88/175/88 94/176/94 95/178/95
f 86/179/86 87/177/87 95/178/95 96/180/96
f 85/181/85 86/179/86 96/180/96 97/182/97
f 84/183/84 85/181/85 97/182/97 98/184/98
f 83/185/83 84/183/84 98/184/98 99/186/99
f 82/187/82 83/185/83 99/186/99 100/188/100
f 81/189/81 82/187/82 100/188/100 101/190/101
f 80/191/80 81/189/81 101/190/101 102/192/102
f 79/193/79 80/191/80 102/192/102 103/194/103
f 78/195/78 79/193/79 103/194/103 104/196/104
f 77/197/77 78/195/78 104/196/104 105/198/105
f 76/199/76 77/197/77 105/198/105 106/200/106
f 75/201/75 76/199/76 106/200/106 107/202/107
f 73/203/73 75/201/75 107/202/107 108/204/108
f 74/170/74 73/203/73 108/204/108 91/171/91
f 91/205/91 108/206/108 109/207/109 110/208/110
f 108/206/108 107/209/107 111/210/111 109/207/109
f 107/209/107 106/211/106 112/212/112 111/210/111
f 106/213/106 105/214/105 113/215/113 112/216/112
f 105/214/105 104/217/104 114/218/114 113/215/113
f 104/217/104 103/219/103 115/220/115 114/218/114
f 103/219/103 102/221/102 116/222/116 115/220/115
f 102/223/102 101/224/101 117/225/117 116/226/116
f 100/227/100 99/228/99 118/229/118 119/230/119
f 99/228/99 98/231/98 120/232/120 118/229/118
f 98/231/98 97/233/97 121/234/121 120/232/120
f 97/235/97 96/236/96 122/237/122 121/238/121
f 96/236/96 95/239/95 123/240/123 122/237/122
f 95/239/95 94/241/94 124/242/124 123/240/123
f 94/241/94 93/243/93 125/244/125 124/242/124
f 93/243/93 92/245/92 126/246/126 125/244/125
f 127/247/127 128/248/128 129/249/129 130/250/130
f 131/251/131 132/252/132 133/253/133 134/254/134
f 134/254/135 133/253/135 135/255/135 136/256/135
f 130/250/136 129/249/136 137/257/136 138/258/136
f 130/259/137 133/260/137 135/261/138 138/262/138
f 136/263/139 137/264/139 138/265/138 135/266/138
f 129/267/140 137/268/139 136/269/139 134/270/140
f 130/271/137 129/272/140 134/273/140 133/274/137
f 143/275/141 144/276/142 145/277/143 146/278/144
f 144/279/142 127/280/127 130/259/130 145/281/143
f 128/282/128 147/283/145 148/284/145 129/267/129
f 147/283/145 143/285/141 146/286/144 148/284/145
f 149/287/146 150/257/147 151/288/147 152/289/148
f 150/290/147 131/291/131 134/270/134 151/292/147
f 132/293/132 153/294/149 154/295/149 133/260/133
f 153/294/149 149/296/146 152/297/148 154/295/149
f 133/260/133 154/295/149 155/298/150 135/261/151
f 154/295/149 152/297/148 156/299/152 155/298/150
f 152/289/148 151/288/147 157/248/153 156/300/152
f 151/292/147 134/270/134 136/269/154 157/301/153
f 129/267/129 148/284/145 158/302/155 137/268/156
f 148/284/145 146/286/144 159/303/157 158/302/155
f 146/278/144 145/277/143 160/304/158 159/305/157
f 145/281/143 130/259/130 138/262/159 160/306/158
f 155/307/150 156/308/152 157/309/153
f 135/266/151 155/307/150 157/309/153 136/263/154
f 158/310/155 159/311/157 160/312/158
f 137/264/156 158/310/155 160/312/158 138/265/159
f 92/313/92 91/205/91 110/208/110 142/314/160 141/315/160 126/316/126
f 36/317/36 1/318/1 4/319/4 6/320/6 8/321/8 10/322/10 12/323/12 14/324/14 16/325/16 18/326/18 20/327/20 22/328/22 24/329/24 26/330/26 28/331/28 30/332/30 32/333/32 34/334/34
f 125/335/125 126/336/126 141/337/160 142/338/160 110/339/110 109/340/109 111/341/111 112/342/112 113/343/113 114/344/114 115/345/115 116/346/116 117/347/117 140/348/161 139/349/161 119/350/119 118/351/118 120/352/120 121/353/121 122/354/122 123/355/123 124/356/124
f 139/357/161 140/358/161 117/225/117 101/224/101 100/227/100 119/230/119
