# Blender v2.73 (sub 0) OBJ File: ''
# www.blender.org
o Cube.001
v -0.307854 -0.483655 0.196803
v -0.307854 -0.483655 0.214467
v -0.330489 -0.483655 0.214467
v -0.330489 -0.483655 0.196803
v -0.307854 -0.498010 0.196803
v -0.330489 -0.498010 0.196803
v -0.330489 -0.498010 0.214467
v -0.307854 -0.498010 0.214467
v 0.330442 -0.483655 0.196804
v 0.330442 -0.498010 0.196804
v 0.330442 -0.498010 0.214467
v 0.330442 -0.483655 0.214467
v -0.330488 -0.483655 -0.205856
v -0.330489 -0.498010 -0.205856
v -0.330489 -0.498010 -0.223350
v -0.330488 -0.483655 -0.223350
v -0.307854 -0.498010 -0.223350
v -0.307854 -0.483655 -0.223350
v -0.204867 -0.483655 0.196803
v -0.204867 -0.483655 0.214467
v -0.204867 -0.498010 0.196803
v -0.204867 -0.498010 0.214467
v -0.204866 -0.498010 -0.223350
v -0.204866 -0.483655 -0.223350
v 0.310071 -0.483655 0.214467
v 0.310071 -0.483655 0.196804
v 0.310071 -0.498010 0.196804
v 0.310071 -0.498010 0.214467
v 0.330442 -0.498010 -0.223350
v 0.330442 -0.483655 -0.223350
v 0.310071 -0.483655 -0.223350
v 0.310071 -0.498010 -0.223350
v -0.307854 -0.483655 -0.205856
v -0.307854 -0.498010 -0.205856
v 0.330442 -0.498010 -0.205856
v 0.330442 -0.483655 -0.205856
v -0.204866 -0.483655 -0.205856
v -0.204866 -0.498010 -0.205856
v 0.310071 -0.483655 -0.205856
v 0.310071 -0.498010 -0.205856
v -0.307854 -0.462606 0.196803
v -0.204867 -0.453099 0.196803
v -0.204866 -0.453099 -0.205856
v -0.307854 -0.462606 -0.205856
v 0.310071 -0.462606 0.196804
v 0.310071 -0.462606 -0.205856
v 0.207083 -0.483655 -0.205856
v 0.207083 -0.453099 -0.205856
v 0.052602 -0.483655 0.196803
v 0.052602 -0.483655 0.214467
v 0.001108 -0.483655 0.214467
v 0.001108 -0.483655 0.196803
v 0.052602 -0.498010 0.196804
v 0.001108 -0.498010 0.196804
v 0.001108 -0.498010 0.214467
v 0.052602 -0.498010 0.214467
v 0.052602 -0.498010 -0.223350
v 0.052602 -0.483655 -0.223350
v 0.001108 -0.483655 -0.223350
v 0.001108 -0.498010 -0.223350
v 0.052602 -0.483655 -0.205856
v 0.001108 -0.483655 -0.205856
v 0.001108 -0.498010 -0.205856
v 0.052602 -0.498010 -0.205856
v 0.001108 -0.471858 0.196803
v 0.052602 -0.456839 0.196803
v 0.052602 -0.456839 -0.205856
v 0.001108 -0.471858 -0.205856
v -0.050385 -0.483655 -0.205856
v -0.050385 -0.456839 -0.205856
v 0.104096 -0.483655 -0.205856
v 0.104096 -0.449725 -0.205856
v 0.207083 -0.483655 0.214467
v 0.207083 -0.483655 0.196804
v 0.104096 -0.483655 0.214467
v 0.104096 -0.483655 0.196803
v 0.207083 -0.498010 0.196804
v 0.207083 -0.498010 0.214467
v 0.104096 -0.498010 0.196804
v 0.104096 -0.498010 0.214467
v 0.207083 -0.483655 -0.223350
v 0.207083 -0.498010 -0.223350
v 0.104096 -0.483655 -0.223350
v 0.104096 -0.498010 -0.223350
v 0.207083 -0.498010 -0.205856
v 0.104096 -0.498010 -0.205856
v 0.207083 -0.453099 0.196804
v 0.104096 -0.449725 0.196803
v -0.050385 -0.483655 0.196803
v -0.050385 -0.483655 0.214467
v -0.101879 -0.483655 0.214467
v -0.101879 -0.483655 0.196803
v -0.050385 -0.498010 0.196804
v -0.101879 -0.498010 0.196804
v -0.101879 -0.498010 0.214467
v -0.050385 -0.498010 0.214467
v -0.050385 -0.498010 -0.223350
v -0.050385 -0.483655 -0.223350
v -0.101879 -0.483655 -0.223350
v -0.101879 -0.498010 -0.223350
v -0.101879 -0.483655 -0.205856
v -0.101879 -0.498010 -0.205856
v -0.050385 -0.498010 -0.205856
v -0.101879 -0.449725 0.196803
v -0.050385 -0.456839 0.196803
v -0.101879 -0.449725 -0.205856
vt 0.145116 0.822671
vt 0.146799 0.822860
vt 0.146977 0.821590
vt 0.145383 0.821311
vt 0.295366 0.524765
vt 0.295437 0.506389
vt 0.271889 0.506298
vt 0.271818 0.524675
vt 0.180003 0.804148
vt 0.180102 0.801196
vt 0.177702 0.801116
vt 0.177602 0.804066
vt 0.071439 0.795052
vt 0.067670 0.794921
vt 0.067587 0.797311
vt 0.071356 0.797442
vt 0.055739 0.865933
vt 0.056022 0.868592
vt 0.058185 0.868444
vt 0.058038 0.865839
vt 0.068824 0.870361
vt 0.065054 0.870230
vt 0.064971 0.872621
vt 0.068741 0.872752
vt 0.137310 0.818567
vt 0.137033 0.819871
vt 0.402512 0.525175
vt 0.402582 0.506798
vt 0.088592 0.795647
vt 0.088509 0.798038
vt 0.085976 0.870957
vt 0.085893 0.873348
vt 0.094115 0.822949
vt 0.095431 0.822859
vt 0.095085 0.821653
vt 0.093920 0.821913
vt 0.959689 0.527232
vt 0.959744 0.508799
vt 0.938495 0.508737
vt 0.938429 0.527156
vt 0.177783 0.798720
vt 0.174382 0.798605
vt 0.174301 0.801000
vt 0.175057 0.874484
vt 0.171697 0.874264
vt 0.171562 0.876641
vt 0.174910 0.876845
vt 0.144830 0.852308
vt 0.146169 0.852109
vt 0.146052 0.851005
vt 0.144530 0.851059
vt 0.293698 0.961888
vt 0.293768 0.943688
vt 0.270219 0.943598
vt 0.270149 0.961798
vt 0.177408 0.874746
vt 0.177777 0.871723
vt 0.175307 0.871549
vt 0.057537 0.798198
vt 0.059990 0.798418
vt 0.137086 0.855280
vt 0.136756 0.853899
vt 0.400844 0.962299
vt 0.400914 0.944099
vt 0.093037 0.852282
vt 0.094455 0.852518
vt 0.094704 0.851179
vt 0.093190 0.851026
vt 0.957389 0.967127
vt 0.958381 0.948762
vt 0.936908 0.948201
vt 0.936381 0.966404
vt 0.142752 0.594883
vt 0.141758 0.599052
vt 0.153557 0.601007
vt 0.155559 0.599320
vt 0.057965 0.795140
vt 0.060355 0.795458
vt 0.836622 0.436815
vt 0.920392 0.436329
vt 0.921012 0.042547
vt 0.836346 0.042756
vt 0.075680 0.644491
vt 0.077685 0.642795
vt 0.079487 0.601303
vt 0.076832 0.599618
vt 0.151944 0.642579
vt 0.154631 0.644302
vt 0.088498 0.648873
vt 0.089483 0.644708
vt 0.115599 0.819011
vt 0.119874 0.819261
vt 0.119876 0.817756
vt 0.115646 0.817553
vt 0.670385 0.526189
vt 0.670453 0.507810
vt 0.616876 0.507611
vt 0.616807 0.525989
vt 0.131473 0.797134
vt 0.122897 0.796838
vt 0.122814 0.799229
vt 0.131391 0.799526
vt 0.128853 0.872457
vt 0.120279 0.872153
vt 0.120195 0.874543
vt 0.128767 0.874847
vt 0.115560 0.856252
vt 0.119937 0.856037
vt 0.119941 0.854547
vt 0.115513 0.854768
vt 0.668683 0.963391
vt 0.668777 0.945194
vt 0.615202 0.944947
vt 0.615123 0.963145
vt 0.108789 0.593520
vt 0.108686 0.596836
vt 0.115550 0.595554
vt 0.115563 0.593916
vt 0.569449 0.436484
vt 0.624107 0.437340
vt 0.624671 0.042717
vt 0.569233 0.040910
vt 0.122441 0.650231
vt 0.122550 0.646915
vt 0.115683 0.648190
vt 0.115668 0.649828
vt 0.108652 0.650179
vt 0.108510 0.646770
vt 0.102059 0.645955
vt 0.101862 0.650304
vt 0.103086 0.819964
vt 0.102740 0.818578
vt 0.111410 0.818944
vt 0.111336 0.817484
vt 0.831226 0.508382
vt 0.831161 0.526774
vt 0.724035 0.508005
vt 0.723969 0.526388
vt 0.157210 0.798020
vt 0.157128 0.800413
vt 0.140051 0.797431
vt 0.139968 0.799822
vt 0.154570 0.873447
vt 0.154466 0.875833
vt 0.137426 0.872771
vt 0.137335 0.875160
vt 0.102523 0.855234
vt 0.102794 0.853944
vt 0.111154 0.856307
vt 0.111228 0.854847
vt 0.829574 0.946408
vt 0.829348 0.964606
vt 0.722365 0.945495
vt 0.722239 0.963696
vt 0.089950 0.598958
vt 0.088962 0.595030
vt 0.102364 0.597686
vt 0.102151 0.593414
vt 0.334804 0.436016
vt 0.417682 0.436509
vt 0.417909 0.041333
vt 0.335172 0.041774
vt 0.517618 0.435877
vt 0.518178 0.041780
vt 0.124303 0.819037
vt 0.128591 0.818959
vt 0.128666 0.817484
vt 0.124255 0.817538
vt 0.563232 0.525786
vt 0.563302 0.507410
vt 0.509728 0.507206
vt 0.509659 0.525583
vt 0.114320 0.796541
vt 0.105744 0.796243
vt 0.105661 0.798634
vt 0.114237 0.798931
vt 0.111704 0.871852
vt 0.103128 0.871553
vt 0.103045 0.873944
vt 0.111620 0.874243
vt 0.124165 0.856246
vt 0.128474 0.856327
vt 0.128406 0.854879
vt 0.124215 0.854802
vt 0.561557 0.962924
vt 0.561630 0.944725
vt 0.508058 0.944513
vt 0.507987 0.962713
vt 0.122581 0.593562
vt 0.122724 0.596972
vt 0.129176 0.597789
vt 0.129376 0.593438
vt 0.681211 0.436806
vt 0.732349 0.436019
vt 0.732956 0.043295
vt 0.682616 0.042679
vt 0.141353 0.644846
vt 0.142313 0.648801
vt 0.128882 0.646074
vt 0.129082 0.650354
vn 0.000000 1.000000 0.000000
vn 0.000000 -1.000000 0.000000
vn 1.000000 0.000000 0.000000
vn 0.000000 0.000000 1.000000
vn -1.000000 0.000100 0.000000
vn 0.000000 0.000000 -1.000000
vn -1.000000 0.000000 -0.000000
vn -0.091900 0.995800 -0.000000
vn -0.280000 0.960000 0.000000
vn 0.091900 0.995800 0.000000
vn 0.032700 0.999500 0.000000
vn 0.136900 0.990600 0.000000
vn -0.032700 0.999500 0.000000
vn 0.280000 0.960000 0.000000
vn -0.136900 0.990600 0.000000
s off
f 1/1/1 4/2/1 3/3/1 2/4/1
f 5/5/2 8/6/2 7/7/2 6/8/2
f 9/9/3 12/10/3 11/11/3 10/12/3
f 2/13/4 3/14/4 7/15/4 8/16/4
f 13/17/5 16/18/5 15/19/5 14/20/5
f 17/21/6 15/22/6 16/23/6 18/24/6
f 2/4/1 20/25/1 19/26/1 1/1/1
f 21/27/2 22/28/2 8/6/2 5/5/2
f 20/29/4 2/13/4 8/16/4 22/30/4
f 23/31/6 17/21/6 18/24/6 24/32/6
f 9/33/1 26/34/1 25/35/1 12/36/1
f 10/37/2 11/38/2 28/39/2 27/40/2
f 12/41/4 25/42/4 28/43/4 11/11/4
f 29/44/6 32/45/6 31/46/6 30/47/6
f 18/48/1 16/49/1 13/50/1 33/51/1
f 17/52/2 34/53/2 14/54/2 15/55/2
f 30/56/3 36/57/3 35/58/3 29/44/3
f 4/59/7 13/17/7 14/20/7 6/60/7
f 24/61/1 18/48/1 33/51/1 37/62/1
f 23/63/2 38/64/2 34/53/2 17/52/2
f 30/65/1 31/66/1 39/67/1 36/68/1
f 29/69/2 35/70/2 40/71/2 32/72/2
f 33/51/1 13/50/1 4/2/1 1/1/1
f 34/53/2 5/5/2 6/8/2 14/54/2
f 36/57/3 9/9/3 10/12/3 35/58/3
f 19/73/4 42/74/4 41/75/4 1/76/4
f 38/64/2 21/27/2 5/5/2 34/53/2
f 36/68/1 39/67/1 26/34/1 9/33/1
f 35/70/2 10/37/2 27/40/2 40/71/2
f 3/77/7 4/59/7 6/60/7 7/78/7
f 43/79/8 44/80/8 41/81/8 42/82/8
f 39/83/3 46/84/3 45/85/3 26/86/3
f 1/76/7 41/75/7 44/87/7 33/88/7
f 47/89/6 48/90/6 46/84/6 39/83/6
f 49/91/1 52/92/1 51/93/1 50/94/1
f 53/95/2 56/96/2 55/97/2 54/98/2
f 50/99/4 51/100/4 55/101/4 56/102/4
f 57/103/6 60/104/6 59/105/6 58/106/6
f 58/107/1 59/108/1 62/109/1 61/110/1
f 57/111/2 64/112/2 63/113/2 60/114/2
f 49/115/4 66/116/4 65/117/4 52/118/4
f 64/112/2 53/95/2 54/98/2 63/113/2
f 67/119/9 68/120/9 65/121/9 66/122/9
f 69/123/6 70/124/6 68/125/6 62/126/6
f 61/127/6 67/128/6 72/129/6 71/130/6
f 71/130/6 72/129/6 48/90/6 47/89/6
f 26/34/1 74/131/1 73/132/1 25/35/1
f 74/131/1 76/133/1 75/134/1 73/132/1
f 27/40/2 28/39/2 78/135/2 77/136/2
f 77/136/2 78/135/2 80/137/2 79/138/2
f 25/42/4 73/139/4 78/140/4 28/43/4
f 73/139/4 75/141/4 80/142/4 78/140/4
f 32/45/6 82/143/6 81/144/6 31/46/6
f 82/143/6 84/145/6 83/146/6 81/144/6
f 31/66/1 81/147/1 47/148/1 39/67/1
f 81/147/1 83/149/1 71/150/1 47/148/1
f 32/72/2 40/71/2 85/151/2 82/152/2
f 82/152/2 85/151/2 86/153/2 84/154/2
f 26/86/4 45/85/4 87/155/4 74/156/4
f 74/156/4 87/155/4 88/157/4 76/158/4
f 40/71/2 27/40/2 77/136/2 85/151/2
f 85/151/2 77/136/2 79/138/2 86/153/2
f 46/159/10 48/160/10 87/161/10 45/162/10
f 48/160/11 72/163/11 88/164/11 87/161/11
f 89/165/1 92/166/1 91/167/1 90/168/1
f 92/166/1 19/26/1 20/25/1 91/167/1
f 93/169/2 96/170/2 95/171/2 94/172/2
f 94/172/2 95/171/2 22/28/2 21/27/2
f 90/173/4 91/174/4 95/175/4 96/176/4
f 91/174/4 20/29/4 22/30/4 95/175/4
f 97/177/6 100/178/6 99/179/6 98/180/6
f 100/178/6 23/31/6 24/32/6 99/179/6
f 98/181/1 99/182/1 101/183/1 69/184/1
f 99/182/1 24/61/1 37/62/1 101/183/1
f 97/185/2 103/186/2 102/187/2 100/188/2
f 100/188/2 102/187/2 38/64/2 23/63/2
f 89/189/4 105/190/4 104/191/4 92/192/4
f 92/192/4 104/191/4 42/74/4 19/73/4
f 103/186/2 93/169/2 94/172/2 102/187/2
f 102/187/2 94/172/2 21/27/2 38/64/2
f 70/193/12 106/194/12 104/195/12 105/196/12
f 106/194/13 43/79/13 42/82/13 104/195/13
f 33/88/6 44/87/6 43/197/6 37/198/6
f 37/198/6 43/197/6 106/199/6 101/200/6
f 101/200/6 106/199/6 70/124/6 69/123/6
f 52/92/1 89/165/1 90/168/1 51/93/1
f 54/98/2 55/97/2 96/170/2 93/169/2
f 51/100/4 90/173/4 96/176/4 55/101/4
f 60/104/6 97/177/6 98/180/6 59/105/6
f 59/108/1 98/181/1 69/184/1 62/109/1
f 60/114/2 63/113/2 103/186/2 97/185/2
f 52/118/4 65/117/4 105/190/4 89/189/4
f 63/113/2 54/98/2 93/169/2 103/186/2
f 68/120/14 70/193/14 105/196/14 65/121/14
f 76/133/1 49/91/1 50/94/1 75/134/1
f 79/138/2 80/137/2 56/96/2 53/95/2
f 75/141/4 50/99/4 56/102/4 80/142/4
f 84/145/6 57/103/6 58/106/6 83/146/6
f 83/149/1 58/107/1 61/110/1 71/150/1
f 84/154/2 86/153/2 64/112/2 57/111/2
f 76/158/4 88/157/4 66/116/4 49/115/4
f 86/153/2 79/138/2 53/95/2 64/112/2
f 72/163/15 67/119/15 66/122/15 88/164/15
f 62/126/6 68/125/6 67/128/6 61/127/6
