# Blender v2.73 (sub 0) OBJ File: 'paper_towel.blend'
# www.blender.org
o nodebox-3
v 0.374999 0.216954 0.063069
v -0.374999 0.216954 0.063069
v 0.374999 0.345883 0.063069
v -0.374999 0.345883 0.063069
v 0.374999 0.437050 0.154235
v -0.374999 0.437050 0.154235
v 0.374999 0.437050 0.283165
v -0.374999 0.437050 0.283165
v 0.374999 0.345883 0.374331
v -0.374999 0.345883 0.374331
v 0.374999 0.216954 0.374331
v -0.374999 0.216954 0.374331
v 0.374999 0.125787 0.283165
v -0.374999 0.125787 0.283165
v 0.374999 0.125787 0.154235
v -0.374999 0.125787 0.154235
v -0.437501 0.249999 0.187499
v -0.375000 0.249999 0.187499
v -0.437501 0.187500 0.437499
v -0.437501 0.249999 0.437499
v -0.375000 0.187500 0.437499
v -0.375000 0.249999 0.437499
v -0.437501 0.187500 0.500000
v -0.375000 0.187500 0.500000
v -0.437501 0.312500 0.187499
v -0.375000 0.312500 0.187499
v -0.437501 0.312500 0.437499
v -0.437501 0.374999 0.437499
v -0.375000 0.312500 0.437499
v -0.375000 0.374999 0.437499
v -0.437501 0.374999 0.500000
v -0.375000 0.374999 0.500000
v 0.374999 0.249999 0.187499
v 0.437500 0.249999 0.187499
v 0.374999 0.187500 0.437499
v 0.374999 0.249999 0.437499
v 0.437500 0.187500 0.437499
v 0.437500 0.249999 0.437499
v 0.374999 0.187500 0.500000
v 0.437500 0.187500 0.500000
v 0.374999 0.312500 0.187499
v 0.437500 0.312500 0.187499
v 0.374999 0.312500 0.437499
v 0.374999 0.374999 0.437499
v 0.437500 0.312500 0.437499
v 0.437500 0.374999 0.437499
v 0.374999 0.374999 0.500000
v 0.437500 0.374999 0.500000
v -0.374999 0.281418 0.218700
v 0.374999 0.281418 0.218700
vt 0.062500 0.875000
vt 0.937500 0.875000
vt 0.937500 1.000000
vt 0.062500 1.000000
vt 0.062500 0.000000
vt 0.937500 0.000000
vt 0.937500 0.125000
vt 0.062500 0.125000
vt 0.937500 0.250000
vt 0.062500 0.250000
vt 0.937500 0.375000
vt 0.062500 0.375000
vt 0.937500 0.500000
vt 0.062500 0.500000
vt 0.937500 0.625000
vt 0.062500 0.625000
vt 0.906250 0.716529
vt 0.906250 0.845971
vt 0.750000 0.781250
vt 0.062500 0.750000
vt 0.937500 0.750000
vt 0.093750 0.845971
vt 0.093750 0.716529
vt 0.250000 0.781250
vt 0.185279 0.625000
vt 0.314720 0.625000
vt 0.406250 0.716529
vt 0.406250 0.845971
vt 0.314720 0.937500
vt 0.185279 0.937500
vt 0.814721 0.937500
vt 0.685279 0.937500
vt 0.593750 0.845971
vt 0.593750 0.716529
vt 0.685279 0.625000
vt 0.814721 0.625000
vt 0.625000 0.312500
vt 0.750000 0.437500
vt 0.625000 0.437500
vt 0.750000 0.062500
vt 0.625000 0.187500
vt 0.625000 0.062500
vt 0.500000 0.562500
vt 0.500000 0.437500
vt 0.625000 0.562500
vt 0.125000 0.875000
vt 0.125000 1.000000
vt 0.000000 1.000000
vt 0.625000 0.687500
vt 0.750000 0.687500
vt 0.750000 0.812500
vt 0.625000 0.812500
vt 0.000000 0.062500
vt 0.500000 0.062500
vt 0.500000 0.187500
vt 0.000000 0.187500
vt 0.375000 0.312500
vt 0.375000 0.187500
vt 0.500000 0.312500
vt 0.000000 0.312500
vt 0.000000 0.437500
vt 0.750000 0.312500
vt 0.000000 0.562500
vt 0.500000 0.687500
vt 0.375000 0.687500
vt 0.375000 0.562500
vt 0.125000 0.437500
vt 0.125000 0.562500
vt 0.500000 0.812500
vt 0.000000 0.687500
vt 0.750000 0.875000
vt 0.625000 0.875000
vt 0.625000 0.750000
vt 0.000000 0.812500
vt 0.125000 0.312500
vt 0.125000 0.187500
vt 0.125000 0.750000
vt 0.000000 0.625000
vt 0.125000 0.625000
vt 0.625000 0.500000
vt 0.750000 0.500000
vt 0.625000 0.625000
vn 0.630200 -0.297100 -0.717300
vn -0.630200 -0.297100 -0.717300
vn -0.630200 0.297100 -0.717300
vn 0.630200 0.297100 -0.717300
vn -0.630200 0.717300 -0.297100
vn 0.630200 0.717300 -0.297100
vn -0.630200 0.717300 0.297100
vn 0.630200 0.717300 0.297100
vn -0.630200 0.297100 0.717300
vn 0.630200 0.297100 0.717300
vn -0.630200 -0.297100 0.717300
vn 0.630200 -0.297100 0.717300
vn -0.630200 -0.717300 0.297100
vn 0.630200 -0.717300 0.297100
vn 1.000000 0.000000 0.000000
vn 0.630200 -0.717300 -0.297100
vn -0.630200 -0.717300 -0.297100
vn -1.000000 0.000000 0.000000
vn 0.000000 0.000000 -1.000000
vn 0.000000 1.000000 0.000000
vn 0.000000 -1.000000 -0.000000
vn 0.000000 -0.000000 1.000000
g nodebox-3_nodebox-3_paper
s 1
f 1/1/1 2/2/2 4/3/3 3/4/4
f 3/5/4 4/6/3 6/7/5 5/8/6
f 5/8/6 6/7/5 8/9/7 7/10/8
f 7/10/8 8/9/7 10/11/9 9/12/10
f 9/12/10 10/11/9 12/13/11 11/14/12
f 11/14/12 12/13/11 14/15/13 13/16/14
f 1/17/1 3/18/4 50/19/15
f 15/20/16 16/21/17 2/2/2 1/1/1
f 13/16/14 14/15/13 16/21/17 15/20/16
f 4/22/3 2/23/2 49/24/18
f 2/23/2 16/25/17 49/24/18
f 16/25/17 14/26/13 49/24/18
f 14/26/13 12/27/11 49/24/18
f 12/27/11 10/28/9 49/24/18
f 10/28/9 8/29/7 49/24/18
f 8/29/7 6/30/5 49/24/18
f 6/30/5 4/22/3 49/24/18
f 3/18/4 5/31/6 50/19/15
f 5/31/6 7/32/8 50/19/15
f 7/32/8 9/33/10 50/19/15
f 9/33/10 11/34/12 50/19/15
f 11/34/12 13/35/14 50/19/15
f 13/35/14 15/36/16 50/19/15
f 15/36/16 1/17/1 50/19/15
g nodebox-3_nodebox-3_holder
s off
f 27/37/18 31/38/18 28/39/18
f 23/40/18 20/41/18 19/42/18
f 34/43/19 33/44/19 41/39/19 42/45/19
f 45/46/15 46/47/15 48/48/15
f 44/49/20 47/50/20 48/51/20 46/52/20
f 20/53/21 17/54/21 18/55/21 22/56/21
f 24/57/21 23/58/21 19/55/21 21/59/21
f 25/60/20 27/59/20 29/44/20 26/61/20
f 27/59/19 28/37/19 30/39/19 29/44/19
f 31/56/22 23/58/22 24/57/22 32/60/22
f 30/39/20 28/37/20 31/62/20 32/38/20
f 38/63/21 36/61/21 33/44/21 34/43/21
f 19/55/19 20/41/19 22/37/19 21/59/19
f 36/45/19 38/49/19 37/64/19 35/43/19
f 35/43/21 37/64/21 40/65/21 39/66/21
f 32/63/15 29/67/15 30/68/15
f 25/42/19 26/41/19 18/55/19 17/54/19
f 43/64/19 44/49/19 46/52/19 45/69/19
f 48/70/22 47/63/22 39/66/22 40/65/22
f 47/71/18 44/72/18 43/73/18
f 42/74/20 41/70/20 43/64/20 45/69/20
f 31/38/18 20/41/18 23/40/18
f 27/37/18 20/41/18 31/38/18
f 25/75/18 17/76/18 20/41/18
f 27/37/18 25/75/18 20/41/18
f 38/77/15 40/78/15 37/79/15
f 45/46/15 48/48/15 40/78/15
f 45/46/15 40/78/15 38/77/15
f 42/72/15 45/46/15 38/77/15
f 34/73/15 42/72/15 38/77/15
f 21/76/15 22/75/15 24/56/15
f 24/56/15 29/67/15 32/63/15
f 24/56/15 22/75/15 29/67/15
f 22/75/15 18/37/15 26/39/15
f 29/67/15 22/75/15 26/39/15
f 35/80/18 39/81/18 36/82/18
f 39/81/18 47/71/18 36/82/18
f 47/71/18 43/73/18 36/82/18
f 43/73/18 41/77/18 33/79/18
f 36/82/18 43/73/18 33/79/18
