# Blender v2.73 (sub 0) OBJ File: 'wall-japanese-bottom.blend'
# www.blender.org
o Cylinder
v 0.500000 -0.500000 0.062501
v -0.500000 -0.500000 0.062501
v -0.500000 -0.500000 0.000001
v 0.500000 -0.500000 0.000001
v 0.500000 -0.437500 0.062501
v -0.500000 -0.437500 0.062501
v -0.500000 -0.437500 0.000001
v 0.500000 -0.437500 0.000001
v -0.437500 -0.437500 0.062501
v -0.437500 -0.437500 0.000001
v 0.437500 -0.437500 0.062501
v 0.437500 -0.437500 0.000001
v -0.437500 0.476562 0.046876
v -0.437500 0.476562 0.015626
v 0.437500 0.476562 0.046876
v 0.437500 0.476562 0.015626
v -0.437500 -0.222656 0.030775
v 0.437500 -0.222656 0.030775
v -0.500000 0.500000 0.062501
v 0.500000 0.500000 0.062501
v 0.500000 0.500000 0.000001
v -0.500000 0.500000 0.000001
v -0.500000 0.500000 0.062501
v -0.437500 0.500000 0.062501
v -0.500000 0.500000 0.000001
v -0.437500 0.500000 0.000001
v 0.500000 0.500000 0.062501
v 0.437500 0.500000 0.062501
v 0.500000 0.500000 0.000001
v 0.437500 0.500000 0.000001
v 0.437500 0.500000 0.046876
v -0.437500 0.500000 0.046876
v 0.437500 0.500000 0.015626
v -0.437500 0.500000 0.015626
v -0.437500 0.500000 0.030775
v 0.437500 0.500000 0.030775
v -0.253906 -0.222656 0.046876
v -0.253906 -0.222656 0.015626
v -0.253906 0.476562 0.046876
v -0.253906 0.476562 0.015626
v -0.207031 -0.222656 0.046876
v -0.207031 -0.222656 0.015626
v -0.207031 0.476562 0.046876
v -0.207031 0.476562 0.015626
v -0.023438 -0.222656 0.046876
v -0.023438 -0.222656 0.015626
v -0.023437 0.476562 0.046876
v -0.023437 0.476562 0.015626
v 0.023437 -0.222656 0.046876
v 0.023437 -0.222656 0.015626
v 0.023438 0.476562 0.046876
v 0.023438 0.476562 0.015626
v 0.207031 -0.222656 0.046876
v 0.207031 -0.222656 0.015626
v 0.207031 0.476562 0.046876
v 0.207031 0.476562 0.015626
v 0.253906 -0.222656 0.046876
v 0.253906 -0.222656 0.015626
v 0.253906 0.476562 0.046876
v 0.253906 0.476562 0.015626
v 0.437500 -0.019531 0.046876
v 0.437500 -0.019531 0.015626
v 0.253906 -0.019531 0.046876
v 0.253906 -0.019531 0.015626
v 0.437500 0.027344 0.046876
v 0.437500 0.027344 0.015626
v 0.253906 0.027344 0.046876
v 0.253906 0.027344 0.015626
v 0.437500 0.230469 0.046876
v 0.437500 0.230469 0.015626
v 0.253906 0.230469 0.046876
v 0.253906 0.230469 0.015626
v 0.437500 0.277344 0.046876
v 0.437500 0.277344 0.015626
v 0.253906 0.277344 0.046876
v 0.253906 0.277344 0.015626
v 0.207031 -0.019531 0.046876
v 0.207031 -0.019531 0.015626
v 0.023438 -0.019531 0.046876
v 0.023438 -0.019531 0.015626
v 0.207031 0.027344 0.046876
v 0.207031 0.027344 0.015626
v 0.023438 0.027344 0.046876
v 0.023438 0.027344 0.015626
v 0.207031 0.230469 0.046876
v 0.207031 0.230469 0.015626
v 0.023438 0.230469 0.046876
v 0.023438 0.230469 0.015626
v 0.207031 0.277344 0.046876
v 0.207031 0.277344 0.015626
v 0.023438 0.277344 0.046876
v 0.023438 0.277344 0.015626
v -0.023438 -0.019531 0.046876
v -0.023438 -0.019531 0.015626
v -0.207031 -0.019531 0.046876
v -0.207031 -0.019531 0.015626
v -0.023438 0.027344 0.046876
v -0.023438 0.027344 0.015626
v -0.207031 0.027344 0.046876
v -0.207031 0.027344 0.015626
v -0.023438 0.230469 0.046876
v -0.023437 0.230469 0.015626
v -0.207031 0.230469 0.046876
v -0.207031 0.230469 0.015626
v -0.023437 0.277344 0.046876
v -0.023437 0.277344 0.015626
v -0.207031 0.277344 0.046876
v -0.207031 0.277344 0.015626
v 0.437500 -0.437500 0.046876
v 0.437500 -0.437500 0.015626
v -0.437500 -0.437500 0.046876
v -0.437500 -0.437500 0.015626
v 0.437500 -0.222656 0.046876
v 0.437500 -0.222656 0.015626
v -0.437500 -0.222656 0.046876
v -0.437500 -0.222656 0.015626
v -0.253906 -0.019531 0.046876
v -0.253906 -0.019531 0.015626
v -0.437500 -0.019531 0.046876
v -0.437500 -0.019531 0.015626
v -0.253906 0.027344 0.046876
v -0.253906 0.027344 0.015626
v -0.437500 0.027344 0.046876
v -0.437500 0.027344 0.015626
v -0.253906 0.230469 0.046876
v -0.253906 0.230469 0.015626
v -0.437500 0.230469 0.046876
v -0.437500 0.230469 0.015626
v -0.253906 0.277344 0.046876
v -0.253906 0.277344 0.015626
v -0.437500 0.277344 0.046876
v -0.437500 0.277344 0.015626
v -0.437500 -0.222656 0.032793
v 0.437500 -0.222656 0.032793
v -0.437500 0.500000 0.032793
v 0.437500 0.500000 0.032793
vt 0.000000 -0.000000
vt 1.000000 -0.000000
vt 1.000000 0.062500
vt 0.000000 0.062500
vt 1.000000 1.000000
vt 0.937500 1.000000
vt 0.937500 0.000000
vt 0.937500 0.046875
vt 0.062500 0.046875
vt 0.062500 0.015625
vt 0.937500 0.015625
vt 0.000000 1.000000
vt 0.062500 0.062500
vt 0.062500 1.000000
vt 0.937500 0.062500
vt 0.062500 0.937500
vt 0.937500 0.937500
vt 0.062500 0.976563
vt 0.937500 0.976563
vt 0.062500 -0.000000
vt 0.292969 0.976563
vt 0.246094 0.976563
vt 0.246094 0.277344
vt 0.292969 0.277344
vt 0.707031 0.976563
vt 0.707031 0.277344
vt 0.753906 0.277344
vt 0.753906 0.976563
vt 0.984375 0.277344
vt 0.984375 0.976562
vt 0.953125 0.976562
vt 0.953125 0.277344
vt 0.015625 0.976562
vt 0.015625 0.277344
vt 0.046875 0.277344
vt 0.046875 0.976562
vt 0.523438 0.976563
vt 0.476562 0.976563
vt 0.476562 0.277344
vt 0.523437 0.277344
vt 0.753906 0.527344
vt 0.753906 0.480469
vt 0.937500 0.480469
vt 0.937500 0.527344
vt 0.246094 0.527344
vt 0.062500 0.527344
vt 0.062500 0.480469
vt 0.246094 0.480469
vt 0.753906 0.046875
vt 0.753906 0.015625
vt 0.753906 0.953125
vt 0.937500 0.953125
vt 0.937500 0.984375
vt 0.753906 0.984375
vt 0.753906 0.777344
vt 0.753906 0.730469
vt 0.937500 0.730469
vt 0.937500 0.777344
vt 0.246094 0.777344
vt 0.062500 0.777344
vt 0.062500 0.730469
vt 0.246094 0.730469
vt 0.523438 0.527344
vt 0.523438 0.480469
vt 0.707031 0.480469
vt 0.707031 0.527344
vt 0.476562 0.527344
vt 0.292969 0.527344
vt 0.292969 0.480469
vt 0.476562 0.480469
vt 0.707031 0.046875
vt 0.523438 0.046875
vt 0.523438 0.015625
vt 0.707031 0.015625
vt 0.523438 0.953125
vt 0.707031 0.953125
vt 0.707031 0.984375
vt 0.523438 0.984375
vt 0.523438 0.777344
vt 0.523438 0.730469
vt 0.707031 0.730469
vt 0.707031 0.777344
vt 0.476562 0.777344
vt 0.292969 0.777344
vt 0.292969 0.730469
vt 0.476562 0.730469
vt 0.476563 0.046875
vt 0.292969 0.046875
vt 0.292969 0.015625
vt 0.476563 0.015625
vt 0.292969 0.953125
vt 0.476562 0.953125
vt 0.476562 0.984375
vt 0.292969 0.984375
vt 0.062500 0.277344
vt 0.937500 0.277344
vt 0.062500 0.953125
vt 0.062500 0.984375
vt 0.246094 0.046875
vt 0.246094 0.015625
vt 0.246094 0.953125
vt 0.246094 0.984375
vt 1.000000 0.937500
vt 0.000000 0.937500
vn 0.000000 0.000000 1.000000
vn -0.000000 0.000000 -1.000000
vn -1.000000 0.000000 0.000000
vn 0.000000 -1.000000 0.000000
vn 1.000000 0.000000 0.000000
vn 0.000000 1.000000 0.000000
g Cylinder_Cylinder_door
s off
f 2/1/1 1/2/1 5/3/1 6/4/1
f 4/1/2 3/2/2 7/3/2 8/4/2
f 19/5/3 22/6/3 3/7/3 2/2/3
f 2/4/4 3/1/4 4/2/4 1/3/4
f 15/8/4 13/9/4 14/10/4 16/11/4
f 24/12/5 9/4/5 10/13/5 26/14/5
f 28/5/3 30/6/3 12/15/3 11/3/3
f 10/14/6 9/16/6 11/17/6 12/6/6
f 16/18/2 14/19/2 34/6/2 33/14/2
f 15/19/1 31/6/1 32/14/1 13/18/1
f 12/13/2 30/14/2 29/12/2 8/4/2
f 11/15/1 5/3/1 27/5/1 28/6/1
f 10/15/2 7/3/2 25/5/2 26/6/2
f 9/13/1 24/14/1 23/12/1 6/4/1
f 1/1/5 4/20/5 21/14/5 20/12/5
f 43/21/1 39/22/1 37/23/1 41/24/1
f 44/25/2 42/26/2 38/27/2 40/28/2
f 37/29/3 39/30/3 40/31/3 38/32/3
f 43/33/5 41/34/5 42/35/5 44/36/5
f 51/37/1 47/38/1 45/39/1 49/40/1
f 52/38/2 50/39/2 46/40/2 48/37/2
f 45/29/3 47/30/3 48/31/3 46/32/3
f 51/33/5 49/34/5 50/35/5 52/36/5
f 59/28/1 55/25/1 53/26/1 57/27/1
f 60/22/2 58/23/2 54/24/2 56/21/2
f 53/29/3 55/30/3 56/31/3 54/32/3
f 59/33/5 57/34/5 58/35/5 60/36/5
f 67/41/1 63/42/1 61/43/1 65/44/1
f 68/45/2 66/46/2 62/47/2 64/48/2
f 61/8/4 63/49/4 64/50/4 62/11/4
f 67/51/6 65/52/6 66/53/6 68/54/6
f 75/55/1 71/56/1 69/57/1 73/58/1
f 76/59/2 74/60/2 70/61/2 72/62/2
f 69/8/4 71/49/4 72/50/4 70/11/4
f 75/51/6 73/52/6 74/53/6 76/54/6
f 83/63/1 79/64/1 77/65/1 81/66/1
f 84/67/2 82/68/2 78/69/2 80/70/2
f 77/71/4 79/72/4 80/73/4 78/74/4
f 83/75/6 81/76/6 82/77/6 84/78/6
f 91/79/1 87/80/1 85/81/1 89/82/1
f 92/83/2 90/84/2 86/85/2 88/86/2
f 85/71/4 87/72/4 88/73/4 86/74/4
f 91/75/6 89/76/6 90/77/6 92/78/6
f 99/68/1 95/69/1 93/70/1 97/67/1
f 100/66/2 98/63/2 94/64/2 96/65/2
f 93/87/4 95/88/4 96/89/4 94/90/4
f 99/91/6 97/92/6 98/93/6 100/94/6
f 107/84/1 103/85/1 101/86/1 105/83/1
f 108/82/2 106/79/2 102/80/2 104/81/2
f 101/87/4 103/88/4 104/89/4 102/90/4
f 107/91/6 105/92/6 106/93/6 108/94/6
f 115/95/1 111/13/1 109/15/1 113/96/1
f 116/96/2 114/95/2 110/13/2 112/15/2
f 115/97/6 113/52/6 114/53/6 116/98/6
f 123/46/1 119/47/1 117/48/1 121/45/1
f 124/44/2 122/41/2 118/42/2 120/43/2
f 117/99/4 119/9/4 120/10/4 118/100/4
f 123/97/6 121/101/6 122/102/6 124/98/6
f 131/60/1 127/61/1 125/62/1 129/59/1
f 132/58/2 130/55/2 126/56/2 128/57/2
f 125/99/4 127/9/4 128/10/4 126/100/4
f 131/97/6 129/101/6 130/102/6 132/98/6
f 28/17/6 27/103/6 29/5/6 30/6/6
f 34/98/6 32/97/6 31/52/6 33/53/6
f 24/16/6 26/14/6 25/12/6 23/104/6
g Cylinder_Cylinder_paper
f 17/96/2 35/6/2 36/14/2 18/95/2
f 133/95/1 134/96/1 136/6/1 135/14/1
