# Blender v2.73 (sub 0) OBJ File: 'door-fancy-right.blend'
# www.blender.org
o Cylinder
v 0.499750 1.499500 0.499969
v -0.499750 1.499500 0.499969
v 0.499750 -0.499500 0.499969
v -0.499750 -0.499500 0.499969
v -0.499750 1.499500 0.375031
v 0.499750 1.499500 0.375031
v -0.499750 -0.499500 0.375031
v 0.499750 -0.499500 0.375031
v -0.499750 -0.374531 0.499969
v 0.499750 1.374531 0.499969
v 0.499750 -0.374531 0.375031
v -0.499750 1.374531 0.375031
v -0.374875 1.374531 0.499969
v 0.374875 1.374531 0.375031
v -0.374875 1.374531 0.375031
v 0.374875 1.374531 0.499969
v -0.499750 1.374531 0.499969
v 0.499750 -0.374531 0.499969
v 0.499750 1.374531 0.375031
v -0.499750 -0.374531 0.375031
v 0.374875 -0.374531 0.499969
v -0.374875 -0.374531 0.499969
v -0.374875 0.374969 0.499969
v -0.374875 -0.374531 0.375031
v 0.374875 -0.374531 0.375031
v 0.374875 0.374969 0.375031
v -0.374875 0.374969 0.375031
v 0.374875 0.374969 0.499969
v -0.375000 0.375000 0.438458
v 0.375000 0.375000 0.438458
v -0.375000 1.375000 0.438458
v 0.375000 1.375000 0.438458
v 0.375000 0.375000 0.436542
v -0.375000 0.375000 0.436542
v 0.375000 1.375000 0.436542
v -0.375000 1.375000 0.436542
vt 0.765625 0.312500
vt 0.828125 0.312500
vt 0.828125 0.687500
vt 0.765625 0.687500
vt 0.578125 0.062500
vt 0.578125 0.000000
vt 0.078125 0.000000
vt 0.078125 0.062500
vt 0.140625 0.937500
vt 0.140625 0.062500
vt 0.078125 0.937500
vt 0.515625 0.437500
vt 0.515625 0.062500
vt 0.140625 0.437500
vt 0.515625 0.937500
vt 0.578125 0.937500
vt 0.078125 1.000000
vt 0.578125 1.000000
vt 0.765625 0.250000
vt 0.828125 0.250000
vt 0.828125 0.750000
vt 0.765625 0.750000
vt 0.734375 0.250000
vt 0.734375 0.750000
vt 0.671875 0.750000
vt 0.671875 0.250000
vt 0.015625 0.000000
vt 0.015625 1.000000
vt 0.640625 1.000000
vt 0.640625 0.000000
vt 0.734375 0.312500
vt 0.734375 0.687500
vt 0.671875 0.687500
vt 0.671875 0.312500
vt 0.015625 0.937500
vt 0.078125 0.437500
vt 0.015625 0.437500
vt 0.640625 0.937500
vt 0.640625 0.437500
vt 0.578125 0.437500
vt 0.875000 1.000000
vt 0.125000 1.000000
vt 0.125000 0.000000
vt 0.875000 0.000000
vn 0.000000 -1.000000 0.000000
vn -0.000000 0.000000 -1.000000
vn 0.000000 0.000000 1.000000
vn 0.000000 1.000000 0.000000
vn -1.000000 0.000000 0.000000
vn 1.000000 0.000000 0.000000
g Cylinder_Cylinder_door
s off
f 14/1/1 16/2/1 13/3/1 15/4/1
f 11/5/2 8/6/2 7/7/2 20/8/2
f 15/9/2 24/10/2 20/8/2 12/11/2
f 26/12/2 25/13/2 24/10/2 27/14/2
f 11/5/2 25/13/2 14/15/2 19/16/2
f 19/16/2 12/11/2 5/17/2 6/18/2
f 9/8/3 4/7/3 3/6/3 18/5/3
f 9/8/3 22/10/3 13/9/3 17/11/3
f 17/11/3 10/16/3 1/18/3 2/17/3
f 16/15/3 21/13/3 18/5/3 10/16/3
f 23/14/3 22/10/3 21/13/3 28/12/3
f 8/19/1 3/20/1 4/21/1 7/22/1
f 6/23/4 5/24/4 2/25/4 1/26/4
f 5/17/5 7/7/5 4/27/5 2/28/5
f 8/6/6 6/18/6 1/29/6 3/30/6
f 26/31/4 27/32/4 23/33/4 28/34/4
f 16/35/5 14/11/5 26/36/5 28/37/5
f 15/16/6 13/38/6 23/39/6 27/40/6
g Cylinder_Cylinder_glass
f 32/41/3 31/42/3 29/43/3 30/44/3
f 36/42/2 35/41/2 33/44/2 34/43/2
