# Blender v2.73 (sub 0) OBJ File: 'showerhead.blend'
# www.blender.org
o Cylinder
v -0.002279 -0.286270 -0.029833
v -0.002279 -0.198434 0.124963
v 0.023457 -0.200797 0.131441
v 0.087796 -0.289958 -0.005981
v 0.042297 -0.207253 0.149141
v 0.153735 -0.300033 0.059184
v 0.049192 -0.216072 0.173319
v 0.177871 -0.313796 0.148201
v 0.042297 -0.224891 0.197496
v 0.153735 -0.327560 0.237218
v 0.023457 -0.231346 0.215195
v 0.087796 -0.337635 0.302383
v -0.002279 -0.233710 0.221673
v -0.002279 -0.341323 0.326235
v -0.028014 -0.231346 0.215195
v -0.092353 -0.337636 0.302382
v -0.046854 -0.224891 0.197496
v -0.158293 -0.327560 0.237218
v -0.053750 -0.216072 0.173319
v -0.182428 -0.313797 0.148200
v -0.046854 -0.207253 0.149141
v -0.158293 -0.300033 0.059184
v -0.028014 -0.200797 0.131441
v -0.092353 -0.289958 -0.005981
v -0.002279 -0.089004 0.182122
v 0.023457 -0.093670 0.187199
v 0.042297 -0.106419 0.201070
v 0.049192 -0.123834 0.220019
v 0.042297 -0.141250 0.238967
v 0.023457 -0.153999 0.252838
v -0.002279 -0.158665 0.257915
v -0.028015 -0.153999 0.252838
v -0.046854 -0.141250 0.238967
v -0.053750 -0.123834 0.220018
v -0.046854 -0.106419 0.201070
v -0.028014 -0.093670 0.187199
v -0.002279 -0.007455 0.267224
v 0.023457 -0.013348 0.270806
v 0.042297 -0.029448 0.280591
v 0.049192 -0.051440 0.293958
v 0.042297 -0.073432 0.307324
v 0.023457 -0.089532 0.317110
v -0.002279 -0.095423 0.320691
v -0.028015 -0.089532 0.317110
v -0.046854 -0.073432 0.307324
v -0.053750 -0.051441 0.293957
v -0.046854 -0.029448 0.280590
v -0.028015 -0.013348 0.270806
v -0.002279 0.045677 0.376375
v 0.023456 0.039013 0.378148
v 0.042296 0.020807 0.382994
v 0.049192 -0.004062 0.389615
v 0.042296 -0.028932 0.396235
v 0.023456 -0.047138 0.401081
v -0.002279 -0.053801 0.402856
v -0.028015 -0.047138 0.401081
v -0.046854 -0.028932 0.396235
v -0.053750 -0.004062 0.389615
v -0.046854 0.020807 0.382994
v -0.028015 0.039013 0.378147
v -0.002279 0.056048 0.499503
v 0.023456 0.049152 0.499503
v 0.042296 0.030313 0.499503
v 0.049192 0.004577 0.499503
v 0.042296 -0.021159 0.499503
v 0.023456 -0.039998 0.499503
v -0.002279 -0.046893 0.499503
v -0.028015 -0.039998 0.499503
v -0.046854 -0.021159 0.499503
v -0.053750 0.004577 0.499503
v -0.046854 0.030313 0.499503
v -0.028015 0.049152 0.499503
v 0.153735 -0.373155 0.228881
v 0.177871 -0.359391 0.139864
v -0.002279 -0.386918 0.317899
v 0.087796 -0.383230 0.294047
v 0.087796 -0.335552 -0.014318
v -0.002279 -0.331865 -0.038169
v 0.153735 -0.345628 0.050847
v -0.092353 -0.383230 0.294047
v -0.158293 -0.345628 0.050847
v -0.182428 -0.359391 0.139864
v -0.092353 -0.335552 -0.014318
v -0.158293 -0.373155 0.228881
v -0.002279 -0.359391 0.139864
vt 0.500000 0.812500
vt 0.500000 0.968750
vt 0.421875 0.968750
vt 0.421875 0.812500
vt 0.328125 0.968750
vt 0.328125 0.812500
vt 0.250000 0.968750
vt 0.250000 0.812500
vt 0.171875 0.968750
vt 0.171875 0.812500
vt 0.078125 0.968750
vt 0.078125 0.812500
vt 0.000000 0.968750
vt 0.000000 0.812500
vt 1.000000 0.812500
vt 1.000000 0.968750
vt 0.921875 0.968750
vt 0.921875 0.812500
vt 0.828125 0.968750
vt 0.828125 0.812500
vt 0.750000 0.968750
vt 0.750000 0.812500
vt 0.671875 0.968750
vt 0.671875 0.812500
vt 0.578125 0.968750
vt 0.578125 0.812500
vt 0.750000 0.031250
vt 0.750000 0.140625
vt 0.718750 0.140625
vt 0.718750 0.031250
vt 0.687500 0.140625
vt 0.687500 0.031250
vt 0.656250 0.140625
vt 0.656250 0.031250
vt 0.625000 0.140625
vt 0.625000 0.031250
vt 0.593750 0.140625
vt 0.593750 0.031250
vt 0.562500 0.140625
vt 0.562500 0.031250
vt 0.937500 0.031250
vt 0.937500 0.140625
vt 0.906250 0.140625
vt 0.906250 0.031250
vt 0.875000 0.140625
vt 0.875000 0.031250
vt 0.843750 0.140625
vt 0.843750 0.031250
vt 0.812500 0.140625
vt 0.812500 0.031250
vt 0.781250 0.140625
vt 0.781250 0.031250
vt 0.750000 0.250000
vt 0.718750 0.250000
vt 0.687500 0.250000
vt 0.656250 0.250000
vt 0.625000 0.250000
vt 0.593750 0.250000
vt 0.562500 0.250000
vt 0.937500 0.250000
vt 0.906250 0.250000
vt 0.875000 0.250000
vt 0.843750 0.250000
vt 0.812500 0.250000
vt 0.781250 0.250000
vt 0.750000 0.359375
vt 0.718750 0.359375
vt 0.687500 0.359375
vt 0.656250 0.359375
vt 0.625000 0.359375
vt 0.593750 0.359375
vt 0.562500 0.359375
vt 0.937500 0.359375
vt 0.906250 0.359375
vt 0.875000 0.359375
vt 0.843750 0.359375
vt 0.812500 0.359375
vt 0.781250 0.359375
vt 0.750000 0.468750
vt 0.718750 0.468750
vt 0.687500 0.468750
vt 0.656250 0.468750
vt 0.625000 0.468750
vt 0.593750 0.468750
vt 0.562500 0.468750
vt 0.937500 0.468750
vt 0.906250 0.468750
vt 0.875000 0.468750
vt 0.843750 0.468750
vt 0.812500 0.468750
vt 0.781250 0.468750
vt 0.171875 0.765625
vt 0.250000 0.765625
vt 0.000000 0.765625
vt 0.078125 0.765625
vt 0.421875 0.765625
vt 0.500000 0.765625
vt 0.328125 0.765625
vt 0.921875 0.765625
vt 1.000000 0.765625
vt 0.671875 0.765625
vt 0.750000 0.765625
vt 0.578125 0.765625
vt 0.828125 0.765625
vt 0.289605 0.468767
vt 0.176278 0.438681
vt 0.289063 0.242188
vt 0.093171 0.355946
vt 0.062552 0.242731
vt 0.515574 0.241645
vt 0.485498 0.355006
vt 0.401847 0.045692
vt 0.484955 0.128427
vt 0.402787 0.438138
vt 0.092627 0.129370
vt 0.288518 0.015608
vt 0.175338 0.046239
vt 0.883933 0.636001
vt 0.917481 0.627012
vt 0.942039 0.602453
vt 0.951028 0.568906
vt 0.942039 0.535358
vt 0.917481 0.510800
vt 0.883933 0.501811
vt 0.850386 0.510800
vt 0.825828 0.535358
vt 0.816839 0.568906
vt 0.825828 0.602453
vt 0.850386 0.627012
vn 0.000000 0.557000 -0.830500
vn 0.000000 0.711000 -0.703200
vn 0.414900 0.679400 -0.605100
vn 0.459500 0.536200 -0.708000
vn 0.737300 0.591100 -0.327100
vn 0.793400 0.479800 -0.374500
vn 0.881500 0.465700 0.077900
vn 0.911300 0.404200 0.078000
vn 0.789300 0.336300 0.513700
vn 0.783900 0.330700 0.525400
vn 0.465900 0.240500 0.851500
vn 0.450000 0.278500 0.848500
vn 0.000000 0.205600 0.978600
vn 0.000000 0.259800 0.965600
vn -0.465900 0.240500 0.851500
vn -0.450000 0.278500 0.848500
vn -0.789300 0.336300 0.513700
vn -0.783900 0.330700 0.525400
vn -0.881500 0.465700 0.077900
vn -0.911300 0.404200 0.078000
vn -0.737300 0.591100 -0.327200
vn -0.793400 0.479800 -0.374500
vn -0.414900 0.679400 -0.605100
vn -0.459500 0.536200 -0.708000
vn 0.000000 0.602000 -0.798500
vn 0.487500 0.524000 -0.698400
vn 0.853500 0.309600 -0.419000
vn 0.999600 0.014300 -0.023100
vn 0.876800 -0.282000 0.389400
vn 0.510200 -0.497600 0.701400
vn 0.000000 -0.575900 0.817500
vn -0.510200 -0.497600 0.701400
vn -0.876800 -0.282000 0.389400
vn -0.999600 0.014300 -0.023100
vn -0.853500 0.309600 -0.419000
vn -0.487500 0.524000 -0.698400
vn 0.000000 0.821100 -0.570800
vn 0.489200 0.715400 -0.498900
vn 0.854800 0.424200 -0.298800
vn 0.999600 0.020400 -0.016000
vn 0.877200 -0.390300 0.279500
vn 0.511400 -0.695400 0.504800
vn 0.000000 -0.807900 0.589300
vn -0.511400 -0.695400 0.504800
vn -0.877200 -0.390300 0.279500
vn -0.999600 0.020400 -0.016000
vn -0.854800 0.424200 -0.298800
vn -0.489200 0.715400 -0.498900
vn 0.000000 0.964200 -0.265100
vn 0.489400 0.840800 -0.231300
vn 0.854100 0.501400 -0.138300
vn 0.999500 0.030000 -0.008500
vn 0.881200 -0.455600 0.125800
vn 0.517300 -0.824700 0.228400
vn 0.000000 -0.963700 0.267100
vn -0.517300 -0.824700 0.228400
vn -0.881200 -0.455600 0.125800
vn -0.999500 0.030000 -0.008500
vn -0.854100 0.501400 -0.138300
vn -0.489400 0.840800 -0.231300
vn 0.000000 0.783300 0.621500
vn 0.383800 0.678900 0.625900
vn 0.661800 0.394400 0.637500
vn 0.757400 0.009800 0.652800
vn 0.648300 -0.367300 0.666900
vn 0.370300 -0.636700 0.676400
vn 0.000000 -0.733600 0.679600
vn -0.370300 -0.636700 0.676400
vn -0.648300 -0.367300 0.667000
vn -0.757400 0.009800 0.652800
vn -0.661800 0.394400 0.637500
vn -0.383800 0.678900 0.625900
vn 0.653400 -0.707700 0.268800
vn 0.757200 -0.645000 -0.103200
vn 0.000000 -0.769900 0.638100
vn 0.376200 -0.753300 0.539400
vn 0.380900 -0.535400 -0.753800
vn 0.000000 -0.518400 -0.855100
vn 0.658000 -0.581900 -0.477900
vn -0.376200 -0.753300 0.539400
vn -0.658000 -0.581900 -0.477900
vn -0.757200 -0.645000 -0.103200
vn -0.380900 -0.535400 -0.753800
vn -0.653400 -0.707700 0.268800
vn 0.000000 -0.988300 -0.152800
s 1
f 1/1/1 2/2/2 3/3/3 4/4/4
f 4/4/4 3/3/3 5/5/5 6/6/6
f 6/6/6 5/5/5 7/7/7 8/8/8
f 8/8/8 7/7/7 9/9/9 10/10/10
f 10/10/10 9/9/9 11/11/11 12/12/12
f 12/12/12 11/11/11 13/13/13 14/14/14
f 14/15/14 13/16/13 15/17/15 16/18/16
f 16/18/16 15/17/15 17/19/17 18/20/18
f 18/20/18 17/19/17 19/21/19 20/22/20
f 20/22/20 19/21/19 21/23/21 22/24/22
f 22/24/22 21/23/21 23/25/23 24/26/24
f 2/2/2 1/1/1 24/26/24 23/25/23
f 2/27/2 25/28/25 26/29/26 3/30/3
f 3/30/3 26/29/26 27/31/27 5/32/5
f 5/32/5 27/31/27 28/33/28 7/34/7
f 7/34/7 28/33/28 29/35/29 9/36/9
f 9/36/9 29/35/29 30/37/30 11/38/11
f 11/38/11 30/37/30 31/39/31 13/40/13
f 13/41/13 31/42/31 32/43/32 15/44/15
f 15/44/15 32/43/32 33/45/33 17/46/17
f 17/46/17 33/45/33 34/47/34 19/48/19
f 19/48/19 34/47/34 35/49/35 21/50/21
f 21/50/21 35/49/35 36/51/36 23/52/23
f 23/52/23 36/51/36 25/28/25 2/27/2
f 25/28/25 37/53/37 38/54/38 26/29/26
f 26/29/26 38/54/38 39/55/39 27/31/27
f 27/31/27 39/55/39 40/56/40 28/33/28
f 28/33/28 40/56/40 41/57/41 29/35/29
f 29/35/29 41/57/41 42/58/42 30/37/30
f 30/37/30 42/58/42 43/59/43 31/39/31
f 31/42/31 43/60/43 44/61/44 32/43/32
f 32/43/32 44/61/44 45/62/45 33/45/33
f 33/45/33 45/62/45 46/63/46 34/47/34
f 34/47/34 46/63/46 47/64/47 35/49/35
f 35/49/35 47/64/47 48/65/48 36/51/36
f 36/51/36 48/65/48 37/53/37 25/28/25
f 37/53/37 49/66/49 50/67/50 38/54/38
f 38/54/38 50/67/50 51/68/51 39/55/39
f 39/55/39 51/68/51 52/69/52 40/56/40
f 40/56/40 52/69/52 53/70/53 41/57/41
f 41/57/41 53/70/53 54/71/54 42/58/42
f 42/58/42 54/71/54 55/72/55 43/59/43
f 43/60/43 55/73/55 56/74/56 44/61/44
f 44/61/44 56/74/56 57/75/57 45/62/45
f 45/62/45 57/75/57 58/76/58 46/63/46
f 46/63/46 58/76/58 59/77/59 47/64/47
f 47/64/47 59/77/59 60/78/60 48/65/48
f 48/65/48 60/78/60 49/66/49 37/53/37
f 49/66/49 61/79/61 62/80/62 50/67/50
f 50/67/50 62/80/62 63/81/63 51/68/51
f 51/68/51 63/81/63 64/82/64 52/69/52
f 52/69/52 64/82/64 65/83/65 53/70/53
f 53/70/53 65/83/65 66/84/66 54/71/54
f 54/71/54 66/84/66 67/85/67 55/72/55
f 55/73/55 67/86/67 68/87/68 56/74/56
f 56/74/56 68/87/68 69/88/69 57/75/57
f 57/75/57 69/88/69 70/89/70 58/76/58
f 58/76/58 70/89/70 71/90/71 59/77/59
f 59/77/59 71/90/71 72/91/72 60/78/60
f 60/78/60 72/91/72 61/79/61 49/66/49
f 8/8/8 10/10/10 73/92/73 74/93/74
f 12/12/12 14/14/14 75/94/75 76/95/76
f 1/1/1 4/4/4 77/96/77 78/97/78
f 6/6/6 8/8/8 74/93/74 79/98/79
f 14/15/14 16/18/16 80/99/80 75/100/75
f 20/22/20 22/24/22 81/101/81 82/102/82
f 22/24/22 24/26/24 83/103/83 81/101/81
f 10/10/10 12/12/12 76/95/76 73/92/73
f 16/18/16 18/20/18 84/104/84 80/99/80
f 24/26/24 1/1/1 78/97/78 83/103/83
f 18/20/18 20/22/20 82/102/82 84/104/84
f 4/4/4 6/6/6 79/98/79 77/96/77
f 75/105/75 80/106/80 85/107/85
f 84/108/84 82/109/82 85/107/85
f 74/110/74 73/111/73 85/107/85
f 77/112/77 79/113/79 85/107/85
f 79/113/79 74/110/74 85/107/85
f 76/114/76 75/105/75 85/107/85
f 73/111/73 76/114/76 85/107/85
f 82/109/82 81/115/81 85/107/85
f 80/106/80 84/108/84 85/107/85
f 78/116/78 77/112/77 85/107/85
f 81/115/81 83/117/83 85/107/85
f 83/117/83 78/116/78 85/107/85
f 67/118/67 66/119/66 65/120/65 64/121/64 63/122/63 62/123/62 61/124/61 72/125/72 71/126/71 70/127/70 69/128/69 68/129/68
