# Blender v2.73 (sub 0) OBJ File: 'candle-small.blend'
# www.blender.org
o Cylinder
v 0.044194 0.062500 0.044194
v 0.044194 -0.187500 0.044194
v 0.000000 -0.500000 -0.062500
v 0.000000 -0.187500 -0.062500
v 0.023918 -0.500000 -0.057742
v 0.023918 -0.187500 -0.057742
v 0.044194 -0.500000 -0.044194
v 0.044194 -0.187500 -0.044194
v 0.057742 -0.500000 -0.023918
v 0.057742 -0.187500 -0.023918
v 0.062500 -0.500000 0.000000
v 0.062500 -0.187500 0.000000
v 0.057742 -0.500000 0.023918
v 0.057742 -0.187500 0.023918
v 0.044194 -0.500000 0.044194
v 0.044194 -0.187500 0.044194
v 0.023918 -0.500000 0.057742
v 0.023918 -0.187500 0.057742
v 0.000000 -0.500000 0.062500
v 0.000000 -0.187500 0.062500
v -0.023918 -0.500000 0.057742
v -0.023918 -0.187500 0.057742
v -0.044194 -0.500000 0.044194
v -0.044194 -0.187500 0.044194
v -0.057742 -0.500000 0.023918
v -0.057742 -0.187500 0.023918
v -0.062500 -0.500000 0.000000
v -0.062500 -0.187500 0.000000
v -0.057742 -0.500000 -0.023918
v -0.057742 -0.187500 -0.023918
v -0.044194 -0.500000 -0.044194
v -0.044194 -0.187500 -0.044194
v -0.023918 -0.500000 -0.057742
v -0.023918 -0.187500 -0.057742
v -0.044194 -0.187500 -0.044194
v -0.044194 0.062500 -0.044194
v 0.044194 0.062500 -0.044194
v 0.044194 -0.187500 -0.044194
v -0.044194 -0.187500 0.044194
v -0.044194 0.062500 0.044194
v 0.044194 0.062500 0.044194
v 0.044194 -0.187500 0.044194
v -0.044194 -0.187500 -0.044194
v -0.044194 0.062500 -0.044194
v 0.044194 0.062500 -0.044194
v 0.044194 -0.187500 -0.044194
v -0.044194 -0.187500 0.044194
v -0.044194 0.062500 0.044194
vt 0.500000 -0.000000
vt 0.500000 0.500000
vt 0.437500 0.500000
vt 0.437500 -0.000000
vt 0.375000 0.500000
vt 0.375000 -0.000000
vt 0.312500 0.500000
vt 0.312500 -0.000000
vt 0.250000 0.500000
vt 0.250000 -0.000000
vt 0.187500 0.500000
vt 0.187500 -0.000000
vt 0.125000 0.500000
vt 0.125000 -0.000000
vt 0.062500 0.500000
vt 0.062500 -0.000000
vt -0.000000 0.500000
vt -0.000000 -0.000000
vt 1.000000 -0.000000
vt 1.000000 0.500000
vt 0.937500 0.500000
vt 0.937500 -0.000000
vt 0.875000 0.500000
vt 0.875000 -0.000000
vt 0.812500 0.500000
vt 0.812500 -0.000000
vt 0.750000 0.500000
vt 0.750000 -0.000000
vt 0.687500 0.500000
vt 0.687500 -0.000000
vt 0.625000 0.500000
vt 0.625000 -0.000000
vt 0.476190 0.785650
vt 0.488110 0.783278
vt 0.498216 0.776526
vt 0.504969 0.766420
vt 0.507340 0.754500
vt 0.504969 0.742579
vt 0.498216 0.732474
vt 0.488110 0.725721
vt 0.476190 0.723350
vt 0.464269 0.725721
vt 0.454164 0.732474
vt 0.447411 0.742579
vt 0.445040 0.754500
vt 0.447411 0.766420
vt 0.454164 0.776526
vt 0.464269 0.783278
vt 0.562500 -0.000000
vt 0.562500 0.500000
vt 1.000000 1.000000
vt 0.000000 1.000000
vn 0.000000 -0.665700 -0.746200
vn 0.000000 0.665700 -0.746200
vn 0.285500 0.665700 -0.689400
vn 0.285500 -0.665700 -0.689400
vn 0.527600 0.665700 -0.527600
vn 0.527600 -0.665700 -0.527600
vn 0.689400 0.665700 -0.285500
vn 0.689400 -0.665700 -0.285500
vn 0.746200 0.665700 0.000000
vn 0.746200 -0.665700 0.000000
vn 0.689400 0.665700 0.285500
vn 0.689400 -0.665700 0.285500
vn 0.527600 0.665700 0.527600
vn 0.527600 -0.665700 0.527600
vn 0.285500 0.665700 0.689400
vn 0.285500 -0.665700 0.689400
vn 0.000000 0.665700 0.746200
vn 0.000000 -0.665700 0.746200
vn -0.285500 0.665700 0.689400
vn -0.285500 -0.665700 0.689400
vn -0.527600 0.665700 0.527600
vn -0.527600 -0.665700 0.527600
vn -0.689400 0.665700 0.285500
vn -0.689400 -0.665700 0.285500
vn -0.746200 0.665700 0.000000
vn -0.746200 -0.665700 0.000000
vn -0.689400 0.665700 -0.285500
vn -0.689400 -0.665700 -0.285500
vn -0.527600 0.665700 -0.527600
vn -0.527600 -0.665700 -0.527600
vn -0.285500 0.665700 -0.689400
vn -0.285500 -0.665700 -0.689400
vn 0.707100 0.000000 0.707100
vn -0.707100 0.000000 0.707100
vn -0.707100 -0.000000 -0.707100
vn 0.707100 -0.000000 -0.707100
g Cylinder_Cylinder_candle
s 1
f 3/1/1 4/2/2 6/3/3 5/4/4
f 5/4/4 6/3/3 8/5/5 7/6/6
f 7/6/6 8/5/5 10/7/7 9/8/8
f 9/8/8 10/7/7 12/9/9 11/10/10
f 11/10/10 12/9/9 14/11/11 13/12/12
f 13/12/12 14/11/11 16/13/13 15/14/14
f 15/14/14 16/13/13 18/15/15 17/16/16
f 17/16/16 18/15/15 20/17/17 19/18/18
f 19/19/18 20/20/17 22/21/19 21/22/20
f 21/22/20 22/21/19 24/23/21 23/24/22
f 23/24/22 24/23/21 26/25/23 25/26/24
f 25/26/24 26/25/23 28/27/25 27/28/26
f 27/28/26 28/27/25 30/29/27 29/30/28
f 29/30/28 30/29/27 32/31/29 31/32/30
f 6/33/3 4/34/2 34/35/31 32/36/29 30/37/27 28/38/25 26/39/23 24/40/21 22/41/19 20/42/17 18/43/15 16/44/13 14/45/11 12/46/9 10/47/7 8/48/5
f 33/49/32 34/50/31 4/2/2 3/1/1
f 31/32/30 32/31/29 34/50/31 33/49/32
f 3/33/1 5/34/4 7/35/6 9/36/8 11/37/10 13/38/12 15/39/14 17/40/16 19/41/18 21/42/20 23/43/22 25/44/24 27/45/26 29/46/28 31/47/30 33/48/32
g Cylinder_Cylinder_flame
s off
f 38/19/33 37/51/33 40/52/33 39/18/33
f 2/19/34 1/51/34 36/52/34 35/18/34
f 46/19/35 47/18/35 48/52/35 45/51/35
f 42/19/36 43/18/36 44/52/36 41/51/36
