# Blender v2.73 (sub 0) OBJ File: 'banister.blend'
# www.blender.org
o Cylinder_Cylinder_verticals
v 0.421453 1.531250 0.499999
v -0.578547 0.531250 0.499999
v -0.516047 0.468750 0.499999
v 0.483953 1.468750 0.499999
v 0.421453 1.531250 0.312499
v 0.483953 1.468750 0.312499
v -0.516047 0.468750 0.312499
v -0.578547 0.531250 0.312499
v 0.202703 0.250000 0.437499
v 0.265203 0.250000 0.437499
v 0.265203 1.250000 0.437499
v 0.202703 1.187500 0.437499
v 0.202703 0.250000 0.374999
v 0.202703 1.187500 0.374999
v 0.265203 1.250000 0.374999
v 0.265203 0.250000 0.374999
v 0.265203 0.250000 0.499999
v 0.202703 0.250000 0.499999
v -0.297297 -0.187500 0.437499
v -0.234797 -0.187500 0.437499
v -0.234797 0.812500 0.437499
v -0.297297 0.750000 0.437499
v -0.297297 -0.187500 0.374999
v -0.297297 0.750000 0.374999
v -0.234797 0.812500 0.374999
v -0.234797 -0.187500 0.374999
v -0.234797 -0.187500 0.499999
v -0.297297 -0.187500 0.499999
v -0.297297 -0.125000 0.499999
v -0.297297 -0.125000 0.437499
v -0.234797 -0.125000 0.437499
v -0.234797 -0.125000 0.499999
v 0.202703 0.312500 0.437499
v 0.202703 0.312500 0.499999
v 0.265203 0.312500 0.499999
v 0.265203 0.312500 0.437499
vt -0.312500 0.500000
vt -0.312500 0.437500
vt 0.625000 0.437500
vt 0.562500 0.500000
vt 0.125000 0.687500
vt 1.000000 0.687500
vt 1.062500 0.750000
vt 0.125000 0.750000
vt 1.000000 0.125000
vt 1.000000 0.062500
vt 1.125000 0.062500
vt 1.125000 0.125000
vt 0.125000 0.625000
vt 0.125000 0.562500
vt 1.062500 0.562500
vt 1.000000 0.625000
vt 1.062500 0.687500
vt 1.187500 0.125000
vt 1.187500 0.062500
vt 1.312500 0.062500
vt 1.312500 0.125000
vt 0.875000 0.875000
vt -0.062500 0.875000
vt -0.062500 0.812500
vt 0.875000 0.812500
vt -0.312500 0.375000
vt 0.562500 0.375000
vt 0.562500 0.437500
vt 0.875000 1.000000
vt -0.062500 1.000000
vt -0.062500 0.937500
vt 0.875000 0.937500
vt 0.437500 0.187500
vt 1.312500 0.187500
vt 1.312500 0.250000
vt 0.437500 0.250000
vt 0.437500 0.125000
vt 0.500000 0.125000
vt 0.500000 0.187500
vt -0.375000 0.812500
vt -0.312500 0.812500
vt -0.312500 0.875000
vt -0.375000 0.875000
vt 0.812500 0.125000
vt 0.750000 0.125000
vt 0.750000 0.062500
vt 0.812500 0.062500
vt 0.937500 0.125000
vt 0.875000 0.125000
vt 0.875000 0.062500
vt 0.937500 0.062500
vt -0.250000 0.875000
vt -0.250000 0.937500
vt -0.312500 0.937500
vt -0.250000 0.375000
vt -0.312500 0.312500
vt -0.250000 0.312500
vt -0.125000 0.937500
vt -0.125000 0.875000
vt -0.125000 1.000000
vt -0.187500 0.625000
vt -0.375000 0.625000
vt -0.375000 0.562500
vt -0.187500 0.562500
vt -0.125000 0.625000
vt -0.125000 0.562500
vt 0.062500 0.562500
vt 0.062500 0.625000
vt 1.375000 0.250000
vt 0.375000 0.250000
vt 0.375000 0.062500
vt 1.375000 0.062500
vt -0.375000 0.312500
vt 0.625000 0.312500
vt 0.625000 0.500000
vt -0.375000 0.500000
vn -0.707100 0.000000 0.707100
vn 0.707100 0.000000 0.707100
vn 0.894400 0.000000 0.447200
vn -0.554700 0.000000 0.832000
vn -0.577300 -0.577400 -0.577400
vn -0.554700 -0.000000 -0.832100
vn 0.894400 -0.000000 -0.447200
vn 0.577400 -0.577400 -0.577400
vn 0.577400 -0.577400 0.577400
vn -0.577400 -0.577400 0.577300
vn -0.554700 0.000000 0.832100
vn -0.577400 -0.577400 -0.577400
vn 0.577400 -0.577400 -0.577300
vn -0.577400 -0.577400 0.577400
vn -0.577300 0.577300 0.577300
vn -0.707100 0.707100 -0.000000
vn -1.000000 0.000000 0.000000
vn 1.000000 0.000000 0.000000
vn 0.707100 0.707100 -0.000000
vn 0.577300 0.577300 0.577300
vn 0.000000 0.816500 0.577300
vn -0.816500 0.000000 0.577300
vn 0.000000 -0.816500 0.577300
vn 0.816500 0.000000 0.577300
vn 0.000000 0.816500 -0.577300
vn 0.816500 0.000000 -0.577300
vn 0.000000 -0.816500 -0.577300
vn -0.816500 0.000000 -0.577300
g Cylinder_Cylinder_verticals_Cylinder_Cylinder_verticals_verticals
s 1
f 9/1/1 10/2/2 11/3/3 12/4/4
f 13/5/5 14/6/6 15/7/7 16/8/8
f 13/9/5 16/10/8 17/11/9 18/12/10
f 19/13/1 20/14/2 21/15/3 22/16/11
f 23/13/12 24/16/6 25/17/7 26/5/13
f 23/18/12 26/19/13 27/20/9 28/21/14
f 11/22/3 10/23/2 16/24/8 15/25/7
f 9/26/1 12/27/4 14/28/6 13/2/5
f 21/29/3 20/30/2 26/31/13 25/32/7
f 19/33/1 22/34/11 24/35/6 23/36/12
f 28/37/14 29/38/15 30/39/16 19/33/17
f 20/40/18 31/41/19 32/42/20 27/43/9
f 33/44/16 34/45/15 35/46/20 36/47/19
f 30/48/16 29/49/15 32/50/20 31/51/19
f 10/42/18 36/52/19 35/53/20 17/54/9
f 33/55/16 9/26/17 18/56/10 34/57/15
f 17/42/9 35/52/20 34/53/15 18/54/10
f 27/40/9 32/41/20 29/42/15 28/43/14
g Cylinder_Cylinder_verticals_Cylinder_Cylinder_verticals_railing
f 1/32/21 2/58/22 3/59/23 4/22/24
f 5/32/25 6/29/26 7/60/27 8/58/28
f 1/61/21 4/62/24 6/63/26 5/64/25
f 2/65/22 8/66/28 7/67/27 3/68/23
f 4/69/24 3/70/23 7/71/27 6/72/26
f 2/73/22 1/74/21 5/75/25 8/76/28
