# Blender v2.73 (sub 0) OBJ File: 'trash_can_green.blend'
# www.blender.org
o poubelle_Poubelle_Cylinder.000
v -0.124387 -0.499107 0.262526
v -0.147565 0.203898 0.310496
v -0.246590 0.203899 0.239106
v -0.208403 -0.499106 0.201957
v -0.315226 0.203899 0.138154
v -0.266637 -0.499106 0.116305
v -0.345195 0.203899 0.019813
v -0.292063 -0.499106 0.015900
v -0.332882 0.203899 -0.101640
v -0.281616 -0.499106 -0.087145
v -0.279773 0.203899 -0.211556
v -0.236556 -0.499106 -0.180402
v -0.192272 0.203900 -0.296680
v -0.162318 -0.499106 -0.252624
v -0.080934 0.203900 -0.346744
v -0.067854 -0.499106 -0.295100
v 0.040812 0.203900 -0.355708
v 0.035439 -0.499105 -0.302705
v 0.158281 0.203900 -0.322492
v 0.135105 -0.499105 -0.274523
v 0.257306 0.203899 -0.251102
v 0.219121 -0.499105 -0.213954
v 0.325943 0.203899 -0.150150
v 0.277355 -0.499105 -0.128301
v 0.355912 0.203899 -0.031810
v 0.302781 -0.499105 -0.027898
v 0.343599 0.203899 0.089643
v 0.292335 -0.499105 0.075148
v 0.290489 0.203899 0.199560
v 0.247275 -0.499105 0.168405
v 0.202989 0.203899 0.284684
v 0.173036 -0.499106 0.240627
v 0.091651 0.203898 0.334747
v 0.078573 -0.499106 0.283103
v -0.030095 0.203898 0.343712
v -0.024721 -0.499107 0.290709
v -0.032947 0.218496 0.371843
v -0.159866 0.218496 0.335955
v 0.098592 0.218496 0.362157
v 0.218886 0.218497 0.308067
v 0.313425 0.218497 0.216096
v 0.370807 0.218497 0.097336
v 0.384110 0.218498 -0.033886
v 0.351730 0.218498 -0.161745
v 0.277573 0.218498 -0.270819
v 0.170583 0.218498 -0.347951
v 0.043664 0.218498 -0.383839
v -0.087876 0.218498 -0.374153
v -0.208169 0.218498 -0.320063
v -0.302709 0.218498 -0.228092
v -0.360090 0.218498 -0.109333
v -0.373393 0.218497 0.021889
v -0.341014 0.218497 0.149749
v -0.266857 0.218497 0.258822
v -0.166289 0.193365 0.349248
v -0.277439 0.193366 0.269117
v -0.354479 0.193366 0.155803
v -0.388117 0.193366 0.022974
v -0.374296 0.193366 -0.113350
v -0.314684 0.193366 -0.236726
v -0.216470 0.193367 -0.332272
v -0.091500 0.193367 -0.388465
v 0.045153 0.193367 -0.398526
v 0.177005 0.193367 -0.361244
v 0.288155 0.193366 -0.281114
v 0.365195 0.193366 -0.167800
v 0.398834 0.193366 -0.034970
v 0.385013 0.193366 0.101352
v 0.325401 0.193366 0.224728
v 0.227187 0.193365 0.320276
v 0.102217 0.193365 0.376468
v -0.034436 0.193365 0.386531
vt 0.322026 0.460840
vt 0.000000 0.456784
vt 0.000901 0.404004
vt 0.322790 0.416061
vt 0.002594 0.360586
vt 0.324227 0.379223
vt 0.679238 0.652419
vt 1.000000 0.641530
vt 0.999384 0.693984
vt 0.678715 0.696924
vt 0.999169 0.749768
vt 0.678534 0.744253
vt 0.999383 0.802154
vt 0.678715 0.788699
vt 1.000000 0.844824
vt 0.679238 0.824902
vt 0.003418 0.625780
vt 0.324227 0.606633
vt 0.323404 0.648576
vt 0.002720 0.661366
vt 0.322966 0.700570
vt 0.002349 0.705479
vt 0.322966 0.756341
vt 0.002349 0.752798
vt 0.323404 0.809164
vt 0.002721 0.797615
vt 0.324227 0.852668
vt 0.003419 0.834525
vt 0.678534 0.832143
vt 0.356771 0.847924
vt 0.355537 0.800514
vt 0.677486 0.791919
vt 0.355108 0.745908
vt 0.677123 0.745589
vt 0.355537 0.690693
vt 0.677486 0.698743
vt 0.356771 0.641530
vt 0.678534 0.657031
vt 0.324227 0.587979
vt 0.002594 0.606633
vt 0.000901 0.564600
vt 0.322790 0.552316
vt 0.000000 0.512558
vt 0.322026 0.508162
vt 0.386913 0.093233
vt 0.367833 0.145653
vt 0.355108 0.143410
vt 0.375723 0.086772
vt 0.367833 0.201438
vt 0.355108 0.203682
vt 0.386912 0.253859
vt 0.375722 0.260319
vt 0.422770 0.296593
vt 0.414464 0.306490
vt 0.471081 0.324485
vt 0.466662 0.336627
vt 0.526018 0.334173
vt 0.526018 0.347093
vt 0.580956 0.324486
vt 0.585375 0.336627
vt 0.629267 0.296593
vt 0.637572 0.306491
vt 0.665125 0.253860
vt 0.676314 0.260321
vt 0.684204 0.201440
vt 0.696929 0.203683
vt 0.684205 0.145655
vt 0.696929 0.143411
vt 0.665125 0.093234
vt 0.676315 0.086774
vt 0.629267 0.050500
vt 0.637573 0.040602
vt 0.580957 0.022608
vt 0.585376 0.010466
vt 0.526020 0.012920
vt 0.526020 0.000000
vt 0.471082 0.022607
vt 0.466663 0.010466
vt 0.422771 0.050499
vt 0.414466 0.040601
vt 0.913966 0.571184
vt 0.913493 0.514111
vt 0.924822 0.515132
vt 0.925313 0.574423
vt 0.914856 0.618186
vt 0.926237 0.623253
vt 0.898822 0.179171
vt 0.900155 0.230396
vt 0.888454 0.234876
vt 0.887068 0.181661
vt 0.898359 0.120173
vt 0.886587 0.120369
vt 0.898822 0.060517
vt 0.887068 0.058394
vt 0.900155 0.007398
vt 0.888454 0.003211
vt 0.884757 0.296439
vt 0.886587 0.341853
vt 0.874911 0.347093
vt 0.873010 0.299914
vt 0.883784 0.240210
vt 0.871998 0.241499
vt 0.883784 0.179949
vt 0.871998 0.178896
vt 0.884757 0.122925
vt 0.873009 0.119654
vt 0.886587 0.076014
vt 0.874910 0.070920
vt 0.900386 0.066681
vt 0.901052 0.010008
vt 0.912420 0.006690
vt 0.911728 0.065566
vt 0.900155 0.126953
vt 0.911487 0.128180
vt 0.900386 0.183554
vt 0.911728 0.186981
vt 0.901052 0.229656
vt 0.912420 0.234876
vt 0.913966 0.397678
vt 0.914855 0.352360
vt 0.926237 0.347093
vt 0.925313 0.394172
vt 0.913493 0.453853
vt 0.924822 0.452531
vt 0.779282 0.347093
vt 0.825893 0.355312
vt 0.866882 0.378977
vt 0.897305 0.415233
vt 0.913493 0.459709
vt 0.913493 0.507039
vt 0.897305 0.551514
vt 0.866883 0.587771
vt 0.825894 0.611436
vt 0.779282 0.619655
vt 0.732672 0.611436
vt 0.691683 0.587772
vt 0.661260 0.551514
vt 0.645072 0.507039
vt 0.645072 0.459709
vt 0.661259 0.415234
vt 0.691683 0.378976
vt 0.732671 0.355312
vn -0.311700 -0.697500 0.645200
vn -0.354900 -0.578400 0.734500
vn -0.584700 -0.578400 0.568800
vn -0.513600 -0.697500 0.499600
vn -0.743900 -0.578400 0.334500
vn -0.653500 -0.697500 0.293900
vn -0.813500 -0.578400 0.059900
vn -0.714600 -0.697500 0.052600
vn -0.784900 -0.578400 -0.221900
vn -0.689500 -0.697500 -0.195000
vn -0.661700 -0.578400 -0.477000
vn -0.581300 -0.697500 -0.419000
vn -0.458600 -0.578400 -0.674600
vn -0.402900 -0.697500 -0.592600
vn -0.200200 -0.578400 -0.790700
vn -0.175900 -0.697500 -0.694600
vn 0.082200 -0.578400 -0.811500
vn 0.072300 -0.697500 -0.712900
vn 0.354900 -0.578400 -0.734500
vn 0.311700 -0.697500 -0.645200
vn 0.584700 -0.578400 -0.568800
vn 0.513600 -0.697500 -0.499600
vn 0.744000 -0.578400 -0.334500
vn 0.653500 -0.697500 -0.293900
vn 0.813500 -0.578400 -0.059900
vn 0.714600 -0.697500 -0.052600
vn 0.784900 -0.578400 0.221900
vn 0.689500 -0.697500 0.195000
vn 0.661700 -0.578400 0.477000
vn 0.581300 -0.697500 0.419000
vn 0.458600 -0.578400 0.674600
vn 0.402900 -0.697500 0.592600
vn 0.200200 -0.578400 0.790700
vn 0.175900 -0.697500 0.694600
vn -0.082200 -0.578400 0.811500
vn -0.072300 -0.697500 0.712900
vn 0.034800 -0.938500 -0.343400
vn 0.150200 -0.938500 -0.310800
vn -0.084700 -0.938500 -0.334600
vn -0.194000 -0.938500 -0.285400
vn -0.280000 -0.938500 -0.201800
vn -0.332100 -0.938500 -0.093900
vn -0.344200 -0.938500 0.025300
vn -0.314800 -0.938500 0.141500
vn -0.247400 -0.938500 0.240700
vn -0.150200 -0.938500 0.310800
vn -0.034800 -0.938500 0.343400
vn 0.084700 -0.938500 0.334600
vn 0.194000 -0.938500 0.285400
vn 0.280000 -0.938500 0.201800
vn 0.332100 -0.938500 0.093900
vn 0.344200 -0.938500 -0.025300
vn 0.314800 -0.938500 -0.141500
vn 0.247400 -0.938500 -0.240700
vn 0.375100 -0.506500 -0.776400
vn 0.618000 -0.506500 -0.601200
vn 0.786400 -0.506500 -0.353600
vn 0.859900 -0.506500 -0.063300
vn 0.829700 -0.506500 0.234600
vn 0.699400 -0.506500 0.504200
vn 0.484800 -0.506500 0.713000
vn 0.211700 -0.506500 0.835800
vn -0.087000 -0.506500 0.857800
vn -0.375100 -0.506500 0.776400
vn -0.618000 -0.506500 0.601200
vn -0.786400 -0.506500 0.353600
vn -0.859900 -0.506500 0.063300
vn -0.829700 -0.506500 -0.234600
vn -0.699400 -0.506500 -0.504200
vn -0.484800 -0.506500 -0.713000
vn -0.211700 -0.506500 -0.835800
vn 0.087000 -0.506500 -0.857800
g poubelle_Poubelle_Cylinder.000_poubelle_Poubelle_Cylinder.000_Poubelle.001
s 1
f 1/1/1 2/2/2 3/3/3 4/4/4
f 4/4/4 3/3/3 5/5/5 6/6/6
f 6/7/6 5/8/5 7/9/7 8/10/8
f 8/10/8 7/9/7 9/11/9 10/12/10
f 10/12/10 9/11/9 11/13/11 12/14/12
f 12/14/12 11/13/11 13/15/13 14/16/14
f 14/17/14 13/18/13 15/19/15 16/20/16
f 16/20/16 15/19/15 17/21/17 18/22/18
f 18/22/18 17/21/17 19/23/19 20/24/20
f 20/24/20 19/23/19 21/25/21 22/26/22
f 22/26/22 21/25/21 23/27/23 24/28/24
f 24/29/24 23/30/23 25/31/25 26/32/26
f 26/32/26 25/31/25 27/33/27 28/34/28
f 28/34/28 27/33/27 29/35/29 30/36/30
f 30/36/30 29/35/29 31/37/31 32/38/32
f 32/39/32 31/40/31 33/41/33 34/42/34
f 34/42/34 33/41/33 35/43/35 36/44/36
f 2/2/2 1/1/1 36/44/36 35/43/35
f 2/45/2 35/46/35 37/47/37 38/48/38
f 35/46/35 33/49/33 39/50/39 37/47/37
f 33/49/33 31/51/31 40/52/40 39/50/39
f 31/51/31 29/53/29 41/54/41 40/52/40
f 29/53/29 27/55/27 42/56/42 41/54/41
f 27/55/27 25/57/25 43/58/43 42/56/42
f 25/57/25 23/59/23 44/60/44 43/58/43
f 23/59/23 21/61/21 45/62/45 44/60/44
f 21/61/21 19/63/19 46/64/46 45/62/45
f 19/63/19 17/65/17 47/66/47 46/64/46
f 17/65/17 15/67/15 48/68/48 47/66/47
f 15/67/15 13/69/13 49/70/49 48/68/48
f 13/69/13 11/71/11 50/72/50 49/70/49
f 11/71/11 9/73/9 51/74/51 50/72/50
f 9/73/9 7/75/7 52/76/52 51/74/51
f 7/75/7 5/77/5 53/78/53 52/76/52
f 5/77/5 3/79/3 54/80/54 53/78/53
f 3/79/3 2/45/2 38/48/38 54/80/54
f 54/81/54 38/82/38 55/83/55 56/84/56
f 53/85/53 54/81/54 56/84/56 57/86/57
f 52/87/52 53/88/53 57/89/57 58/90/58
f 51/91/51 52/87/52 58/90/58 59/92/59
f 50/93/50 51/91/51 59/92/59 60/94/60
f 49/95/49 50/93/50 60/94/60 61/96/61
f 48/97/48 49/98/49 61/99/61 62/100/62
f 47/101/47 48/97/48 62/100/62 63/102/63
f 46/103/46 47/101/47 63/102/63 64/104/64
f 45/105/45 46/103/46 64/104/64 65/106/65
f 44/107/44 45/105/45 65/106/65 66/108/66
f 43/109/43 44/110/44 66/111/66 67/112/67
f 42/113/42 43/109/43 67/112/67 68/114/68
f 41/115/41 42/113/42 68/114/68 69/116/69
f 40/117/40 41/115/41 69/116/69 70/118/70
f 39/119/39 40/120/40 70/121/70 71/122/71
f 37/123/37 39/119/39 71/122/71 72/124/72
f 38/82/38 37/123/37 72/124/72 55/83/55
f 20/125/20 22/126/22 24/127/24 26/128/26 28/129/28 30/130/30 32/131/32 34/132/34 36/133/36 1/134/1 4/135/4 6/136/6 8/137/8 10/138/10 12/139/12 14/140/14 16/141/16 18/142/18
