# Blender v2.73 (sub 0) OBJ File: 'toilet_paper.blend'
# www.blender.org
o nodebox-3
v 0.187499 0.216954 0.063069
v -0.124999 0.216954 0.063069
v 0.187499 0.345883 0.063069
v -0.124999 0.345883 0.063069
v 0.187499 0.437050 0.154235
v -0.124999 0.437050 0.154235
v 0.187499 0.437050 0.283165
v -0.124999 0.437050 0.283165
v 0.187499 0.345883 0.374331
v -0.124999 0.345883 0.374331
v 0.187499 0.216954 0.374331
v -0.124999 0.216954 0.374331
v 0.187499 0.125787 0.283165
v -0.124999 0.125787 0.283165
v 0.187499 0.125787 0.154235
v -0.124999 0.125787 0.154235
v -0.187501 0.249999 0.187499
v -0.125000 0.249999 0.187499
v -0.187501 0.187500 0.437499
v -0.187501 0.249999 0.437499
v -0.125000 0.187500 0.437499
v -0.125000 0.249999 0.437499
v -0.187501 0.187500 0.500000
v -0.125000 0.187500 0.500000
v -0.187501 0.312500 0.187499
v -0.125000 0.312500 0.187499
v -0.187501 0.312500 0.437499
v -0.187501 0.374999 0.437499
v -0.125000 0.312500 0.437499
v -0.125000 0.374999 0.437499
v -0.187501 0.374999 0.500000
v -0.125000 0.374999 0.500000
v 0.187499 0.249999 0.187499
v 0.250000 0.249999 0.187499
v 0.187499 0.187500 0.437499
v 0.187499 0.249999 0.437499
v 0.250000 0.187500 0.437499
v 0.250000 0.249999 0.437499
v 0.187499 0.187500 0.500000
v 0.250000 0.187500 0.500000
v 0.187499 0.312500 0.187499
v 0.250000 0.312500 0.187499
v 0.187499 0.312500 0.437499
v 0.187499 0.374999 0.437499
v 0.250000 0.312500 0.437499
v 0.250000 0.374999 0.437499
v 0.187499 0.374999 0.500000
v 0.250000 0.374999 0.500000
v -0.124999 0.281418 0.218700
v 0.187499 0.281418 0.218700
vt -0.000000 0.875000
vt 0.312500 0.875000
vt 0.312500 1.000000
vt -0.000000 1.000000
vt -0.000000 0.000000
vt 0.312500 0.000000
vt 0.312500 0.125000
vt -0.000000 0.125000
vt 0.312500 0.250000
vt -0.000000 0.250000
vt 0.312500 0.375000
vt -0.000000 0.375000
vt 0.312500 0.500000
vt -0.000000 0.500000
vt 0.312500 0.625000
vt -0.000000 0.625000
vt 1.000000 0.341529
vt 1.000000 0.470971
vt 0.843750 0.406250
vt -0.000000 0.750000
vt 0.312500 0.750000
vt 0.687500 0.877221
vt 0.687500 0.747779
vt 0.843750 0.812500
vt 0.779029 0.656250
vt 0.908470 0.656250
vt 1.000000 0.747779
vt 1.000000 0.877221
vt 0.908470 0.968750
vt 0.779029 0.968750
vt 0.908471 0.562500
vt 0.779029 0.562500
vt 0.687500 0.470971
vt 0.687500 0.341529
vt 0.779029 0.250000
vt 0.908471 0.250000
vt 0.625000 0.312500
vt 0.750000 0.437500
vt 0.625000 0.437500
vt 0.750000 0.062500
vt 0.625000 0.187500
vt 0.625000 0.062500
vt 0.500000 0.562500
vt 0.500000 0.437500
vt 0.625000 0.562500
vt 0.125000 0.875000
vt 0.125000 1.000000
vt 0.625000 0.687500
vt 0.750000 0.687500
vt 0.750000 0.812500
vt 0.625000 0.812500
vt 0.000000 0.062500
vt 0.500000 0.062500
vt 0.500000 0.187500
vt 0.000000 0.187500
vt 0.375000 0.312500
vt 0.375000 0.187500
vt 0.500000 0.312500
vt 0.000000 0.312500
vt 0.000000 0.437500
vt 0.750000 0.312500
vt 0.000000 0.562500
vt 0.500000 0.687500
vt 0.375000 0.687500
vt 0.375000 0.562500
vt 0.125000 0.437500
vt 0.125000 0.562500
vt 0.500000 0.812500
vt 0.000000 0.687500
vt 0.750000 0.875000
vt 0.625000 0.875000
vt 0.625000 0.750000
vt 0.000000 0.812500
vt 0.125000 0.312500
vt 0.125000 0.187500
vt 0.125000 0.750000
vt 0.125000 0.625000
vt 0.625000 0.500000
vt 0.750000 0.500000
vt 0.625000 0.625000
vn 0.630200 -0.297100 -0.717300
vn -0.630200 -0.297100 -0.717300
vn -0.630200 0.297100 -0.717300
vn 0.630200 0.297100 -0.717300
vn -0.630200 0.717300 -0.297100
vn 0.630200 0.717300 -0.297100
vn -0.630200 0.717300 0.297100
vn 0.630200 0.717300 0.297100
vn -0.630200 0.297100 0.717300
vn 0.630200 0.297100 0.717300
vn -0.630200 -0.297100 0.717300
vn 0.630200 -0.297100 0.717300
vn -0.630200 -0.717300 0.297100
vn 0.630200 -0.717300 0.297100
vn 1.000000 0.000000 0.000000
vn 0.630200 -0.717300 -0.297100
vn -0.630200 -0.717300 -0.297100
vn -1.000000 0.000000 0.000000
vn 0.000000 0.000000 -1.000000
vn 0.000000 1.000000 0.000000
vn 0.000000 -1.000000 -0.000000
vn 0.000000 -0.000000 1.000000
g nodebox-3_nodebox-3_paper
s 1
f 1/1/1 2/2/2 4/3/3 3/4/4
f 3/5/4 4/6/3 6/7/5 5/8/6
f 5/8/6 6/7/5 8/9/7 7/10/8
f 7/10/8 8/9/7 10/11/9 9/12/10
f 9/12/10 10/11/9 12/13/11 11/14/12
f 11/14/12 12/13/11 14/15/13 13/16/14
f 1/17/1 3/18/4 50/19/15
f 15/20/16 16/21/17 2/2/2 1/1/1
f 13/16/14 14/15/13 16/21/17 15/20/16
f 4/22/3 2/23/2 49/24/18
f 2/23/2 16/25/17 49/24/18
f 16/25/17 14/26/13 49/24/18
f 14/26/13 12/27/11 49/24/18
f 12/27/11 10/28/9 49/24/18
f 10/28/9 8/29/7 49/24/18
f 8/29/7 6/30/5 49/24/18
f 6/30/5 4/22/3 49/24/18
f 3/18/4 5/31/6 50/19/15
f 5/31/6 7/32/8 50/19/15
f 7/32/8 9/33/10 50/19/15
f 9/33/10 11/34/12 50/19/15
f 11/34/12 13/35/14 50/19/15
f 13/35/14 15/36/16 50/19/15
f 15/36/16 1/17/1 50/19/15
g nodebox-3_nodebox-3_holder
s off
f 27/37/18 31/38/18 28/39/18
f 23/40/18 20/41/18 19/42/18
f 34/43/19 33/44/19 41/39/19 42/45/19
f 45/46/15 46/47/15 48/4/15
f 44/48/20 47/49/20 48/50/20 46/51/20
f 20/52/21 17/53/21 18/54/21 22/55/21
f 24/56/21 23/57/21 19/54/21 21/58/21
f 25/59/20 27/58/20 29/44/20 26/60/20
f 27/58/19 28/37/19 30/39/19 29/44/19
f 31/55/22 23/57/22 24/56/22 32/59/22
f 30/39/20 28/37/20 31/61/20 32/38/20
f 38/62/21 36/60/21 33/44/21 34/43/21
f 19/54/19 20/41/19 22/37/19 21/58/19
f 36/45/19 38/48/19 37/63/19 35/43/19
f 35/43/21 37/63/21 40/64/21 39/65/21
f 32/62/15 29/66/15 30/67/15
f 25/42/19 26/41/19 18/54/19 17/53/19
f 43/63/19 44/48/19 46/51/19 45/68/19
f 48/69/22 47/62/22 39/65/22 40/64/22
f 47/70/18 44/71/18 43/72/18
f 42/73/20 41/69/20 43/63/20 45/68/20
f 31/38/18 20/41/18 23/40/18
f 27/37/18 20/41/18 31/38/18
f 25/74/18 17/75/18 20/41/18
f 27/37/18 25/74/18 20/41/18
f 38/76/15 40/16/15 37/77/15
f 45/46/15 48/4/15 40/16/15
f 45/46/15 40/16/15 38/76/15
f 42/71/15 45/46/15 38/76/15
f 34/72/15 42/71/15 38/76/15
f 21/75/15 22/74/15 24/55/15
f 24/55/15 29/66/15 32/62/15
f 24/55/15 22/74/15 29/66/15
f 22/74/15 18/37/15 26/39/15
f 29/66/15 22/74/15 26/39/15
f 35/78/18 39/79/18 36/80/18
f 39/79/18 47/70/18 36/80/18
f 47/70/18 43/72/18 36/80/18
f 43/72/18 41/76/18 33/77/18
f 36/80/18 43/72/18 33/77/18
