# Blender v2.73 (sub 0) OBJ File: 'bed.blend'
# www.blender.org
o Cube
v -0.500000 -0.375000 1.437500
v -0.500000 -0.375000 -0.437500
v 0.500000 -0.375000 -0.437500
v 0.500000 -0.375000 1.437500
v -0.500000 -0.125000 1.437500
v -0.500000 -0.125000 -0.437500
v 0.500000 -0.125000 -0.437500
v 0.500000 -0.125000 1.437500
v -0.437500 -0.125000 1.437500
v -0.437500 -0.125000 -0.437500
v 0.437500 -0.125000 -0.437500
v 0.437500 -0.125000 1.437500
v 0.375000 -0.500000 -0.437500
v 0.375000 -0.500000 -0.500000
v 0.500000 -0.500000 -0.500000
v 0.500000 -0.500000 -0.437500
v 0.375000 0.187500 -0.437500
v 0.375000 0.187500 -0.500000
v 0.500000 0.187500 -0.500000
v 0.500000 0.187500 -0.437500
v -0.500000 -0.500000 -0.437500
v -0.500000 -0.500000 -0.500000
v -0.375000 -0.500000 -0.500000
v -0.375000 -0.500000 -0.437500
v -0.500000 0.187500 -0.437500
v -0.500000 0.187500 -0.500000
v -0.375000 0.187500 -0.500000
v -0.375000 0.187500 -0.437500
v -0.375000 -0.375000 -0.437500
v -0.375000 -0.375000 -0.500000
v 0.375000 -0.375000 -0.500000
v 0.375000 -0.375000 -0.437500
v -0.375000 -0.125000 -0.437500
v -0.375000 -0.125000 -0.500000
v 0.375000 -0.125000 -0.500000
v 0.375000 -0.125000 -0.437500
v -0.375000 0.000000 -0.437500
v -0.375000 0.000000 -0.500000
v 0.375000 0.000000 -0.500000
v 0.375000 0.000000 -0.437500
v -0.375000 0.125000 -0.437500
v -0.375000 0.125000 -0.500000
v 0.375000 0.125000 -0.500000
v 0.375000 0.125000 -0.437500
v 0.375000 -0.500000 1.437500
v 0.375000 -0.500000 1.500000
v 0.500000 -0.500000 1.500000
v 0.500000 -0.500000 1.437500
v 0.375000 0.500000 1.437500
v 0.375000 0.500000 1.500000
v 0.500000 0.500000 1.500000
v 0.500000 0.500000 1.437500
v -0.500000 -0.500000 1.437500
v -0.500000 -0.500000 1.500000
v -0.375000 -0.500000 1.500000
v -0.375000 -0.500000 1.437500
v -0.500000 0.500000 1.437500
v -0.500000 0.500000 1.500000
v -0.375000 0.500000 1.500000
v -0.375000 0.500000 1.437500
v -0.375000 -0.375000 1.437500
v -0.375000 -0.375000 1.500000
v 0.375000 -0.375000 1.500000
v 0.375000 -0.375000 1.437500
v -0.375000 -0.125000 1.437500
v -0.375000 -0.125000 1.500000
v 0.375000 -0.125000 1.500000
v 0.375000 -0.125000 1.437500
v -0.375000 -0.062500 1.437500
v -0.375000 -0.062500 1.500000
v 0.375000 -0.062500 1.500000
v 0.375000 -0.062500 1.437500
v -0.375000 0.187500 1.437500
v -0.375000 0.187500 1.500000
v 0.375000 0.187500 1.500000
v 0.375000 0.187500 1.437500
v -0.375000 0.250000 1.437500
v -0.375000 0.250000 1.500000
v 0.375000 0.250000 1.500000
v 0.375000 0.250000 1.437500
v -0.375000 0.437500 1.437500
v -0.375000 0.437500 1.500000
v 0.375000 0.437500 1.500000
v 0.375000 0.437500 1.437500
v -0.500000 -0.125000 0.500000
v -0.500000 -0.375000 0.500000
v 0.500000 -0.125000 0.500000
v 0.500000 -0.375000 0.500000
v -0.437500 -0.125000 0.500000
v 0.437500 -0.125000 0.500000
v -0.437500 -0.375000 0.500000
v -0.437500 -0.375000 1.437500
v -0.437500 -0.078125 1.437500
v -0.437500 -0.078125 -0.437500
v 0.437500 -0.078125 -0.437500
v 0.437500 -0.078125 1.437500
v -0.406250 -0.046875 1.437500
v -0.406250 -0.046875 -0.437500
v 0.406250 -0.046875 -0.437500
v 0.406250 -0.046875 1.437500
v -0.312500 -0.046875 1.437500
v -0.312500 -0.046875 1.062500
v 0.312500 -0.046875 1.062500
v 0.312500 -0.046875 1.437500
v -0.406250 -0.046875 0.500000
v -0.437500 -0.078125 0.500000
v 0.406250 -0.046875 0.500000
v 0.437500 -0.078125 0.500000
v -0.312500 -0.031250 1.437500
v -0.312500 -0.031250 1.062500
v 0.312500 -0.031250 1.062500
v 0.312500 -0.031250 1.437500
v -0.250000 0.031250 1.375000
v -0.250000 0.031250 1.125000
v 0.250000 0.031250 1.125000
v 0.250000 0.031250 1.375000
v 0.437500 -0.375000 1.437500
v 0.437500 -0.375000 0.500000
v -0.437500 -0.375000 1.375000
v 0.437500 -0.375000 1.375000
v -0.437500 -0.375000 -0.375000
v 0.437500 -0.375000 -0.375000
v -0.437500 -0.312500 1.375000
v 0.437500 -0.312500 1.375000
v -0.437500 -0.312500 -0.375000
v 0.437500 -0.312500 -0.375000
v -0.437500 -0.125000 1.000000
v 0.437500 -0.125000 1.000000
v -0.437500 -0.078125 1.000000
v 0.406250 -0.046875 1.000000
v -0.406250 -0.046875 1.000000
v 0.437500 -0.078125 1.000000
v -0.437500 -0.312500 0.500000
v 0.437500 -0.312500 0.500000
v -0.500000 -0.375000 -0.437500
v 0.500000 -0.375000 -0.437500
v -0.500000 -0.375000 0.500000
v 0.500000 -0.375000 0.500000
v -0.437500 -0.375000 0.500000
v -0.437500 -0.375000 -0.437500
v 0.437500 -0.375000 -0.437500
v 0.437500 -0.375000 0.500000
v -0.437500 -0.375000 -0.375000
v 0.437500 -0.375000 -0.375000
vt 1.000000 0.250000
vt 0.062500 0.250000
vt 0.062500 -0.000000
vt 1.000000 -0.000000
vt 0.937500 1.000000
vt 0.000000 1.000000
vt 0.000000 0.937500
vt 0.937500 0.937500
vt 0.437500 1.000000
vt -0.000000 0.000000
vt 0.062500 0.937500
vt 0.937500 0.250000
vt -0.000000 0.250000
vt 0.937500 0.000000
vt 1.000000 0.937500
vt 0.062500 0.875000
vt 0.937500 0.875000
vt 0.062500 0.062500
vt 0.937500 0.062500
vt 0.437500 0.937500
vt 0.000000 0.062500
vt 1.000000 0.062500
vt 0.875000 1.000000
vt 0.875000 0.000000
vt 1.000000 1.000000
vt 0.062500 0.687500
vt -0.000000 0.687500
vt 0.125000 0.687500
vt 0.125000 -0.000000
vt 1.000000 0.687500
vt 0.937500 0.687500
vt 0.875000 0.687500
vt 0.875000 0.062500
vt 0.875000 0.937500
vt 0.125000 0.062500
vt 0.125000 0.937500
vt 0.125000 1.000000
vt 0.875000 0.625000
vt 0.125000 0.625000
vt 0.125000 0.500000
vt 0.875000 0.500000
vt 0.875000 0.375000
vt 0.125000 0.375000
vt 0.125000 0.125000
vt 0.875000 0.125000
vt 0.062500 1.000000
vt 0.125000 0.437500
vt 0.875000 0.437500
vt 0.125000 0.750000
vt 0.875000 0.750000
vt 0.000000 0.437500
vt 0.062500 0.437500
vt 0.937500 0.437500
vt 0.906250 0.093750
vt 0.093750 0.093750
vt 0.906250 0.000000
vt 0.906250 0.437500
vt 0.093750 0.437500
vt 0.093750 0.000000
vt 1.000000 0.437500
vt -0.000000 0.562500
vt 0.062500 0.562500
vt 0.093750 1.000000
vt 0.093750 0.062500
vt 0.906250 0.062500
vt 0.906250 1.000000
vt 0.093750 0.562500
vt 0.906250 0.562500
vt 0.875000 0.562500
vt 0.937500 0.562500
vt 0.125000 0.562500
vt 1.000000 0.562500
vt 0.250000 0.125000
vt 0.250000 0.375000
vt 0.187500 0.437500
vt 0.187500 0.062500
vt 0.750000 0.375000
vt 0.812500 0.437500
vt 0.750000 0.125000
vt 0.812500 0.062500
vt 0.812500 0.500000
vt 0.187500 0.500000
vn -1.000000 0.000000 0.000000
vn 1.000000 0.000000 0.000000
vn 0.000000 1.000000 0.000000
vn 0.000000 -1.000000 0.000000
vn 0.000000 0.000000 -1.000000
vn 0.000000 0.000000 1.000000
vn 0.707100 0.707100 0.000000
vn -0.707100 0.707100 0.000000
vn 0.000000 0.707100 -0.707100
vn 0.000000 0.707100 0.707100
g Cube_Cube_frame-metal
s off
f 85/1/1 6/2/1 2/3/1 86/4/1
f 87/1/2 8/2/2 4/3/2 88/4/2
f 11/5/3 90/6/3 87/7/3 7/8/3
f 87/8/3 90/5/3 128/9/3 12/6/3 8/7/3
f 1/7/4 86/10/4 91/3/4 92/11/4
f 7/12/2 87/13/2 88/10/2 3/14/2
f 5/12/1 85/13/1 86/10/1 1/14/1
f 88/4/4 4/15/4 117/8/4 118/14/4
f 119/16/3 92/11/3 117/8/3 120/17/3
f 121/3/5 125/18/5 126/19/5 122/14/5
f 120/14/6 124/19/6 123/18/6 119/3/6
f 85/6/3 89/7/3 10/8/3 6/5/3
f 89/8/3 85/5/3 5/6/3 9/7/3 127/20/3
f 133/19/1 91/14/1 119/10/1 123/21/1
f 118/14/2 134/19/2 124/21/2 120/10/2
f 122/4/2 126/22/2 134/18/2 118/3/2
f 125/22/1 121/4/1 91/3/1 133/18/1
f 137/7/4 135/10/4 140/3/4 139/11/4
f 136/4/4 138/15/4 142/8/4 141/14/4
f 143/18/4 140/3/4 141/14/4 144/19/4
g Cube_Cube_head-foot-wood
f 50/23/6 46/24/6 47/4/6 51/25/6
f 17/26/1 18/27/1 14/10/1 13/3/1
f 18/28/5 19/27/5 15/10/5 14/29/5
f 19/30/2 20/31/2 16/14/2 15/4/2
f 20/30/6 17/32/6 13/24/6 16/4/6
f 13/33/4 14/24/4 15/4/4 16/22/4
f 20/15/3 19/25/3 18/23/3 17/34/3
f 25/26/1 26/27/1 22/10/1 21/3/1
f 26/30/5 27/32/5 23/24/5 22/4/5
f 27/30/2 28/31/2 24/14/2 23/4/2
f 28/28/6 25/27/6 21/10/6 24/29/6
f 21/21/4 22/10/4 23/29/4 24/35/4
f 28/36/3 27/37/3 26/6/3 25/7/3
f 44/38/6 41/39/6 37/40/6 40/41/6
f 34/42/5 35/43/5 31/44/5 30/45/5
f 42/38/5 43/39/5 39/40/5 38/41/5
f 49/5/1 45/14/1 46/4/1 50/25/1
f 29/35/4 30/29/4 31/24/4 32/33/4
f 36/34/3 35/23/3 34/37/3 33/36/3
f 37/35/4 38/29/4 39/24/4 40/33/4
f 44/34/3 43/23/3 42/37/3 41/36/3
f 51/6/2 47/10/2 48/3/2 52/46/2
f 52/6/5 48/10/5 45/29/5 49/37/5
f 45/34/4 48/15/4 47/25/4 46/23/4
f 52/22/3 49/33/3 50/24/3 51/4/3
f 57/5/1 53/14/1 54/4/1 58/25/1
f 58/6/6 54/10/6 55/29/6 59/37/6
f 59/6/2 55/10/2 56/3/2 60/46/2
f 60/23/5 56/24/5 53/4/5 57/25/5
f 53/7/4 56/36/4 55/37/4 54/6/4
f 60/35/3 57/21/3 58/10/3 59/29/3
f 76/28/5 72/47/5 69/48/5 73/32/5
f 66/43/6 62/44/6 63/45/6 67/42/6
f 74/28/6 70/47/6 71/48/6 75/32/6
f 61/36/4 64/34/4 63/23/4 62/37/4
f 68/33/3 65/35/3 66/29/3 67/24/3
f 69/36/4 72/34/4 71/23/4 70/37/4
f 76/33/3 73/35/3 74/29/3 75/24/3
f 84/36/5 80/49/5 77/50/5 81/34/5
f 82/36/6 78/49/6 79/50/6 83/34/6
f 77/36/4 80/34/4 79/23/4 78/37/4
f 84/33/3 81/35/3 82/29/3 83/24/3
g Cube_Cube_white-wool
f 127/51/1 9/10/1 93/3/1 129/52/1
f 9/3/6 12/14/6 96/19/6 93/18/6
f 130/48/7 100/24/7 96/14/7 132/53/7
f 100/54/6 97/55/6 93/18/6 96/19/6
f 97/29/8 131/47/8 129/52/8 93/3/8
f 100/56/3 130/57/3 131/58/3 97/59/3
f 12/4/2 128/60/2 132/53/2 96/14/2
g Cube_Cube_colored-wool
f 11/3/5 10/14/5 94/19/5 95/18/5
f 90/6/2 11/21/2 95/18/2 108/46/2
f 10/22/1 89/25/1 106/5/1 94/19/1
f 128/61/2 90/21/2 108/18/2 132/62/2
f 105/23/8 98/33/8 94/19/8 106/5/8
f 107/63/3 99/64/3 98/65/3 105/66/3
f 130/67/3 107/64/3 105/65/3 131/68/3
f 99/35/7 107/37/7 108/46/7 95/18/7
f 131/69/8 105/33/8 106/19/8 129/70/8
f 107/35/7 130/71/7 132/62/7 108/18/7
f 89/22/1 127/72/1 129/70/1 106/19/1
f 94/19/5 98/54/5 99/55/5 95/18/5
g Cube_Cube_bottom-stuff
f 134/5/3 126/19/3 125/18/3 133/46/3
f 124/8/3 134/14/3 133/3/3 123/11/3
g Cube_Cube_pillow
f 113/73/8 114/74/8 110/75/8 109/76/8
f 114/74/9 115/77/9 111/78/9 110/75/9
f 115/77/7 116/79/7 112/80/7 111/78/7
f 116/79/3 115/77/3 114/74/3 113/73/3
f 109/76/10 112/80/10 116/79/10 113/73/10
f 104/76/2 103/75/2 111/47/2 112/35/2
f 103/75/5 102/78/5 110/81/5 111/82/5
f 102/78/1 101/80/1 109/33/1 110/48/1
