# Blender v2.73 (sub 0) OBJ File: 'windowblind-wide.blend'
# www.blender.org
o Cube
v 0.433594 0.375000 0.429688
v 0.433594 0.375000 0.433594
v 0.437500 0.375000 0.433594
v 0.437500 0.375000 0.429688
v 0.433594 -0.464844 0.429688
v 0.433594 -0.464844 0.433594
v 0.437500 -0.464844 0.433594
v 0.437500 -0.464844 0.429688
v 0.500000 0.375000 0.371094
v 0.500000 0.375000 0.500000
v -0.500000 0.375000 0.500000
v -0.500000 0.375000 0.371094
v 0.500000 0.500000 0.371094
v 0.500000 0.500000 0.500000
v -0.500000 0.500000 0.500000
v -0.500000 0.500000 0.371094
v 0.500000 0.328989 0.380058
v 0.500000 0.361341 0.500799
v -0.500000 0.361341 0.500799
v -0.500000 0.328989 0.380059
v 0.500000 0.336535 0.378036
v 0.500000 0.368888 0.498777
v -0.500000 0.368888 0.498777
v -0.500000 0.336535 0.378036
v -0.500000 -0.452857 0.366944
v -0.500000 -0.420505 0.487685
v 0.500000 -0.420505 0.487685
v 0.500000 -0.452857 0.366944
v -0.500000 -0.498135 0.379077
v -0.500000 -0.465783 0.499817
v 0.500000 -0.465783 0.499817
v 0.500000 -0.498135 0.379077
v 0.464844 0.382812 0.324219
v 0.464844 0.382812 0.371094
v 0.417969 0.382812 0.371094
v 0.417969 0.382812 0.324219
v 0.464844 0.429688 0.324219
v 0.464844 0.429688 0.371094
v 0.417969 0.429688 0.371094
v 0.417969 0.429688 0.324219
v 0.445312 -0.429688 0.343750
v 0.445312 -0.429688 0.351562
v 0.437500 -0.429688 0.351562
v 0.437500 -0.429688 0.343750
v 0.445312 0.382812 0.343750
v 0.445312 0.382812 0.351562
v 0.437500 0.382812 0.351562
v 0.437500 0.382812 0.343750
v -0.439037 -0.454786 0.402725
v -0.429168 -0.421875 0.367188
v -0.429168 -0.421875 0.371094
v -0.433074 -0.421875 0.371094
v -0.433074 -0.421875 0.367188
v -0.421875 0.394531 0.367188
v -0.421875 0.394531 0.371094
v -0.425781 0.394531 0.371094
v -0.425781 0.394531 0.367188
v -0.421875 0.410156 0.371094
v -0.421875 0.410156 0.375000
v -0.425781 0.410156 0.375000
v -0.425781 0.410156 0.371094
v -0.424871 -0.421875 0.362891
v -0.424871 -0.421875 0.375391
v -0.437371 -0.421875 0.375391
v -0.437371 -0.421875 0.362891
v -0.424871 -0.449219 0.362891
v -0.424871 -0.449219 0.375391
v -0.437371 -0.449219 0.375391
v -0.437371 -0.449219 0.362891
v -0.423412 -0.454786 0.402725
v 0.500000 0.266489 0.380058
v 0.500000 0.298841 0.500799
v -0.500000 0.298841 0.500799
v -0.500000 0.266489 0.380059
v 0.500000 0.274035 0.378036
v 0.500000 0.306388 0.498777
v -0.500000 0.306388 0.498777
v -0.500000 0.274035 0.378036
v 0.500000 0.203989 0.380058
v 0.500000 0.236341 0.500799
v -0.500000 0.236341 0.500799
v -0.500000 0.203989 0.380059
v 0.500000 0.211535 0.378036
v 0.500000 0.243888 0.498777
v -0.500000 0.243888 0.498777
v -0.500000 0.211535 0.378036
v 0.500000 0.141489 0.380058
v 0.500000 0.173841 0.500799
v -0.500000 0.173841 0.500799
v -0.500000 0.141489 0.380059
v 0.500000 0.149035 0.378036
v 0.500000 0.181388 0.498777
v -0.500000 0.181388 0.498777
v -0.500000 0.149035 0.378036
v 0.500000 0.078989 0.380058
v 0.500000 0.111341 0.500799
v -0.500000 0.111341 0.500799
v -0.500000 0.078989 0.380059
v 0.500000 0.086535 0.378036
v 0.500000 0.118888 0.498777
v -0.500000 0.118888 0.498777
v -0.500000 0.086535 0.378036
v 0.500000 0.016489 0.380058
v 0.500000 0.048841 0.500799
v -0.500000 0.048841 0.500799
v -0.500000 0.016489 0.380059
v 0.500000 0.024035 0.378036
v 0.500000 0.056388 0.498777
v -0.500000 0.056388 0.498777
v -0.500000 0.024035 0.378036
v 0.500000 -0.046011 0.380058
v 0.500000 -0.013659 0.500799
v -0.500000 -0.013659 0.500799
v -0.500000 -0.046011 0.380059
v 0.500000 -0.038465 0.378036
v 0.500000 -0.006112 0.498777
v -0.500000 -0.006112 0.498777
v -0.500000 -0.038465 0.378036
v 0.500000 -0.108511 0.380058
v 0.500000 -0.076159 0.500799
v -0.500000 -0.076159 0.500799
v -0.500000 -0.108511 0.380059
v 0.500000 -0.100965 0.378036
v 0.500000 -0.068612 0.498777
v -0.500000 -0.068612 0.498777
v -0.500000 -0.100965 0.378036
v 0.500000 -0.171011 0.380058
v 0.500000 -0.138659 0.500799
v -0.500000 -0.138659 0.500799
v -0.500000 -0.171011 0.380059
v 0.500000 -0.163465 0.378036
v 0.500000 -0.131112 0.498777
v -0.500000 -0.131112 0.498777
v -0.500000 -0.163465 0.378036
v 0.500000 -0.233511 0.380058
v 0.500000 -0.201159 0.500799
v -0.500000 -0.201159 0.500799
v -0.500000 -0.233511 0.380059
v 0.500000 -0.225965 0.378036
v 0.500000 -0.193612 0.498777
v -0.500000 -0.193612 0.498777
v -0.500000 -0.225965 0.378036
v 0.500000 -0.296011 0.380058
v 0.500000 -0.263659 0.500799
v -0.500000 -0.263659 0.500799
v -0.500000 -0.296011 0.380059
v 0.500000 -0.288465 0.378036
v 0.500000 -0.256112 0.498777
v -0.500000 -0.256112 0.498777
v -0.500000 -0.288465 0.378036
v 0.500000 -0.358511 0.380058
v 0.500000 -0.326159 0.500799
v -0.500000 -0.326159 0.500799
v -0.500000 -0.358511 0.380059
v 0.500000 -0.350965 0.378036
v 0.500000 -0.318612 0.498777
v -0.500000 -0.318612 0.498777
v -0.500000 -0.350965 0.378036
v 0.500000 -0.421011 0.380058
v 0.500000 -0.388659 0.500799
v -0.500000 -0.388659 0.500799
v -0.500000 -0.421011 0.380059
v 0.500000 -0.413465 0.378036
v 0.500000 -0.381112 0.498777
v -0.500000 -0.381112 0.498777
v -0.500000 -0.413465 0.378036
v -0.001953 0.375000 0.464844
v -0.001953 0.375000 0.468750
v 0.001954 0.375000 0.468750
v 0.001954 0.375000 0.464844
v -0.001953 -0.464844 0.464844
v -0.001953 -0.464844 0.468750
v 0.001954 -0.464844 0.468750
v 0.001954 -0.464844 0.464844
v -0.413543 -0.421875 0.367188
v -0.413543 -0.421875 0.371094
v -0.417449 -0.421875 0.371094
v -0.417449 -0.421875 0.367188
v -0.417993 0.394531 0.367188
v -0.417993 0.394531 0.371094
v -0.421899 0.394531 0.371094
v -0.421899 0.394531 0.367188
v -0.417993 0.410156 0.371094
v -0.417993 0.410156 0.375000
v -0.421899 0.410156 0.375000
v -0.421899 0.410156 0.371094
v -0.409246 -0.421875 0.362891
v -0.409246 -0.421875 0.375391
v -0.421746 -0.421875 0.375391
v -0.421746 -0.421875 0.362891
v -0.409246 -0.449219 0.362891
v -0.409246 -0.449219 0.375391
v -0.421746 -0.449219 0.375391
v -0.421746 -0.449219 0.362891
v -0.437500 0.375000 0.429688
v -0.437500 0.375000 0.433594
v -0.433594 0.375000 0.433594
v -0.433594 0.375000 0.429688
v -0.437500 -0.464844 0.429688
v -0.437500 -0.464844 0.433594
v -0.433594 -0.464844 0.433594
v -0.433594 -0.464844 0.429688
vt -0.000000 0.625000
vt -0.000000 0.562500
vt 1.000000 0.562500
vt 1.000000 0.625000
vt 1.000000 0.437500
vt 1.000000 0.500000
vt -0.000000 0.500000
vt -0.000000 0.437500
vt -0.000000 0.687500
vt 1.000000 0.687500
vt 0.937500 0.937500
vt 0.937500 1.000000
vt 0.000000 1.000000
vt 0.000000 0.937500
vt 0.937500 0.750000
vt 0.937500 0.812500
vt 0.000000 0.812500
vt 0.000000 0.750000
vt 0.937500 0.875000
vt 0.000000 0.875000
vt 1.000000 0.875000
vt 1.000000 0.937500
vt 0.250000 0.312500
vt 0.250000 0.187500
vt 0.312500 0.187500
vt 0.312500 0.312500
vt 1.000000 0.812500
vt 1.000000 0.750000
vt 1.000000 1.000000
vt 0.125000 0.312500
vt 0.125000 0.187500
vt 0.187500 0.187500
vt 0.187500 0.312500
vt 0.062500 0.312500
vt 0.062500 0.187500
vt 0.250000 0.375000
vt 0.187500 0.375000
vt 0.125000 0.375000
vt 0.062500 0.562500
vt 0.062500 0.687500
vt 0.937500 0.687500
vt 0.937500 0.562500
vt 0.937500 0.250000
vt 1.000000 0.250000
vt 1.000000 0.312500
vt 0.937500 0.312500
vt 0.000000 0.250000
vt 0.062500 0.250000
vt 0.000000 0.312500
vt 1.000000 0.187500
vt 0.000000 0.187500
vt 0.000000 0.125000
vt 1.000000 0.125000
vt 0.312500 0.625000
vt 0.312500 0.562500
vt 0.375000 0.562500
vt 0.375000 0.625000
vt 0.250000 0.625000
vt 0.250000 0.562500
vt 0.375000 0.687500
vt 0.312500 0.687500
vt 0.250000 0.687500
vt 0.437500 0.625000
vt 0.437500 0.687500
vt 1.000000 0.375000
vt 0.000000 0.375000
vt 0.125000 0.625000
vt 0.125000 0.562500
vt 0.187500 0.562500
vt 0.187500 0.625000
vt -0.000000 -0.000000
vt 1.000000 -0.000000
vt 0.937500 0.375000
vt 0.062500 0.375000
vn 0.000000 0.000000 -1.000000
vn -1.000000 0.000000 0.000000
vn 0.000000 0.000000 1.000000
vn 1.000000 0.000000 0.000000
vn 1.000000 -0.008900 0.000000
vn -1.000000 0.008900 0.000000
vn 0.000000 0.242500 -0.970100
vn 0.000000 -0.242500 0.970100
vn 0.000000 1.000000 0.000000
vn 0.000000 -1.000000 0.000000
vn 1.000000 0.005500 0.000000
vn -1.000000 -0.005500 0.000000
vn -0.000000 -0.258800 -0.965900
vn 0.000000 -0.965900 0.258800
vn -0.000000 0.965900 -0.258800
vn 0.000000 0.258800 0.965900
g Cube_Cube_strings
s off
f 1/1/1 4/2/1 8/3/1 5/4/1
f 2/5/2 1/6/2 5/7/2 6/8/2
f 3/9/3 2/1/3 6/4/3 7/10/3
f 4/6/4 3/3/4 7/2/4 8/7/4
f 54/11/5 55/12/5 51/13/5 50/14/5
f 55/15/3 56/16/3 52/17/3 51/18/3
f 56/16/6 57/19/6 53/20/6 52/17/6
f 57/19/1 54/11/1 50/14/1 53/20/1
f 54/11/7 57/19/7 61/21/7 58/22/7
f 66/23/4 62/24/4 63/25/4 67/26/4
f 57/19/2 56/16/2 60/27/2 61/21/2
f 56/16/8 55/15/8 59/28/8 60/27/8
f 55/12/4 54/11/4 58/22/4 59/29/4
f 67/30/3 63/31/3 64/32/3 68/33/3
f 68/34/2 64/35/2 65/31/2 69/30/2
f 69/33/1 65/32/1 62/24/1 66/23/1
f 62/33/9 65/23/9 64/36/9 63/37/9
f 69/37/10 66/38/10 67/30/10 68/33/10
f 167/1/1 170/2/1 174/3/1 171/4/1
f 168/5/2 167/6/2 171/7/2 172/8/2
f 169/9/3 168/1/3 172/4/3 173/10/3
f 170/6/4 169/3/4 173/2/4 174/7/4
f 179/11/11 180/12/11 176/13/11 175/14/11
f 180/15/3 181/16/3 177/17/3 176/18/3
f 181/16/12 182/19/12 178/20/12 177/17/12
f 182/19/1 179/11/1 175/14/1 178/20/1
f 179/11/7 182/19/7 186/21/7 183/22/7
f 191/23/4 187/24/4 188/25/4 192/26/4
f 182/19/2 181/16/2 185/27/2 186/21/2
f 181/16/8 180/15/8 184/28/8 185/27/8
f 180/12/4 179/11/4 183/22/4 184/29/4
f 192/30/3 188/31/3 189/32/3 193/33/3
f 193/34/2 189/35/2 190/31/2 194/30/2
f 194/33/1 190/32/1 187/24/1 191/23/1
f 187/33/9 190/23/9 189/36/9 188/37/9
f 194/37/10 191/38/10 192/30/10 193/33/10
f 195/1/1 198/2/1 202/3/1 199/4/1
f 196/5/2 195/6/2 199/7/2 200/8/2
f 197/9/3 196/1/3 200/4/3 201/10/3
f 198/6/4 197/3/4 201/2/4 202/7/4
g Cube_Cube_plastic
f 13/39/4 14/40/4 10/9/4 9/2/4
f 15/3/2 16/10/2 12/41/2 11/42/2
f 16/29/1 13/13/1 9/20/1 12/21/1
f 9/13/10 10/20/10 11/21/10 12/29/10
f 16/21/9 15/29/9 14/13/9 13/20/9
f 21/43/4 22/44/4 18/45/4 17/46/4
f 23/47/2 24/48/2 20/34/2 19/49/2
f 24/50/13 21/51/13 17/52/13 20/53/13
f 17/17/14 18/9/14 19/10/14 20/27/14
f 24/3/15 23/10/15 22/9/15 21/2/15
f 18/47/16 22/51/16 23/50/16 19/44/16
f 10/20/3 14/18/3 15/28/3 11/21/3
f 37/54/4 38/55/4 34/56/4 33/57/4
f 39/58/2 40/59/2 36/55/2 35/54/2
f 40/54/1 37/57/1 33/60/1 36/61/1
f 33/62/10 34/58/10 35/54/10 36/61/10
f 40/63/9 39/64/9 38/60/9 37/57/9
f 45/2/4 46/7/4 42/6/4 41/3/4
f 46/7/3 47/8/3 43/5/3 42/6/3
f 47/45/2 48/65/2 44/66/2 43/49/2
f 48/8/1 45/66/1 41/65/1 44/5/1
f 41/67/10 42/68/10 43/69/10 44/70/10
f 32/52/14 31/71/14 30/72/14 29/53/14
f 25/65/13 28/66/13 32/47/13 29/44/13
f 26/65/2 25/73/2 29/43/2 30/44/2
f 28/74/4 27/66/4 31/47/4 32/48/4
f 25/53/15 26/44/15 27/47/15 28/52/15
f 31/7/16 27/66/16 26/65/16 30/6/16
f 75/43/4 76/44/4 72/45/4 71/46/4
f 77/47/2 78/48/2 74/34/2 73/49/2
f 78/50/13 75/51/13 71/52/13 74/53/13
f 71/17/14 72/9/14 73/10/14 74/27/14
f 78/3/15 77/10/15 76/9/15 75/2/15
f 83/43/4 84/44/4 80/45/4 79/46/4
f 85/47/2 86/48/2 82/34/2 81/49/2
f 86/50/13 83/51/13 79/52/13 82/53/13
f 79/17/14 80/9/14 81/10/14 82/27/14
f 86/3/15 85/10/15 84/9/15 83/2/15
f 91/43/4 92/44/4 88/45/4 87/46/4
f 93/47/2 94/48/2 90/34/2 89/49/2
f 94/50/13 91/51/13 87/52/13 90/53/13
f 87/17/14 88/9/14 89/10/14 90/27/14
f 94/3/15 93/10/15 92/9/15 91/2/15
f 99/43/4 100/44/4 96/45/4 95/46/4
f 101/47/2 102/48/2 98/34/2 97/49/2
f 102/50/13 99/51/13 95/52/13 98/53/13
f 95/17/14 96/9/14 97/10/14 98/27/14
f 102/3/15 101/10/15 100/9/15 99/2/15
f 107/43/4 108/44/4 104/45/4 103/46/4
f 109/47/2 110/48/2 106/34/2 105/49/2
f 110/50/13 107/51/13 103/52/13 106/53/13
f 103/17/14 104/9/14 105/10/14 106/27/14
f 110/3/15 109/10/15 108/9/15 107/2/15
f 115/43/4 116/44/4 112/45/4 111/46/4
f 117/47/2 118/48/2 114/34/2 113/49/2
f 118/50/13 115/51/13 111/52/13 114/53/13
f 111/17/14 112/9/14 113/10/14 114/27/14
f 118/3/15 117/10/15 116/9/15 115/2/15
f 123/43/4 124/44/4 120/45/4 119/46/4
f 125/47/2 126/48/2 122/34/2 121/49/2
f 126/50/13 123/51/13 119/52/13 122/53/13
f 119/17/14 120/9/14 121/10/14 122/27/14
f 126/3/15 125/10/15 124/9/15 123/2/15
f 131/43/4 132/44/4 128/45/4 127/46/4
f 133/47/2 134/48/2 130/34/2 129/49/2
f 134/50/13 131/51/13 127/52/13 130/53/13
f 127/17/14 128/9/14 129/10/14 130/27/14
f 134/3/15 133/10/15 132/9/15 131/2/15
f 139/43/4 140/44/4 136/45/4 135/46/4
f 141/47/2 142/48/2 138/34/2 137/49/2
f 142/50/13 139/51/13 135/52/13 138/53/13
f 135/17/14 136/9/14 137/10/14 138/27/14
f 142/3/15 141/10/15 140/9/15 139/2/15
f 147/43/4 148/44/4 144/45/4 143/46/4
f 149/47/2 150/48/2 146/34/2 145/49/2
f 150/50/13 147/51/13 143/52/13 146/53/13
f 143/17/14 144/9/14 145/10/14 146/27/14
f 150/3/15 149/10/15 148/9/15 147/2/15
f 155/43/4 156/44/4 152/45/4 151/46/4
f 157/47/2 158/48/2 154/34/2 153/49/2
f 158/50/13 155/51/13 151/52/13 154/53/13
f 151/17/14 152/9/14 153/10/14 154/27/14
f 158/3/15 157/10/15 156/9/15 155/2/15
f 163/43/4 164/44/4 160/45/4 159/46/4
f 165/47/2 166/48/2 162/34/2 161/49/2
f 166/50/13 163/51/13 159/52/13 162/53/13
f 159/17/14 160/9/14 161/10/14 162/27/14
f 166/3/15 165/10/15 164/9/15 163/2/15
