<?xml version="1.0" encoding="UTF-8" standalone="no"?>
<!-- Created with Inkscape (http://www.inkscape.org/) -->

<svg
   xmlns:dc="http://purl.org/dc/elements/1.1/"
   xmlns:cc="http://creativecommons.org/ns#"
   xmlns:rdf="http://www.w3.org/1999/02/22-rdf-syntax-ns#"
   xmlns:svg="http://www.w3.org/2000/svg"
   xmlns="http://www.w3.org/2000/svg"
   xmlns:sodipodi="http://sodipodi.sourceforge.net/DTD/sodipodi-0.dtd"
   xmlns:inkscape="http://www.inkscape.org/namespaces/inkscape"
   width="1080"
   height="1080"
   id="svg2"
   version="1.1"
   inkscape:version="0.48.5 r10040"
   sodipodi:docname="mffnewconc2?.svg"
   inkscape:export-filename="/home/robin/Documents/mffnewconc9?.png"
   inkscape:export-xdpi="90"
   inkscape:export-ydpi="90">
  <defs
     id="defs4">
    <inkscape:perspective
       sodipodi:type="inkscape:persp3d"
       inkscape:vp_x="260 : 540 : 1"
       inkscape:vp_y="0 : 1000 : 0"
       inkscape:vp_z="820 : 541.42857 : 1"
       inkscape:persp3d-origin="540 : 360 : 1"
       id="perspective3815" />
    <inkscape:perspective
       sodipodi:type="inkscape:persp3d"
       inkscape:vp_x="220.16209 : 539.34384 : 1"
       inkscape:vp_y="0 : 1147.5441 : 0"
       inkscape:vp_z="859.51372 : 540.98317 : 1"
       inkscape:persp3d-origin="539.83791 : 332.78589 : 1"
       id="perspective3815-8" />
    <inkscape:perspective
       sodipodi:type="inkscape:persp3d"
       inkscape:vp_x="260.14183 : 540.00001 : 1"
       inkscape:vp_y="0 : 999.99996 : 0"
       inkscape:vp_z="819.5745 : 541.42856 : 1"
       inkscape:persp3d-origin="539.85817 : 360 : 1"
       id="perspective3815-8-7" />
    <inkscape:perspective
       sodipodi:type="inkscape:persp3d"
       inkscape:vp_x="300.12157 : 540.00002 : 1"
       inkscape:vp_y="0 : 857.14285 : 0"
       inkscape:vp_z="779.63528 : 541.22449 : 1"
       inkscape:persp3d-origin="539.87843 : 385.71429 : 1"
       id="perspective3815-8-7-0" />
    <inkscape:perspective
       sodipodi:type="inkscape:persp3d"
       inkscape:vp_x="340.10131 : 540.00001 : 1"
       inkscape:vp_y="0 : 714.28573 : 0"
       inkscape:vp_z="739.69607 : 541.02041 : 1"
       inkscape:persp3d-origin="539.89869 : 411.42857 : 1"
       id="perspective3815-8-7-0-6" />
    <inkscape:perspective
       sodipodi:type="inkscape:persp3d"
       inkscape:vp_x="420.06078 : 540.00001 : 1"
       inkscape:vp_y="0 : 428.57144 : 0"
       inkscape:vp_z="659.81765 : 540.61225 : 1"
       inkscape:persp3d-origin="539.93922 : 462.85714 : 1"
       id="perspective3815-8-7-0-6-3" />
    <inkscape:perspective
       sodipodi:type="inkscape:persp3d"
       inkscape:vp_x="240.16209 : 679.34384 : 1"
       inkscape:vp_y="0 : 1147.5441 : 0"
       inkscape:vp_z="879.51372 : 680.98317 : 1"
       inkscape:persp3d-origin="559.83791 : 472.78589 : 1"
       id="perspective3815-8-0" />
    <inkscape:perspective
       sodipodi:type="inkscape:persp3d"
       inkscape:vp_x="20.263402 : 540 : 1"
       inkscape:vp_y="0 : 1857.1429 : 0"
       inkscape:vp_z="1059.2098 : 542.65302 : 1"
       inkscape:persp3d-origin="539.7366 : 205.71429 : 1"
       id="perspective3815-8-8" />
  </defs>
  <sodipodi:namedview
     id="base"
     pagecolor="#ffffff"
     bordercolor="#666666"
     borderopacity="1.0"
     inkscape:pageopacity="0.0"
     inkscape:pageshadow="2"
     inkscape:zoom="0.5"
     inkscape:cx="529.95296"
     inkscape:cy="538.9772"
     inkscape:document-units="px"
     inkscape:current-layer="layer1"
     showgrid="true"
     showguides="true"
     inkscape:guide-bbox="true"
     inkscape:window-width="1280"
     inkscape:window-height="734"
     inkscape:window-x="0"
     inkscape:window-y="27"
     inkscape:window-maximized="1">
    <inkscape:grid
       type="xygrid"
       id="grid2985"
       empspacing="5"
       visible="true"
       enabled="true"
       snapvisiblegridlinesonly="true" />
  </sodipodi:namedview>
  <metadata
     id="metadata7">
    <rdf:RDF>
      <cc:Work
         rdf:about="">
        <dc:format>image/svg+xml</dc:format>
        <dc:type
           rdf:resource="http://purl.org/dc/dcmitype/StillImage" />
        <dc:title></dc:title>
      </cc:Work>
    </rdf:RDF>
  </metadata>
  <g
     inkscape:groupmode="layer"
     id="layer5"
     inkscape:label="Calque#3">
    <g
       id="g3910-2-6"
       transform="matrix(0.61739494,0,0,0.61739493,206.60674,223.67019)"
       style="fill:#4d4d4d">
      <g
         id="g3882-5-4"
         style="fill:#4d4d4d">
        <path
           style="fill:#4d4d4d;stroke:#000000;stroke-width:0;stroke-linecap:butt;stroke-linejoin:miter;stroke-miterlimit:4;stroke-opacity:1;stroke-dasharray:none"
           d="M 540,0 320,0 0,320 l 0,440 320,320 220,0 0,-80 -180,0 L 80,720 80,360 360,80 540,80 z"
           id="path3093-1-4"
           inkscape:connector-curvature="0"
           transform="translate(0,-27.637817)"
           sodipodi:nodetypes="ccccccccccccc" />
        <path
           style="fill:#4d4d4d;stroke:#000000;stroke-width:0;stroke-linecap:butt;stroke-linejoin:miter;stroke-miterlimit:4;stroke-opacity:1;stroke-dasharray:none"
           d="m 540,-27.637817 220,0 320,319.999997 0,440 -320,320.00002 -220,0 0,-80.00002 180,0 280,-280 0,-360 -280,-279.999997 -180,0 z"
           id="path3093-2-8-1"
           inkscape:connector-curvature="0"
           sodipodi:nodetypes="ccccccccccccc" />
      </g>
      <g
         transform="matrix(0.92620513,-0.37701997,0.37701997,0.92620513,-153.32155,241.40048)"
         id="g3882-3-7-5"
         style="fill:#4d4d4d">
        <path
           style="fill:#4d4d4d;stroke:#000000;stroke-width:0;stroke-linecap:butt;stroke-linejoin:miter;stroke-miterlimit:4;stroke-opacity:1;stroke-dasharray:none"
           d="M 540,0 320,0 0,320 l 0,440 320,320 220,0 0,-80 -180,0 L 80,720 80,360 360,80 540,80 z"
           id="path3093-7-0-4"
           inkscape:connector-curvature="0"
           transform="translate(0,-27.637817)"
           sodipodi:nodetypes="ccccccccccccc" />
        <path
           style="fill:#4d4d4d;stroke:#000000;stroke-width:0;stroke-linecap:butt;stroke-linejoin:miter;stroke-miterlimit:4;stroke-opacity:1;stroke-dasharray:none"
           d="m 540,-27.637817 220,0 320,319.999997 0,440 -320,320.00002 -220,0 0,-80.00002 180,0 280,-280 0,-360 -280,-279.999997 -180,0 z"
           id="path3093-2-3-9-5"
           inkscape:connector-curvature="0"
           sodipodi:nodetypes="ccccccccccccc" />
      </g>
    </g>
    <g
       id="g3910-2-6-7"
       transform="matrix(0.61739494,0,0,0.61739493,206.4991,223.67019)"
       style="fill:#4d4d4d">
      <g
         id="g3882-5-4-8"
         style="fill:#4d4d4d">
        <path
           style="fill:#4d4d4d;stroke:#000000;stroke-width:0;stroke-linecap:butt;stroke-linejoin:miter;stroke-miterlimit:4;stroke-opacity:1;stroke-dasharray:none"
           d="M 540,0 320,0 0,320 l 0,440 320,320 220,0 0,-80 -180,0 L 80,720 80,360 360,80 540,80 z"
           id="path3093-1-4-1"
           inkscape:connector-curvature="0"
           transform="translate(0,-27.637817)"
           sodipodi:nodetypes="ccccccccccccc" />
        <path
           style="fill:#4d4d4d;stroke:#000000;stroke-width:0;stroke-linecap:butt;stroke-linejoin:miter;stroke-miterlimit:4;stroke-opacity:1;stroke-dasharray:none"
           d="m 540,-27.637817 220,0 320,319.999997 0,440 -320,320.00002 -220,0 0,-80.00002 180,0 280,-280 0,-360 -280,-279.999997 -180,0 z"
           id="path3093-2-8-1-3"
           inkscape:connector-curvature="0"
           sodipodi:nodetypes="ccccccccccccc" />
      </g>
      <g
         transform="matrix(0.92620513,-0.37701997,0.37701997,0.92620513,-153.32155,241.40048)"
         id="g3882-3-7-5-2"
         style="fill:#4d4d4d">
        <path
           style="fill:#4d4d4d;stroke:#000000;stroke-width:0;stroke-linecap:butt;stroke-linejoin:miter;stroke-miterlimit:4;stroke-opacity:1;stroke-dasharray:none"
           d="M 540,0 320,0 0,320 l 0,440 320,320 220,0 0,-80 -180,0 L 80,720 80,360 360,80 540,80 z"
           id="path3093-7-0-4-2"
           inkscape:connector-curvature="0"
           transform="translate(0,-27.637817)"
           sodipodi:nodetypes="ccccccccccccc" />
        <path
           style="fill:#4d4d4d;stroke:#000000;stroke-width:0;stroke-linecap:butt;stroke-linejoin:miter;stroke-miterlimit:4;stroke-opacity:1;stroke-dasharray:none"
           d="m 540,-27.637817 220,0 320,319.999997 0,440 -320,320.00002 -220,0 0,-80.00002 180,0 280,-280 0,-360 -280,-279.999997 -180,0 z"
           id="path3093-2-3-9-5-2"
           inkscape:connector-curvature="0"
           sodipodi:nodetypes="ccccccccccccc" />
      </g>
    </g>
    <g
       id="g3910-2-6-7-5"
       transform="matrix(0.61739494,0,0,0.61739493,206.4991,223.67019)"
       style="fill:#4d4d4d">
      <g
         id="g3882-5-4-8-5"
         style="fill:#4d4d4d">
        <path
           style="fill:#4d4d4d;stroke:#000000;stroke-width:0;stroke-linecap:butt;stroke-linejoin:miter;stroke-miterlimit:4;stroke-opacity:1;stroke-dasharray:none"
           d="M 540,0 320,0 0,320 l 0,440 320,320 220,0 0,-80 -180,0 L 80,720 80,360 360,80 540,80 z"
           id="path3093-1-4-1-7"
           inkscape:connector-curvature="0"
           transform="translate(0,-27.637817)"
           sodipodi:nodetypes="ccccccccccccc" />
        <path
           style="fill:#4d4d4d;stroke:#000000;stroke-width:0;stroke-linecap:butt;stroke-linejoin:miter;stroke-miterlimit:4;stroke-opacity:1;stroke-dasharray:none"
           d="m 540,-27.637817 220,0 320,319.999997 0,440 -320,320.00002 -220,0 0,-80.00002 180,0 280,-280 0,-360 -280,-279.999997 -180,0 z"
           id="path3093-2-8-1-3-4"
           inkscape:connector-curvature="0"
           sodipodi:nodetypes="ccccccccccccc" />
      </g>
      <g
         transform="matrix(0.92620513,-0.37701997,0.37701997,0.92620513,-153.32155,241.40048)"
         id="g3882-3-7-5-2-1"
         style="fill:#4d4d4d">
        <path
           style="fill:#4d4d4d;stroke:#000000;stroke-width:0;stroke-linecap:butt;stroke-linejoin:miter;stroke-miterlimit:4;stroke-opacity:1;stroke-dasharray:none"
           d="M 540,0 320,0 0,320 l 0,440 320,320 220,0 0,-80 -180,0 L 80,720 80,360 360,80 540,80 z"
           id="path3093-7-0-4-2-0"
           inkscape:connector-curvature="0"
           transform="translate(0,-27.637817)"
           sodipodi:nodetypes="ccccccccccccc" />
        <path
           style="fill:#4d4d4d;stroke:#000000;stroke-width:0;stroke-linecap:butt;stroke-linejoin:miter;stroke-miterlimit:4;stroke-opacity:1;stroke-dasharray:none"
           d="m 540,-27.637817 220,0 320,319.999997 0,440 -320,320.00002 -220,0 0,-80.00002 180,0 280,-280 0,-360 -280,-279.999997 -180,0 z"
           id="path3093-2-3-9-5-2-7"
           inkscape:connector-curvature="0"
           sodipodi:nodetypes="ccccccccccccc" />
      </g>
    </g>
  </g>
  <g
     inkscape:groupmode="layer"
     id="layer2"
     inkscape:label="Calque"
     style="display:none"
     sodipodi:insensitive="true">
    <g
       sodipodi:type="inkscape:box3d"
       style="fill:#c83737;fill-opacity:1;stroke:none"
       id="g3817-6-7"
       inkscape:perspectiveID="#perspective3815-8-0"
       inkscape:corner0="1 : 0.32 : 0 : 1"
       inkscape:corner7="-2.220446e-16 : 0.04 : 1.0040647 : 1">
      <path
         sodipodi:type="inkscape:box3dside"
         id="path3827-4-7"
         style="fill:#c83737;fill-rule:evenodd;stroke:none"
         inkscape:box3dsidetype="13"
         d="M 400,480.98425 559.83791,561.31235 720,480 560.27045,453.58784 z" />
      <path
         sodipodi:type="inkscape:box3dside"
         id="path3819-4-1"
         style="fill:#c83737;fill-rule:evenodd;stroke:none"
         inkscape:box3dsidetype="6"
         d="m 400,320.32808 0,160.65617 160.27045,-27.39641 0,-106.9592 z" />
      <path
         sodipodi:type="inkscape:box3dside"
         id="path3829-4-6"
         style="fill:#c83737;fill-rule:evenodd;stroke:none"
         inkscape:box3dsidetype="11"
         d="M 560.27045,346.62864 720,319.66968 720,480 560.27045,453.58784 z" />
      <path
         sodipodi:type="inkscape:box3dside"
         id="path3821-3-2"
         style="fill:#c83737;fill-rule:evenodd;stroke:none"
         inkscape:box3dsidetype="5"
         d="M 400,320.32808 559.83791,240 720,319.66968 560.27045,346.62864 z" />
      <path
         sodipodi:type="inkscape:box3dside"
         id="path3825-2-3"
         style="fill:#c83737;fill-rule:evenodd;stroke:none"
         inkscape:box3dsidetype="14"
         d="m 559.83791,240 0,321.31235 L 720,480 720,319.66968 z" />
      <path
         sodipodi:type="inkscape:box3dside"
         id="path3823-6-2"
         style="fill:#c83737;fill-rule:evenodd;stroke:none"
         inkscape:box3dsidetype="3"
         d="M 400,320.32808 559.83791,240 l 0,321.31235 L 400,480.98425 z" />
    </g>
    <path
       sodipodi:type="arc"
       style="fill:#000000;fill-opacity:1;stroke:none"
       id="path3049-3"
       sodipodi:cx="540"
       sodipodi:cy="540"
       sodipodi:rx="540"
       sodipodi:ry="540"
       d="M 1080,540 A 540,540 0 1 1 0,540 540,540 0 1 1 1080,540 z"
       transform="matrix(0.77777778,0,0,0.77777778,120,120)" />
    <path
       sodipodi:type="arc"
       style="fill:#b7c4c8;fill-opacity:1;stroke:none"
       id="path3051-1"
       sodipodi:cx="540"
       sodipodi:cy="540"
       sodipodi:rx="380"
       sodipodi:ry="380"
       d="m 920,540 a 380,380 0 1 1 -760,0 380,380 0 1 1 760,0 z" />
  </g>
  <g
     inkscape:groupmode="layer"
     id="layer4"
     inkscape:label="Calque#2"
     style="display:inline"
     sodipodi:insensitive="true">
    <path
       style="fill:#1c2422;stroke:#000000;stroke-width:0;stroke-linecap:butt;stroke-linejoin:miter;stroke-miterlimit:4;stroke-opacity:1;stroke-dasharray:none"
       d="m 540,190 -300,200 0,300 300,200 300,-200 0,-300 z"
       id="path4270"
       inkscape:connector-curvature="0"
       sodipodi:nodetypes="ccccccc" />
    <path
       style="fill:#b7c4c8;stroke:#000000;stroke-width:0;stroke-linecap:butt;stroke-linejoin:miter;stroke-miterlimit:4;stroke-opacity:1;stroke-dasharray:none"
       d="M 260,400 260,680 540,870 820,680 820,400 540,210 z"
       id="path4272"
       inkscape:connector-curvature="0"
       sodipodi:nodetypes="ccccccc" />
    <path
       style="fill:#8f9ca0;fill-opacity:1;stroke:#000000;stroke-width:0;stroke-linecap:butt;stroke-linejoin:miter;stroke-miterlimit:4;stroke-opacity:1;stroke-dasharray:none"
       d="m 260,680 20,-10 0,-260 -20,-10 280,-190 280,190 -20,10 0,260 20,10 -280,190 z"
       id="path5704"
       inkscape:connector-curvature="0"
       sodipodi:nodetypes="ccccccccccc" />
  </g>
  <g
     inkscape:groupmode="layer"
     id="layer3"
     inkscape:label="Calque#1"
     sodipodi:insensitive="true">
    <path
       style="fill:#af69c0;fill-opacity:1;stroke:#000000;stroke-width:0;stroke-linecap:butt;stroke-linejoin:miter;stroke-miterlimit:4;stroke-opacity:1;stroke-dasharray:none"
       d="m 380,460 0,160 160,80 0,100 -260,-130 0,-260 z"
       id="path5688"
       inkscape:connector-curvature="0" />
    <path
       style="fill:#be78ca;fill-opacity:1;stroke:#000000;stroke-width:0;stroke-linecap:butt;stroke-linejoin:miter;stroke-miterlimit:4;stroke-opacity:1;stroke-dasharray:none"
       d="m 540,700 0,100 260,-130 0,-260 -100,50 0,160 z"
       id="path5698"
       inkscape:connector-curvature="0"
       sodipodi:nodetypes="ccccccc" />
    <path
       style="fill:#cd87de;fill-opacity:1;stroke:#000000;stroke-width:0;stroke-linecap:butt;stroke-linejoin:miter;stroke-miterlimit:4;stroke-opacity:1;stroke-dasharray:none"
       d="M 280,410 540,280 800,410 540,540 z"
       id="path3873"
       inkscape:connector-curvature="0" />
  </g>
  <g
     inkscape:label="Calque 1"
     inkscape:groupmode="layer"
     id="layer1"
     transform="translate(0,27.637817)">
    <g
       sodipodi:type="inkscape:box3d"
       style="fill:#333333;fill-opacity:1;stroke:none"
       id="g3817"
       inkscape:perspectiveID="#perspective3815"
       inkscape:corner0="1 : 0.32 : 0 : 1"
       inkscape:corner7="-2.220446e-16 : 0.04 : 1.0040647 : 1">
      <path
         sodipodi:type="inkscape:box3dside"
         id="path3827"
         style="fill:#afafde;fill-rule:evenodd;stroke:none"
         inkscape:box3dsidetype="13"
         d="m 400,582.36218 140,70 140.28395,-70.85771 -139.90509,-23.01624 z" />
      <path
         sodipodi:type="inkscape:box3dside"
         id="path3819"
         style="fill:#353564;fill-rule:evenodd;stroke:none"
         inkscape:box3dsidetype="6"
         d="m 400,442.36218 0,140 140.37886,-23.87395 0,-93.20705 z" />
      <path
         sodipodi:type="inkscape:box3dside"
         id="path3829"
         style="fill:#e9e9ff;fill-rule:evenodd;stroke:none"
         inkscape:box3dsidetype="11"
         d="m 540.37886,465.28118 139.90509,-23.49275 0,139.71604 -139.90509,-23.01624 z" />
      <path
         sodipodi:type="inkscape:box3dside"
         id="path3821"
         style="fill:#4d4d9f;fill-rule:evenodd;stroke:none"
         inkscape:box3dsidetype="5"
         d="m 400,442.36218 140,-70 140.28395,69.42625 -139.90509,23.49275 z" />
      <path
         sodipodi:type="inkscape:box3dside"
         id="path3825"
         style="fill:#d7d7ff;fill-rule:evenodd;stroke:none"
         inkscape:box3dsidetype="14"
         d="m 540,372.36218 0,280 140.28395,-70.85771 0,-139.71604 z" />
      <path
         sodipodi:type="inkscape:box3dside"
         id="path3823"
         style="fill:#8686bf;fill-rule:evenodd;stroke:none"
         inkscape:box3dsidetype="3"
         d="m 400,442.36218 140,-70 0,280 -140,-70 z" />
    </g>
    <g
       sodipodi:type="inkscape:box3d"
       style="fill:#71c837;fill-opacity:1;stroke:none"
       id="g3817-6-3"
       inkscape:perspectiveID="#perspective3815-8-7"
       inkscape:corner0="1 : 0.32 : 0 : 1"
       inkscape:corner7="-2.220446e-16 : 0.04 : 1.0040647 : 1">
      <path
         sodipodi:type="inkscape:box3dside"
         id="path3827-4-0"
         style="fill:#71c837;fill-rule:evenodd;stroke:none"
         inkscape:box3dsidetype="13"
         d="m 400,582.36218 139.85817,70 L 680,581.50448 540.23664,558.48823 z" />
      <path
         sodipodi:type="inkscape:box3dside"
         id="path3819-4-0"
         style="fill:#71c837;fill-rule:evenodd;stroke:none"
         inkscape:box3dsidetype="6"
         d="m 400,442.36218 0,140 140.23664,-23.87395 0,-93.20704 z" />
      <path
         sodipodi:type="inkscape:box3dside"
         id="path3829-4-0"
         style="fill:#71c837;fill-rule:evenodd;stroke:none"
         inkscape:box3dsidetype="11"
         d="M 540.23664,465.28119 680,441.78844 680,581.50448 540.23664,558.48823 z" />
      <path
         sodipodi:type="inkscape:box3dside"
         id="path3821-3-3"
         style="fill:#71c837;fill-rule:evenodd;stroke:none"
         inkscape:box3dsidetype="5"
         d="M 400,442.36218 539.85817,372.3622 680,441.78844 540.23664,465.28119 z" />
      <path
         sodipodi:type="inkscape:box3dside"
         id="path3825-2-9"
         style="fill:#71c837;fill-rule:evenodd;stroke:none"
         inkscape:box3dsidetype="14"
         d="m 539.85817,372.3622 0,279.99998 L 680,581.50448 680,441.78844 z" />
      <path
         sodipodi:type="inkscape:box3dside"
         id="path3823-6-1"
         style="fill:#71c837;fill-rule:evenodd;stroke:none"
         inkscape:box3dsidetype="3"
         d="m 400,442.36218 139.85817,-69.99998 0,279.99998 -139.85817,-70 z" />
    </g>
    <g
       sodipodi:type="inkscape:box3d"
       style="fill:#3771c8;fill-opacity:1;stroke:none"
       id="g3817-6-3-1"
       inkscape:perspectiveID="#perspective3815-8-7-0"
       inkscape:corner0="1 : 0.32 : 0 : 1"
       inkscape:corner7="-2.220446e-16 : 0.04 : 1.0040647 : 1">
      <path
         sodipodi:type="inkscape:box3dside"
         id="path3827-4-0-7"
         style="fill:#3771c8;fill-rule:evenodd;stroke:none"
         inkscape:box3dsidetype="13"
         d="M 420,572.36217 539.87843,632.36218 660,571.627 540.20283,551.89878 z" />
      <path
         sodipodi:type="inkscape:box3dside"
         id="path3819-4-0-0"
         style="fill:#3771c8;fill-rule:evenodd;stroke:none"
         inkscape:box3dsidetype="6"
         d="m 420,452.36217 0,120 120.20283,-20.46339 0,-79.89175 z" />
      <path
         sodipodi:type="inkscape:box3dside"
         id="path3829-4-0-1"
         style="fill:#3771c8;fill-rule:evenodd;stroke:none"
         inkscape:box3dsidetype="11"
         d="M 540.20283,472.00703 660,451.87039 660,571.627 540.20283,551.89878 z" />
      <path
         sodipodi:type="inkscape:box3dside"
         id="path3821-3-3-9"
         style="fill:#3771c8;fill-rule:evenodd;stroke:none"
         inkscape:box3dsidetype="5"
         d="M 420,452.36217 539.87843,392.36218 660,451.87039 540.20283,472.00703 z" />
      <path
         sodipodi:type="inkscape:box3dside"
         id="path3825-2-9-5"
         style="fill:#3771c8;fill-rule:evenodd;stroke:none"
         inkscape:box3dsidetype="14"
         d="m 539.87843,392.36218 0,240 L 660,571.627 660,451.87039 z" />
      <path
         sodipodi:type="inkscape:box3dside"
         id="path3823-6-1-9"
         style="fill:#3771c8;fill-rule:evenodd;stroke:none"
         inkscape:box3dsidetype="3"
         d="m 420,452.36217 119.87843,-59.99999 0,240 L 420,572.36217 z" />
    </g>
    <g
       sodipodi:type="inkscape:box3d"
       style="fill:#000000;fill-opacity:1;stroke:none"
       id="g3817-6-3-1-0"
       inkscape:perspectiveID="#perspective3815-8-7-0-6"
       inkscape:corner0="1 : 0.32 : 0 : 1"
       inkscape:corner7="-2.220446e-16 : 0.04 : 1.0040647 : 1">
      <path
         sodipodi:type="inkscape:box3dside"
         id="path3827-4-0-7-6"
         style="fill:#000000;fill-rule:evenodd;stroke:none"
         inkscape:box3dsidetype="13"
         d="m 440,562.36218 99.89869,50 L 640,561.74953 540.16903,545.30935 z" />
      <path
         sodipodi:type="inkscape:box3dside"
         id="path3819-4-0-0-2"
         style="fill:#000000;fill-rule:evenodd;stroke:none"
         inkscape:box3dsidetype="6"
         d="m 440,462.36218 0,100 100.16903,-17.05283 0,-66.57646 z" />
      <path
         sodipodi:type="inkscape:box3dside"
         id="path3829-4-0-1-5"
         style="fill:#000000;fill-rule:evenodd;stroke:none"
         inkscape:box3dsidetype="11"
         d="M 540.16903,478.73289 640,461.95235 l 0,99.79718 -99.83097,-16.44018 z" />
      <path
         sodipodi:type="inkscape:box3dside"
         id="path3821-3-3-9-8"
         style="fill:#000000;fill-rule:evenodd;stroke:none"
         inkscape:box3dsidetype="5"
         d="m 440,462.36218 99.89869,-50 L 640,461.95235 540.16903,478.73289 z" />
      <path
         sodipodi:type="inkscape:box3dside"
         id="path3825-2-9-5-8"
         style="fill:#000000;fill-rule:evenodd;stroke:none"
         inkscape:box3dsidetype="14"
         d="m 539.89869,412.36218 0,200 L 640,561.74953 l 0,-99.79718 z" />
      <path
         sodipodi:type="inkscape:box3dside"
         id="path3823-6-1-9-2"
         style="fill:#000000;fill-rule:evenodd;stroke:none"
         inkscape:box3dsidetype="3"
         d="m 440,462.36218 99.89869,-50 0,200 -99.89869,-50 z" />
    </g>
    <g
       sodipodi:type="inkscape:box3d"
       style="fill:#ffffff;fill-opacity:1;stroke:none"
       id="g3817-6-3-1-0-1"
       inkscape:perspectiveID="#perspective3815-8-7-0-6-3"
       inkscape:corner0="1 : 0.32 : 0 : 1"
       inkscape:corner7="-2.220446e-16 : 0.04 : 1.0040647 : 1">
      <path
         sodipodi:type="inkscape:box3dside"
         id="path3827-4-0-7-6-2"
         style="fill:#ffffff;fill-rule:evenodd;stroke:none"
         inkscape:box3dsidetype="13"
         d="m 480,542.36218 59.93922,30.00001 60.06079,-30.3676 -59.89859,-9.86411 z" />
      <path
         sodipodi:type="inkscape:box3dside"
         id="path3819-4-0-0-2-5"
         style="fill:#ffffff;fill-rule:evenodd;stroke:none"
         inkscape:box3dsidetype="6"
         d="m 480,482.36218 0,60 60.10142,-10.2317 0,-39.94587 z" />
      <path
         sodipodi:type="inkscape:box3dside"
         id="path3829-4-0-1-5-4"
         style="fill:#ffffff;fill-rule:evenodd;stroke:none"
         inkscape:box3dsidetype="11"
         d="m 540.10142,492.18461 59.89859,-10.06833 0,59.87831 -59.89859,-9.86411 z" />
      <path
         sodipodi:type="inkscape:box3dside"
         id="path3821-3-3-9-8-1"
         style="fill:#ffffff;fill-rule:evenodd;stroke:none"
         inkscape:box3dsidetype="5"
         d="m 480,482.36218 59.93922,-30 60.06079,29.7541 -59.89859,10.06833 z" />
      <path
         sodipodi:type="inkscape:box3dside"
         id="path3825-2-9-5-8-9"
         style="fill:#ffffff;fill-rule:evenodd;stroke:none"
         inkscape:box3dsidetype="14"
         d="m 539.93922,452.36218 0,120.00001 60.06079,-30.3676 0,-59.87831 z" />
      <path
         sodipodi:type="inkscape:box3dside"
         id="path3823-6-1-9-2-0"
         style="fill:#ffffff;fill-rule:evenodd;stroke:none"
         inkscape:box3dsidetype="3"
         d="m 480,482.36218 59.93922,-30 0,120.00001 L 480,542.36218 z" />
    </g>
    <path
       style="fill:#b3b3b3;fill-opacity:1;stroke:#000000;stroke-width:0;stroke-linecap:butt;stroke-linejoin:miter;stroke-miterlimit:4;stroke-opacity:1;stroke-dasharray:none"
       d="m 480,510 60,30 0,60 -60,-30 z"
       id="path5680"
       inkscape:connector-curvature="0"
       transform="translate(0,-27.637817)" />
    <path
       style="fill:#1449a0;fill-opacity:1;stroke:#000000;stroke-width:0;stroke-linecap:butt;stroke-linejoin:miter;stroke-miterlimit:4;stroke-opacity:1;stroke-dasharray:none"
       d="m 420,480 20,10 0,100 100,50 0,20 -120,-60 z"
       id="path5682"
       inkscape:connector-curvature="0"
       transform="translate(0,-27.637817)" />
    <path
       style="fill:#49a014;fill-opacity:1;stroke:#000000;stroke-width:0;stroke-linecap:butt;stroke-linejoin:miter;stroke-miterlimit:4;stroke-opacity:1;stroke-dasharray:none"
       d="m 400,470 20,10 0,120 120,60 0,20 -140,-70 z"
       id="path5684"
       inkscape:connector-curvature="0"
       transform="translate(0,-27.637817)" />
    <path
       style="fill:#a01414;fill-opacity:1;stroke:#000000;stroke-width:0;stroke-linecap:butt;stroke-linejoin:miter;stroke-miterlimit:4;stroke-opacity:1;stroke-dasharray:none"
       d="m 380,460 20,10 0,140 140,70 0,21 -160,-81 z"
       id="path5686"
       inkscape:connector-curvature="0"
       transform="translate(0,-27.637817)"
       sodipodi:nodetypes="ccccccc" />
    <path
       style="fill:#cccccc;stroke:#000000;stroke-width:0;stroke-linecap:butt;stroke-linejoin:miter;stroke-miterlimit:4;stroke-opacity:1;stroke-dasharray:none"
       d="m 540,540 60,-30 0,60 -60,30 z"
       id="path5690"
       inkscape:connector-curvature="0"
       transform="translate(0,-27.637817)" />
    <path
       style="fill:#1e64b4;fill-opacity:1;stroke:#000000;stroke-width:0;stroke-linecap:butt;stroke-linejoin:miter;stroke-miterlimit:4;stroke-opacity:1;stroke-dasharray:none"
       d="m 640,490 20,-10 0,120 -120,60 0,-20 100,-50 z"
       id="path5692"
       inkscape:connector-curvature="0"
       transform="translate(0,-27.637817)" />
    <path
       style="fill:#64b41e;fill-opacity:1;stroke:#000000;stroke-width:0;stroke-linecap:butt;stroke-linejoin:miter;stroke-miterlimit:4;stroke-opacity:1;stroke-dasharray:none"
       d="m 660,480 20,-10 0,140 -140,70 0,-20 120,-60 z"
       id="path5694"
       inkscape:connector-curvature="0"
       transform="translate(0,-27.637817)" />
    <path
       style="fill:#b41e1e;fill-opacity:1;stroke:#000000;stroke-width:0;stroke-linecap:butt;stroke-linejoin:miter;stroke-miterlimit:4;stroke-opacity:1;stroke-dasharray:none"
       d="m 680,470 20,-10 0,160 -160,81 0,-21 140,-70 z"
       id="path5696"
       inkscape:connector-curvature="0"
       transform="translate(0,-27.637817)"
       sodipodi:nodetypes="ccccccc" />
    <path
       style="fill:#c83737;fill-opacity:1;stroke:#000000;stroke-width:0;stroke-linecap:butt;stroke-linejoin:miter;stroke-miterlimit:4;stroke-opacity:1;stroke-dasharray:none"
       d="m 400,470 140,-70 140,70 20,-10 -160,-80 -160,80 z"
       id="path3886"
       inkscape:connector-curvature="0"
       transform="translate(0,-27.637817)" />
  </g>
</svg>
