# Blender v2.73 (sub 0) OBJ File: 'lrfurn-sofa-long.blend'
# www.blender.org
o Cylinder
v 0.312500 0.234375 -0.464844
v -0.500000 0.218750 2.347656
v 0.312500 0.234375 2.347656
v -0.500000 0.218750 2.464844
v 0.316406 0.421875 -0.500000
v 0.496094 0.421875 -0.500000
v 0.496094 0.421875 2.500000
v 0.316406 0.421875 2.500000
v 0.312500 -0.078125 -0.312500
v -0.500000 -0.078125 -0.312500
v -0.500000 0.187500 -0.496094
v 0.312500 0.187500 -0.500000
v 0.312500 0.187500 -0.312500
v -0.500000 0.187500 -0.316406
v -0.500000 -0.078125 2.312500
v 0.312500 -0.078125 2.312500
v -0.500000 0.187500 2.316406
v 0.312500 0.187500 2.312500
v 0.312500 0.187500 2.500000
v -0.500000 0.187500 2.496094
v -0.500000 -0.078125 0.500000
v 0.500000 0.437500 0.500000
v 0.312500 0.437500 0.500000
v 0.312500 -0.078125 0.500000
v 0.500000 0.437500 1.500000
v 0.312500 -0.078125 1.500000
v -0.500000 -0.078125 1.500000
v 0.312500 0.437500 1.500000
v 0.312500 0.234375 2.464844
v -0.500000 0.218750 -0.464844
v 0.312500 0.234375 -0.347656
v -0.500000 0.218750 -0.347656
v -0.500000 0.234375 2.406250
v 0.312500 0.250000 2.406250
v -0.500000 0.234375 -0.406250
v 0.312500 0.250000 -0.406250
v 0.406250 0.476562 -0.500000
v 0.406250 0.476562 2.500000
v 0.406250 0.500000 0.500000
v 0.406250 0.500000 1.500000
v 0.464844 0.460938 -0.500000
v 0.347656 0.460938 2.500000
v 0.347656 0.484375 0.500000
v 0.347656 0.484375 1.500000
v 0.347656 0.460938 -0.500000
v 0.464844 0.460938 2.500000
v 0.464844 0.484375 0.500000
v 0.464844 0.484375 1.500000
v 0.312500 -0.039062 1.906250
v -0.500000 -0.039062 1.000000
v 0.312500 -0.039062 0.093750
v 0.312500 -0.039062 1.000000
v -0.500000 -0.039062 0.093750
v -0.500000 -0.039062 1.906250
v 0.312500 -0.046875 1.562500
v -0.500000 -0.046875 0.562500
v -0.500000 -0.046875 2.250000
v 0.312500 -0.046875 0.437500
v -0.500000 -0.046875 0.437500
v 0.312500 -0.046875 1.437500
v 0.312500 -0.046875 0.562500
v -0.500000 -0.046875 -0.250000
v 0.312500 -0.046875 -0.250000
v -0.500000 -0.046875 1.437500
v 0.312500 -0.046875 2.250000
v -0.500000 -0.046875 1.562500
v -0.437500 0.000000 0.093750
v -0.437500 0.000000 1.906250
v -0.437500 -0.062500 -0.312500
v -0.437500 -0.062500 2.312500
v -0.437500 -0.062500 1.500000
v -0.437500 -0.062500 0.500000
v -0.437500 0.000000 1.000000
v -0.437500 -0.015625 1.562500
v -0.437500 -0.015625 -0.250000
v -0.437500 -0.015625 1.437500
v -0.437500 -0.015625 2.250000
v -0.437500 -0.015625 0.437500
v -0.437500 -0.015625 0.562500
v 0.250000 0.000000 0.093750
v 0.250000 0.000000 1.906250
v 0.250000 -0.062500 -0.312500
v 0.250000 -0.062500 1.500000
v 0.250000 -0.015625 1.562500
v 0.250000 -0.015625 -0.250000
v 0.250000 -0.015625 2.250000
v 0.250000 -0.015625 0.437500
v 0.250000 -0.062500 2.312500
v 0.250000 -0.062500 0.500000
v 0.250000 0.000000 1.000000
v 0.250000 -0.015625 1.437500
v 0.250000 -0.015625 0.562500
v 0.228538 -0.153004 2.426160
v -0.437500 0.187500 -0.500000
v -0.437500 0.187500 -0.312500
v -0.437500 0.187500 2.312500
v -0.437500 0.187500 2.500000
v -0.437500 0.234375 -0.464844
v -0.437500 0.234375 2.347656
v -0.437500 0.234375 -0.347656
v -0.437500 0.234375 2.464844
v -0.437500 0.250000 -0.406250
v -0.437500 0.250000 2.406250
v 0.312500 0.437500 -0.437500
v 0.500000 0.437500 2.437500
v 0.500000 0.437500 -0.437500
v 0.312500 0.437500 2.437500
v 0.406250 0.500000 2.437500
v 0.406250 0.500000 -0.437500
v 0.347656 0.484375 -0.437500
v 0.347656 0.484375 2.437500
v 0.464844 0.484375 2.437500
v 0.464844 0.484375 -0.437500
v 0.500000 -0.187500 0.500000
v 0.500000 -0.187500 1.500000
v 0.500000 -0.187500 2.500000
v 0.500000 -0.187500 -0.500000
v -0.500000 -0.187500 2.500000
v -0.500000 -0.187500 1.500000
v -0.500000 -0.187500 0.500000
v -0.500000 -0.187500 -0.500000
v -0.500000 -0.375000 2.500000
v 0.500000 -0.375000 2.500000
v 0.500000 -0.375000 -0.500000
v -0.500000 -0.375000 -0.500000
v -0.437500 -0.500000 -0.437500
v -0.375000 -0.500000 -0.437500
v -0.375000 -0.500000 -0.375000
v -0.437500 -0.500000 -0.375000
v -0.437500 -0.375000 -0.437500
v -0.375000 -0.375000 -0.437500
v -0.375000 -0.375000 -0.375000
v -0.437500 -0.375000 -0.375000
v -0.437500 -0.500000 2.375000
v -0.375000 -0.500000 2.375000
v -0.375000 -0.500000 2.437500
v -0.437500 -0.500000 2.437500
v -0.437500 -0.375000 2.375000
v -0.375000 -0.375000 2.375000
v -0.375000 -0.375000 2.437500
v -0.437500 -0.375000 2.437500
v 0.375000 -0.500000 -0.437500
v 0.437500 -0.500000 -0.437500
v 0.437500 -0.500000 -0.375000
v 0.375000 -0.500000 -0.375000
v 0.375000 -0.375000 -0.437500
v 0.437500 -0.375000 -0.437500
v 0.437500 -0.375000 -0.375000
v 0.375000 -0.375000 -0.375000
v 0.375000 -0.500000 2.375000
v 0.437500 -0.500000 2.375000
v 0.437500 -0.500000 2.437500
v 0.375000 -0.500000 2.437500
v 0.375000 -0.375000 2.375000
v 0.437500 -0.375000 2.375000
v 0.437500 -0.375000 2.437500
v 0.375000 -0.375000 2.437500
v -0.437500 -0.500000 0.968750
v -0.375000 -0.500000 0.968750
v -0.375000 -0.500000 1.031250
v -0.437500 -0.500000 1.031250
v -0.437500 -0.375000 0.968750
v -0.375000 -0.375000 0.968750
v -0.375000 -0.375000 1.031250
v -0.437500 -0.375000 1.031250
v 0.375000 -0.500000 0.968750
v 0.437500 -0.500000 0.968750
v 0.437500 -0.500000 1.031250
v 0.375000 -0.500000 1.031250
v 0.375000 -0.375000 0.968750
v 0.437500 -0.375000 0.968750
v 0.437500 -0.375000 1.031250
v 0.375000 -0.375000 1.031250
v 0.500000 -0.375000 0.500000
v -0.500000 -0.375000 0.500000
v -0.500000 -0.375000 1.500000
v 0.500000 -0.375000 1.500000
vt 0.250000 0.383435
vt 0.265625 0.375706
vt 0.265625 0.503232
vt 0.281250 0.734375
vt 0.281250 0.750000
vt 0.265625 0.750000
vt 0.265625 0.734375
vt 0.390625 0.734375
vt 0.390625 0.750000
vt 0.750000 0.201141
vt 0.750000 0.187500
vt 0.765625 0.187500
vt 0.305134 0.884532
vt 0.476969 0.822047
vt 0.492591 0.884532
vt 0.249108 0.918025
vt 0.062649 0.918025
vt 0.062649 0.906371
vt 0.249108 0.906371
vt 0.305134 0.822047
vt 0.734375 0.562500
vt 0.734375 0.750000
vt 0.718750 0.750000
vt 0.718750 0.562500
vt 0.171875 0.734375
vt 0.250000 0.734375
vt 0.250000 0.750000
vt 0.171875 0.750000
vt 0.609375 0.562500
vt 0.609375 0.546875
vt 0.703125 0.546875
vt 0.703125 0.562500
vt 0.265625 0.201141
vt 0.265625 0.187500
vt 0.515625 0.187500
vt 0.515625 0.201141
vt 0.031250 0.201141
vt 0.031250 0.187500
vt 0.031250 0.562500
vt 0.031250 0.750000
vt 0.015625 0.750000
vt 0.015625 0.562500
vt 0.718750 0.546875
vt 0.515625 0.734375
vt 0.515625 0.750000
vt 0.500000 0.750000
vt 0.500000 0.734375
vt 0.750000 0.562500
vt 0.750000 0.750000
vt 0.062500 0.562500
vt 0.062500 0.750000
vt 0.046875 0.750000
vt 0.046875 0.562500
vt 0.265625 0.514825
vt 0.031250 0.514825
vt 0.031250 0.503232
vt 0.053711 0.452995
vt 0.062500 0.441401
vt 0.015625 0.499368
vt 0.532373 0.906371
vt 0.718832 0.906371
vt 0.718832 0.918025
vt 0.532373 0.918025
vt 0.062500 0.734375
vt 0.078125 0.734375
vt 0.078125 0.750000
vt 0.515625 0.562500
vt 0.515625 0.546875
vt 0.531250 0.546875
vt 0.531250 0.562500
vt 0.742188 0.456859
vt 0.765625 0.499368
vt 0.727539 0.452995
vt 0.765625 0.441401
vt 0.756836 0.452995
vt 0.515625 0.503232
vt 0.718750 0.441401
vt 0.765625 0.562500
vt 0.765625 0.750000
vt 0.015625 0.441401
vt 0.024414 0.452995
vt 0.492591 0.818141
vt 0.039062 0.456859
vt 0.289513 0.884532
vt 0.289513 0.818141
vt 0.727572 0.974351
vt 0.742139 0.978235
vt 0.719803 0.964639
vt 0.765625 0.509029
vt 0.750000 0.514825
vt 0.750000 0.503232
vt 0.756706 0.974351
vt 0.756706 0.980178
vt 0.742139 0.984062
vt 0.265625 0.765625
vt 0.265625 0.779712
vt 0.031250 0.779712
vt 0.031250 0.765625
vt 0.477287 0.976904
vt 0.305452 0.914419
vt 0.477287 0.914419
vt 0.289831 0.976904
vt 0.289831 0.910513
vt 0.492909 0.976904
vt 0.492909 0.910513
vt 0.756836 0.337900
vt 0.718750 0.264013
vt 0.764648 0.330122
vt 0.742187 0.341789
vt 0.727539 0.337900
vt 0.719727 0.330122
vt 0.750000 0.765625
vt 0.515625 0.765625
vt 0.053909 0.980178
vt 0.039342 0.984062
vt 0.039342 0.978236
vt 0.053909 0.974351
vt 0.015625 0.509029
vt 0.515625 0.514825
vt 0.750000 0.779712
vt 0.515625 0.779712
vt 0.024774 0.980178
vt 0.024774 0.974351
vt 0.164062 0.385367
vt 0.078125 0.383435
vt 0.515625 0.375706
vt 0.531250 0.383435
vt 0.617188 0.385367
vt 0.703125 0.383435
vt 0.500000 0.383435
vt 0.390625 0.385367
vt 0.281250 0.383435
vt 0.531250 0.734375
vt 0.609375 0.734375
vt 0.078125 0.546875
vt 0.171875 0.546875
vt 0.171875 0.562500
vt 0.078125 0.562500
vt 0.500000 0.546875
vt 0.500000 0.562500
vt 0.390625 0.562500
vt 0.390625 0.546875
vt 0.062500 0.546875
vt 0.703125 0.734375
vt 0.718750 0.734375
vt 0.250000 0.546875
vt 0.265625 0.546875
vt 0.265625 0.562500
vt 0.250000 0.562500
vt 0.281250 0.562500
vt 0.281250 0.546875
vt 0.062500 0.375706
vt 0.718750 0.375706
vt 0.609375 0.750000
vt 0.703125 0.750000
vt 0.531250 0.750000
vt 0.765625 0.546875
vt 0.750000 0.546875
vt 0.046875 0.546875
vt 0.031250 0.546875
vt 0.516834 0.906371
vt 0.516834 0.914140
vt 0.734375 0.546875
vt 0.015625 0.546875
vt 0.264646 0.914140
vt 0.264646 0.906371
vt 0.016602 0.330122
vt 0.062500 0.264013
vt 0.024414 0.337900
vt 0.039062 0.341789
vt 0.053711 0.337900
vt 0.061523 0.330122
vt 0.727572 0.980178
vt 0.015625 0.187500
vt 0.764475 0.964639
vt 0.017005 0.964640
vt 0.061678 0.964640
vt 0.265625 0.031250
vt 0.015625 0.031250
vt 0.515625 0.031250
vt 0.016034 0.813142
vt 0.264646 0.813142
vt 0.015625 0.236792
vt 0.078125 0.271791
vt 0.265625 0.236792
vt 0.164062 0.273735
vt 0.250000 0.271791
vt 0.265625 0.264013
vt 0.281250 0.271791
vt 0.390625 0.273735
vt 0.515625 0.236792
vt 0.500000 0.271791
vt 0.515625 0.264013
vt 0.531250 0.271791
vt 0.617187 0.273735
vt 0.703125 0.271791
vt 0.765625 0.236792
vt 0.516834 0.813142
vt 0.765447 0.813142
vt 0.765625 0.031250
vt -0.000000 0.125000
vt 1.000000 0.125000
vt 1.000000 0.312500
vt -0.000000 0.312500
vt 0.000000 1.000000
vt 0.000000 0.000000
vt 1.000000 0.000000
vt 1.000000 1.000000
vt 0.937500 0.125000
vt 0.875000 0.125000
vt 0.875000 0.000000
vt 0.937500 0.000000
vt 0.125000 0.125000
vt 0.062500 0.125000
vt 0.062500 0.000000
vt 0.125000 0.000000
vt 0.062500 0.937500
vt 0.062500 0.875000
vt 0.125000 0.875000
vt 0.125000 0.937500
vt 0.875000 0.937500
vt 0.875000 0.875000
vt 0.937500 0.875000
vt 0.937500 0.937500
vt 0.062500 0.062500
vt 0.125000 0.062500
vt 0.875000 0.062500
vt 0.937500 0.062500
vt 0.531250 0.125000
vt 0.468750 0.125000
vt 0.468750 0.000000
vt 0.531250 0.000000
vt 0.468750 0.937500
vt 0.468750 0.875000
vt 0.531250 0.875000
vt 0.531250 0.937500
vt 0.468750 0.062500
vt 0.531250 0.062500
vn -1.000000 0.000000 0.000000
vn -0.948700 0.316200 0.000000
vn 0.207400 0.931200 -0.299600
vn 0.404600 0.867500 -0.289300
vn 0.351100 0.936300 0.000000
vn 0.193100 0.981200 0.000000
vn 0.251900 0.967700 0.000000
vn 0.490300 0.871600 -0.000000
vn 0.536500 0.831000 -0.146800
vn 0.937700 0.338900 -0.075700
vn 0.694400 0.205200 -0.689700
vn 0.392500 0.537600 -0.746300
vn -0.035700 0.329600 0.943400
vn 0.000000 -0.000000 1.000000
vn -0.785700 0.195600 0.586900
vn -0.090600 0.839600 -0.535500
vn -0.779600 0.517700 -0.352300
vn -0.105900 0.156900 -0.981900
vn -0.042000 0.330000 -0.943000
vn -0.017300 0.004100 0.999800
vn -0.788400 0.511400 -0.341800
vn -0.785700 0.195600 -0.586900
vn -0.035700 0.329600 -0.943400
vn 0.251500 0.967800 0.000000
vn 0.207400 0.930000 0.303500
vn 0.404200 0.866700 0.292300
vn -0.251500 0.967800 0.000000
vn -0.860000 0.510300 0.000000
vn -0.805300 0.561700 0.189400
vn -0.207400 0.930000 0.303500
vn 0.559600 0.828700 0.000000
vn 0.948700 0.316200 0.000000
vn 0.536500 0.831000 0.146800
vn 0.937700 0.338900 0.075700
vn -0.119800 0.992800 0.000000
vn -0.760700 0.649000 0.002000
vn -0.973400 0.205400 -0.101100
vn -0.160300 0.814600 0.557500
vn 0.404600 0.867500 0.289300
vn 0.207400 0.931200 0.299600
vn -0.760700 0.649000 -0.002000
vn -0.788400 0.511400 0.341800
vn -0.090600 0.839600 0.535500
vn -0.559600 0.828700 0.000000
vn -0.536500 0.831000 -0.146800
vn -0.940200 0.331200 -0.079300
vn -0.699900 0.200500 -0.685500
vn -0.042000 0.330000 0.943000
vn -0.105900 0.156900 0.981900
vn -0.779600 0.517700 0.352300
vn 0.160300 0.814600 -0.557500
vn 0.207400 0.930000 -0.303500
vn 0.404200 0.866700 -0.292300
vn 0.303000 0.808100 -0.505100
vn -0.193100 0.981200 0.000000
vn -0.902600 0.430500 0.000000
vn -0.805300 0.561700 -0.189400
vn -0.207400 0.930000 -0.303500
vn -0.699900 0.200500 0.685500
vn -0.641000 0.000000 0.767600
vn -0.655400 0.266200 0.706800
vn -0.973400 0.205400 0.101100
vn -0.392500 0.537600 0.746300
vn 0.000000 0.626800 0.779200
vn -0.536500 0.831000 0.146800
vn -0.940200 0.331200 0.079300
vn 0.392500 0.537600 0.746300
vn 0.000000 0.984800 0.173500
vn 0.000000 1.000000 0.000000
vn 0.000000 0.984800 -0.173500
vn 0.000000 0.000000 -1.000000
vn -0.017300 0.004100 -0.999800
vn -0.641000 0.000000 -0.767600
vn -0.655400 0.266200 -0.706800
vn -0.718100 0.578400 0.386900
vn -0.661600 0.265500 0.701300
vn -0.741200 0.671300 0.000000
vn -0.718100 0.578400 -0.386900
vn 0.000000 0.626800 -0.779200
vn -0.392500 0.537600 -0.746300
vn -0.805200 0.562500 0.187600
vn -0.207400 0.931200 0.299600
vn -0.251900 0.967700 0.000000
vn -0.860700 0.509200 0.000000
vn -0.160300 0.814600 -0.557500
vn 0.160300 0.814600 0.557500
vn -0.207400 0.931200 -0.299600
vn -0.805200 0.562500 -0.187600
vn 0.303000 0.808100 0.505100
vn -0.661600 0.265500 -0.701300
vn 0.694400 0.205200 0.689700
vn 1.000000 0.000000 -0.000000
vn 0.707100 0.000300 0.707100
vn 0.707100 0.000300 -0.707100
vn -0.707100 0.000800 -0.707100
vn -0.707100 0.000800 0.707100
vn 0.000000 -1.000000 0.000000
g Cylinder_Cylinder_upholstery
s 1
f 58/1/1 24/2/1 23/3/2
f 92/4/3 61/5/4 24/6/5 89/7/6
f 90/8/7 52/9/8 61/5/4 92/4/3
f 113/10/9 106/11/10 6/12/11 41/12/12
f 95/13/13 82/14/14 13/15/15
f 98/16/16 1/17/17 12/18/18 94/19/19
f 82/14/14 95/13/13 69/20/20
f 99/21/16 3/22/21 18/23/22 96/24/23
f 80/25/24 87/26/25 58/27/26 51/28/8
f 87/26/25 89/7/6 24/6/5 58/27/26
f 68/29/27 54/30/28 57/31/29 77/32/30
f 48/33/31 25/34/32 22/35/32 47/36/31
f 112/37/33 105/38/34 25/34/32 48/33/31
f 102/39/35 36/40/36 1/41/17 98/42/16
f 77/32/30 57/31/29 15/43/37 70/24/38
f 83/44/6 26/45/5 60/46/39 91/47/40
f 103/48/35 34/49/41 3/22/21 99/21/16
f 95/50/13 13/51/15 31/52/42 100/53/43
f 23/3/2 43/54/44 110/55/45 104/56/46
f 31/57/42 23/3/2 104/56/46
f 13/58/15 23/3/2 31/57/42
f 5/59/47 31/57/42 104/56/46
f 97/60/48 19/61/49 29/62/50 101/63/43
f 82/64/51 85/65/52 63/66/53 9/51/54
f 71/67/55 27/68/56 66/69/57 74/70/58
f 34/71/41 8/72/59 3/73/21
f 91/47/40 60/46/39 52/9/8 90/8/7
f 85/65/52 80/25/24 51/28/8 63/66/53
f 100/53/43 31/52/42 36/40/36 102/39/35
f 19/74/49 8/72/59 29/75/50
f 74/70/58 66/69/57 54/30/28 68/29/27
f 3/73/21 28/76/2 18/77/22
f 101/78/43 29/79/50 34/49/41 103/48/35
f 12/80/18 1/81/17 5/59/47
f 9/82/60 13/15/15 82/14/14
f 36/83/36 5/59/47 1/81/17
f 5/59/47 36/83/36 31/57/42
f 8/72/59 34/71/41 29/75/50
f 95/13/13 14/84/61 10/85/62 69/20/20
f 42/86/63 19/61/49 38/87/64
f 8/88/59 19/61/49 42/86/63
f 8/72/59 42/89/63 111/90/65 107/91/66
f 38/87/64 46/92/67 112/93/33 108/94/68
f 39/95/69 47/96/31 113/97/9 109/98/70
f 96/99/23 88/100/71 70/101/72
f 18/102/22 88/100/71 96/99/23
f 16/103/73 88/100/71 18/102/22
f 17/104/74 96/99/23 70/101/72 15/105/37
f 4/106/75 15/107/37 20/108/76
f 33/109/77 15/107/37 4/106/75
f 2/110/78 15/107/37 33/109/77
f 17/111/74 15/107/37 2/110/78
f 111/49/65 108/112/68 40/113/69 44/45/44
f 44/45/44 40/113/69 39/95/69 43/6/44
f 110/114/45 109/115/70 37/116/79 45/117/80
f 104/56/46 110/55/45 45/118/80 5/59/47
f 28/76/2 44/119/44 43/54/44 23/3/2
f 107/91/66 111/90/65 44/119/44 28/76/2
f 108/112/68 112/120/33 48/121/31 40/113/69
f 40/113/69 48/121/31 47/96/31 39/95/69
f 109/115/70 113/122/9 41/123/12 37/116/79
f 58/1/1 23/3/2 51/124/1
f 51/124/1 23/3/2 63/125/1
f 26/126/1 55/127/1 28/76/2
f 55/127/1 49/128/1 28/76/2
f 49/128/1 65/129/1 28/76/2
f 26/126/1 28/76/2 60/130/1
f 60/130/1 28/76/2 52/131/1
f 61/132/1 52/131/1 23/3/2
f 24/2/1 61/132/1 23/3/2
f 28/76/2 23/3/2 52/131/1
f 84/133/52 74/70/58 68/29/27 81/134/24
f 62/135/57 53/136/28 67/137/27 75/138/58
f 64/139/81 76/140/82 73/141/83 50/142/84
f 83/44/6 71/67/55 74/70/58 84/133/52
f 10/143/62 62/135/57 75/138/58 69/50/85
f 27/68/56 71/67/55 76/140/82 64/139/81
f 86/144/25 77/32/30 70/24/38 88/145/86
f 81/134/24 68/29/27 77/32/30 86/144/25
f 59/146/29 21/147/56 72/148/55 78/149/30
f 53/136/28 59/146/29 78/149/30 67/137/27
f 50/142/84 73/141/83 79/150/87 56/151/88
f 56/151/88 79/150/87 72/148/55 21/147/56
f 9/152/60 63/125/1 13/58/15
f 23/3/2 13/58/15 63/125/1
f 16/153/73 18/77/22 65/129/1
f 28/76/2 65/129/1 18/77/22
f 49/154/8 81/134/24 86/144/25 65/155/26
f 65/155/26 86/144/25 88/145/86 16/23/89
f 26/45/5 83/44/6 84/133/52 55/156/53
f 55/156/53 84/133/52 81/134/24 49/154/8
f 75/138/58 67/137/27 80/25/24 85/65/52
f 76/140/82 91/47/40 90/8/7 73/141/83
f 69/50/85 75/138/58 85/65/52 82/64/51
f 71/67/55 83/44/6 91/47/40 76/140/82
f 78/149/30 72/148/55 89/7/6 87/26/25
f 67/137/27 78/149/30 87/26/25 80/25/24
f 73/141/83 90/8/7 92/4/3 79/150/87
f 79/150/87 92/4/3 89/7/6 72/148/55
f 4/157/75 101/78/43 103/48/35 33/158/77
f 32/159/75 100/53/43 102/39/35 35/160/77
f 20/161/76 97/60/48 101/63/43 4/162/75
f 14/143/61 95/50/13 100/53/43 32/159/75
f 33/158/77 103/48/35 99/21/16 2/163/78
f 35/160/77 102/39/35 98/42/16 30/164/78
f 2/163/78 99/21/16 96/24/23 17/43/74
f 30/165/78 98/16/16 94/19/19 11/166/90
f 11/167/90 10/168/62 30/169/78
f 30/169/78 10/168/62 35/170/77
f 32/171/75 35/170/77 10/168/62
f 10/168/62 14/172/61 32/171/75
f 43/6/44 39/95/69 109/98/70 110/40/45
f 42/86/63 38/87/64 108/94/68 111/173/65
f 46/174/67 7/174/91 105/38/34 112/37/33
f 47/36/31 22/35/32 106/11/10 113/10/9
f 38/87/64 19/61/49 46/92/67
f 19/61/49 7/175/91 46/92/67
f 6/176/11 12/18/18 41/123/12
f 41/123/12 12/18/18 37/116/79
f 37/116/79 12/18/18 45/117/80
f 12/18/18 5/177/47 45/117/80
f 3/73/21 8/72/59 107/91/66
f 107/91/66 28/76/2 3/73/21
f 115/178/92 25/34/32 116/179/93
f 25/34/32 105/38/34 116/179/93
f 7/174/91 116/179/93 105/38/34
f 25/34/32 115/178/92 114/180/92 22/35/32
f 117/181/94 121/182/95 12/18/18
f 12/18/18 121/182/95 94/19/19
f 94/19/19 121/182/95 11/166/90
f 10/168/62 11/167/90 121/183/95
f 62/184/57 10/168/62 120/185/1
f 62/184/57 120/185/1 53/186/28
f 53/186/28 120/185/1 59/187/29
f 59/187/29 120/185/1 21/188/56
f 121/183/95 120/185/1 10/168/62
f 21/188/56 120/185/1 56/189/88
f 56/189/88 120/185/1 50/190/84
f 120/185/1 119/191/1 50/190/84
f 50/190/84 119/191/1 64/192/81
f 64/192/81 119/191/1 27/193/56
f 27/193/56 119/191/1 66/194/57
f 66/194/57 119/191/1 54/195/28
f 54/195/28 119/191/1 57/196/29
f 57/196/29 119/191/1 15/107/37
f 119/191/1 118/197/96 15/107/37
f 15/107/37 118/197/96 20/108/76
f 20/161/76 118/198/96 97/60/48
f 97/60/48 118/198/96 19/61/49
f 118/198/96 116/199/93 19/61/49
f 19/61/49 116/199/93 7/175/91
f 6/176/11 117/181/94 12/18/18
f 106/11/10 117/200/94 6/12/11
f 22/35/32 117/200/94 106/11/10
f 22/35/32 114/180/92 117/200/94
g Cylinder_Cylinder_bottom
s off
f 125/201/1 175/202/1 120/203/1 121/204/1
f 175/201/1 176/202/1 119/203/1 120/204/1
f 176/201/1 122/202/1 118/203/1 119/204/1
f 122/201/14 123/202/14 116/203/14 118/204/14
f 124/201/71 125/202/71 121/203/71 117/204/71
f 124/202/92 117/203/92 114/204/92 174/201/92
f 177/201/92 174/202/92 114/203/92 115/204/92
f 123/201/92 177/202/92 115/203/92 116/204/92
f 176/205/97 177/206/97 123/207/97 122/208/97
f 130/209/71 131/210/71 127/211/71 126/212/71
f 131/209/92 132/210/92 128/211/92 127/212/92
f 132/213/14 133/214/14 129/215/14 128/216/14
f 133/213/1 130/214/1 126/215/1 129/216/1
f 126/217/97 127/218/97 128/219/97 129/220/97
f 138/209/71 139/210/71 135/211/71 134/212/71
f 139/213/92 140/214/92 136/215/92 135/216/92
f 140/213/14 141/214/14 137/215/14 136/216/14
f 141/209/1 138/210/1 134/211/1 137/212/1
f 134/221/97 135/222/97 136/223/97 137/224/97
f 125/205/97 124/206/97 174/207/97 175/208/97
f 146/213/71 147/214/71 143/215/71 142/216/71
f 147/209/92 148/210/92 144/211/92 143/212/92
f 148/209/14 149/210/14 145/211/14 144/212/14
f 149/213/1 146/214/1 142/215/1 145/216/1
f 142/214/97 143/225/97 144/226/97 145/213/97
f 154/213/71 155/214/71 151/215/71 150/216/71
f 155/213/92 156/214/92 152/215/92 151/216/92
f 156/209/14 157/210/14 153/211/14 152/212/14
f 157/209/1 154/210/1 150/211/1 153/212/1
f 150/210/97 151/227/97 152/228/97 153/209/97
f 162/209/71 163/210/71 159/211/71 158/212/71
f 163/229/92 164/230/92 160/231/92 159/232/92
f 164/213/14 165/214/14 161/215/14 160/216/14
f 165/229/1 162/230/1 158/231/1 161/232/1
f 158/233/97 159/234/97 160/235/97 161/236/97
f 170/213/71 171/214/71 167/215/71 166/216/71
f 171/229/92 172/230/92 168/231/92 167/232/92
f 172/209/14 173/210/14 169/211/14 168/212/14
f 173/229/1 170/230/1 166/231/1 169/232/1
f 166/230/97 167/237/97 168/238/97 169/229/97
f 175/205/97 174/206/97 177/207/97 176/208/97
