# Blender v2.73 (sub 0) OBJ File: 'lrfurn-armchair.blend'
# www.blender.org
o Cylinder
v 0.464844 0.234375 0.312500
v -0.500000 0.460938 0.464844
v -0.312500 0.187500 -0.437500
v 0.500000 0.421875 0.316406
v 0.500000 0.421875 0.496094
v 0.312500 -0.078125 0.312500
v 0.312500 -0.078125 -0.500000
v 0.496094 0.187500 -0.500000
v 0.500000 0.187500 0.312500
v 0.312500 0.187500 0.312500
v 0.316406 0.187500 -0.500000
v -0.500000 0.460938 0.347656
v -0.500000 0.476562 0.406250
v -0.312500 -0.062500 0.250000
v -0.347656 0.234375 0.312500
v -0.437500 0.437500 0.500000
v -0.437500 0.437500 0.312500
v -0.312500 -0.078125 0.312500
v 0.464844 0.218750 -0.500000
v 0.347656 0.234375 0.312500
v 0.347656 0.218750 -0.500000
v -0.312500 -0.062500 -0.437500
v 0.406250 0.234375 -0.500000
v 0.406250 0.250000 0.312500
v 0.500000 0.476562 0.406250
v -0.437500 0.500000 0.406250
v 0.500000 0.460938 0.464844
v -0.437500 0.484375 0.347656
v 0.500000 0.460938 0.347656
v -0.437500 0.484375 0.464844
v 0.000000 -0.039062 0.312500
v -0.000000 -0.039062 -0.500000
v -0.312500 -0.078125 -0.500000
v -0.347656 0.218750 -0.500000
v 0.250000 -0.046875 -0.500000
v 0.250000 -0.046875 0.312500
v -0.000000 0.000000 -0.437500
v 0.312500 -0.062500 -0.437500
v 0.250000 -0.015625 -0.437500
v 0.000000 0.000000 0.250000
v 0.312500 -0.062500 0.250000
v 0.250000 -0.015625 0.250000
v -2.426160 -0.153004 0.228538
v 0.500000 0.187500 -0.437500
v 0.312500 0.187500 -0.437500
v -0.500000 0.421875 0.316406
v -0.312500 0.187500 0.312500
v 0.464844 0.234375 -0.437500
v -0.500000 0.421875 0.496094
v 0.347656 0.234375 -0.437500
v -0.316406 0.187500 -0.500000
v 0.406250 0.250000 -0.437500
v -0.312500 -0.078125 0.312500
v 0.437500 0.437500 0.312500
v 0.437500 0.437500 0.500000
v 0.000000 0.437500 0.312500
v 0.437500 0.500000 0.406250
v 0.437500 0.484375 0.347656
v 0.437500 0.484375 0.464844
v -0.500000 -0.187500 0.500000
v -0.000000 -0.187500 -0.500000
v 0.500000 -0.187500 0.500000
v -0.312500 -0.078125 -0.500000
v -0.500000 -0.187500 -0.500000
v 0.500000 -0.187500 -0.500000
v -0.464844 0.234375 -0.437500
v -0.347656 0.234375 -0.437500
v 0.500000 -0.375000 0.500000
v 0.500000 -0.375000 -0.500000
v 0.437500 -0.500000 -0.437500
v 0.437500 -0.500000 -0.375000
v 0.375000 -0.500000 -0.375000
v 0.375000 -0.500000 -0.437500
v 0.437500 -0.375000 -0.437500
v 0.437500 -0.375000 -0.375000
v 0.375000 -0.375000 -0.375000
v 0.375000 -0.375000 -0.437500
v -0.500000 0.187500 -0.437500
v -0.500000 0.460938 0.464844
v -0.500000 0.460938 0.347656
v -0.500000 0.476562 0.406250
v -0.406250 0.250000 0.312500
v -0.406250 0.234375 -0.500000
v -0.464844 0.234375 0.312500
v -0.496094 0.187500 -0.500000
v 0.437500 -0.500000 0.375000
v 0.437500 -0.500000 0.437500
v 0.375000 -0.500000 0.437500
v 0.375000 -0.500000 0.375000
v 0.437500 -0.375000 0.375000
v 0.437500 -0.375000 0.437500
v 0.375000 -0.375000 0.437500
v 0.375000 -0.375000 0.375000
v -0.500000 0.187500 0.312500
v -0.316406 0.187500 -0.500000
v -0.312500 -0.078125 -0.500000
v -0.500000 0.421875 0.316406
v -0.500000 0.421875 0.496094
v -0.464844 0.218750 -0.500000
v -0.347656 0.234375 0.312500
v -0.347656 0.218750 -0.500000
v -0.500000 -0.375000 0.500000
v -0.500000 -0.375000 -0.500000
v -0.500000 -0.187500 0.500000
v -0.500000 -0.187500 -0.500000
v -0.500000 -0.375000 -0.500000
v -0.500000 -0.375000 0.500000
v -0.375000 -0.500000 -0.437500
v -0.375000 -0.500000 -0.375000
v -0.437500 -0.500000 -0.375000
v -0.437500 -0.500000 -0.437500
v -0.375000 -0.375000 -0.437500
v -0.375000 -0.375000 -0.375000
v -0.437500 -0.375000 -0.375000
v -0.437500 -0.375000 -0.437500
v -0.375000 -0.500000 0.375000
v -0.375000 -0.500000 0.437500
v -0.437500 -0.500000 0.437500
v -0.437500 -0.500000 0.375000
v -0.375000 -0.375000 0.375000
v -0.375000 -0.375000 0.437500
v -0.437500 -0.375000 0.437500
v -0.437500 -0.375000 0.375000
v -0.406250 0.250000 -0.437500
v -0.500000 -0.187500 0.500000
v -0.500000 -0.187500 -0.500000
v -0.347656 0.234375 -0.437500
v -0.437500 0.437500 0.500000
v -0.437500 0.437500 0.312500
v -0.437500 0.500000 0.406250
v -0.437500 0.484375 0.347656
v -0.437500 0.484375 0.464844
v 0.000000 -0.039062 0.312500
v -0.000000 -0.039062 -0.500000
v -0.250000 -0.046875 -0.500000
v -0.250000 -0.046875 0.312500
v -0.000000 0.000000 -0.437500
v -0.312500 -0.062500 -0.437500
v -0.250000 -0.015625 -0.437500
v 0.000000 0.000000 0.250000
v -0.250000 -0.015625 0.250000
v -0.312500 -0.062500 0.250000
v 0.000000 0.437500 0.500000
v 0.000000 0.500000 0.406250
v 0.000000 0.484375 0.347656
v 0.000000 0.484375 0.464844
v 0.000000 -0.187500 0.500000
vt 0.140470 0.234971
vt 0.140470 0.272035
vt 0.078047 0.270084
vt 0.062442 0.262281
vt 0.015625 0.234971
vt 0.703125 0.562500
vt 0.703125 0.546875
vt 0.718750 0.546875
vt 0.718750 0.562500
vt 0.749590 0.202859
vt 0.749590 0.190887
vt 0.765553 0.186896
vt 0.765553 0.196873
vt 0.305134 0.884532
vt 0.476969 0.822047
vt 0.492591 0.884532
vt 0.249108 0.918025
vt 0.062649 0.918025
vt 0.062649 0.906371
vt 0.249108 0.906371
vt 0.305134 0.822047
vt 0.516834 0.906371
vt 0.532373 0.906371
vt 0.532373 0.918025
vt 0.516834 0.914140
vt 0.031250 0.562500
vt 0.031250 0.750000
vt 0.015625 0.750000
vt 0.015625 0.562500
vt 0.062500 0.562500
vt 0.062500 0.750000
vt 0.046875 0.750000
vt 0.046875 0.562500
vt 0.749864 0.503824
vt 0.749864 0.515528
vt 0.640625 0.515528
vt 0.640625 0.503824
vt 0.727431 0.453105
vt 0.742061 0.457007
vt 0.765470 0.499922
vt 0.015625 0.499922
vt 0.039033 0.457007
vt 0.031231 0.503824
vt 0.062500 0.734375
vt 0.078125 0.734375
vt 0.078125 0.750000
vt 0.171875 0.734375
vt 0.171875 0.750000
vt 0.024403 0.453105
vt 0.492591 0.818141
vt 0.015625 0.441401
vt 0.640625 0.234971
vt 0.703047 0.270084
vt 0.640625 0.272035
vt 0.718653 0.262281
vt 0.289513 0.884532
vt 0.289513 0.818141
vt 0.148438 0.765625
vt 0.148438 0.779712
vt 0.031250 0.779712
vt 0.031250 0.765625
vt 0.015625 0.196873
vt 0.015625 0.186896
vt 0.031589 0.190887
vt 0.031589 0.202859
vt 0.727572 0.974351
vt 0.742139 0.978235
vt 0.742139 0.984062
vt 0.727572 0.980178
vt 0.756706 0.974351
vt 0.756706 0.980178
vt 0.053909 0.980178
vt 0.039342 0.984062
vt 0.039342 0.978236
vt 0.053909 0.974351
vt 0.031231 0.515528
vt 0.015625 0.509676
vt 0.024774 0.980178
vt 0.024774 0.974351
vt 0.609375 0.562500
vt 0.609375 0.546875
vt 0.756692 0.453105
vt 0.078125 0.546875
vt 0.171875 0.546875
vt 0.171875 0.562500
vt 0.078125 0.562500
vt 0.062500 0.546875
vt 0.053664 0.453105
vt 0.765470 0.441401
vt 0.718653 0.441401
vt 0.046875 0.546875
vt 0.031250 0.546875
vt 0.015625 0.546875
vt 0.765470 0.509676
vt 0.264646 0.914140
vt 0.264646 0.906371
vt 0.016600 0.328605
vt 0.024403 0.336408
vt 0.039033 0.340309
vt 0.053664 0.336408
vt 0.061466 0.328605
vt 0.148438 0.750000
vt 0.637844 0.202859
vt 0.637844 0.190887
vt 0.017005 0.964640
vt 0.061678 0.964640
vt 0.765470 0.234971
vt 0.016034 0.813142
vt 0.264646 0.813142
vt 0.062442 0.441401
vt 0.140470 0.503824
vt 0.477287 0.976904
vt 0.305452 0.914419
vt 0.477287 0.914419
vt 0.734375 0.562500
vt 0.734375 0.750000
vt 0.718750 0.750000
vt 0.734375 0.546875
vt 0.492909 0.976904
vt 0.492909 0.910513
vt 0.289831 0.910513
vt 0.289831 0.976904
vt 0.765553 0.031250
vt 0.765625 0.546875
vt 0.765625 0.562500
vt 0.750000 0.562500
vt 0.750000 0.546875
vt 0.719628 0.328605
vt 0.727431 0.336408
vt 0.742061 0.340309
vt 0.756692 0.336408
vt 0.764494 0.328605
vt 0.719803 0.964639
vt 0.718832 0.906371
vt 0.765625 0.750000
vt 0.750000 0.750000
vt 0.718832 0.918025
vt 0.764475 0.964639
vt 0.516834 0.813142
vt 0.765447 0.813142
vt 0.015625 0.031250
vt 0.703125 0.734375
vt 0.718750 0.734375
vt 0.609375 0.734375
vt 0.609375 0.750000
vt 0.703125 0.750000
vt 0.062442 0.375077
vt 0.078047 0.382880
vt 0.703047 0.382880
vt 0.718653 0.375077
vt 0.140470 0.384831
vt 0.640625 0.384831
vt 0.143334 0.190887
vt 0.143334 0.202859
vt 0.734375 0.765625
vt 0.617188 0.765625
vt 0.617188 0.750000
vt 0.734375 0.779712
vt 0.617188 0.779712
vt 0.140470 0.515528
vt 0.143334 0.031250
vt 0.637844 0.031250
vt -0.000000 0.125000
vt 1.000000 0.125000
vt 1.000000 0.312500
vt 0.500000 0.312500
vt -0.000000 0.312500
vt 0.937500 0.125000
vt 0.875000 0.125000
vt 0.875000 0.000000
vt 0.937500 0.000000
vt 0.125000 0.125000
vt 0.062500 0.125000
vt 0.062500 0.000000
vt 0.125000 0.000000
vt 0.062500 0.937500
vt 0.062500 0.875000
vt 0.125000 0.875000
vt 0.125000 0.937500
vt 0.000000 1.000000
vt 0.000000 0.000000
vt 1.000000 0.000000
vt 1.000000 1.000000
vt 0.062500 0.062500
vt 0.125000 0.062500
vt 0.875000 0.937500
vt 0.875000 0.875000
vt 0.937500 0.875000
vt 0.937500 0.937500
vt 0.875000 0.062500
vt 0.937500 0.062500
vn -0.000000 0.000000 -1.000000
vn -0.310300 0.927700 -0.207300
vn -0.192600 0.560200 -0.805600
vn -0.505100 0.808100 -0.303000
vn -0.557500 0.814600 -0.160300
vn 0.146800 0.831000 0.536500
vn 0.075700 0.338900 0.937700
vn 0.689700 0.205200 0.694400
vn 0.746300 0.537600 0.392500
vn -0.943400 0.329600 -0.035700
vn -1.000000 -0.000000 0.000000
vn -0.586900 0.195600 -0.785700
vn 0.535500 0.839600 -0.090600
vn 0.352300 0.517700 -0.779600
vn 0.981900 0.156900 -0.105900
vn 0.943000 0.330000 -0.042000
vn -0.999800 0.004100 -0.017300
vn -0.701300 0.265500 -0.661600
vn -0.943000 0.330000 -0.042000
vn -0.535500 0.839600 -0.090600
vn -0.386900 0.578400 -0.718100
vn 0.000000 0.992800 -0.119800
vn 0.005700 0.640900 -0.767500
vn -0.344000 0.509500 -0.788700
vn -0.000000 0.600000 -0.800000
vn -0.000000 0.828700 -0.559600
vn -0.000000 0.316200 -0.948700
vn 0.098200 0.368400 -0.924400
vn -0.005700 0.640900 -0.767500
vn -0.030800 -0.005100 -0.999500
vn -0.817000 -0.001200 -0.576600
vn 0.687300 0.202400 -0.697500
vn 0.077600 0.335500 -0.938800
vn 0.557500 0.814600 0.160300
vn 0.310300 0.927700 0.207300
vn 0.297500 0.865300 0.403400
vn 0.505100 0.808100 0.303000
vn 0.053500 0.966600 0.250500
vn 0.040800 0.870800 0.489900
vn -0.767600 0.000000 -0.641000
vn -0.024000 0.512200 -0.858500
vn -0.706800 0.266200 -0.655400
vn -0.528800 0.004000 -0.848700
vn 0.000000 1.000000 0.000000
vn 0.000000 0.828700 0.559600
vn 0.173500 0.984800 0.000000
vn -0.282800 0.774700 0.565600
vn -0.210900 0.597700 0.773500
vn -0.299000 0.813400 0.498900
vn -0.282800 0.774700 -0.565600
vn -0.351100 0.936300 0.000000
vn -0.299000 0.813400 -0.498900
vn 0.146800 0.831000 -0.536500
vn 0.779200 0.626800 0.000000
vn 0.746300 0.537600 -0.392500
vn -0.053500 0.966600 -0.250500
vn -0.352300 0.517700 -0.779600
vn 0.297500 0.865300 -0.403400
vn 0.040800 0.870800 -0.489900
vn 0.053500 0.966600 -0.250500
vn 0.310300 0.927700 -0.207300
vn 0.505100 0.808100 -0.303000
vn 0.557500 0.814600 -0.160300
vn -0.981900 0.156900 -0.105900
vn 0.586900 0.195600 -0.785700
vn 0.000000 0.671300 -0.741200
vn 0.386900 0.578400 -0.718100
vn -0.210900 0.597700 -0.773500
vn 0.701300 0.265500 -0.661600
vn 0.000000 0.316200 0.948700
vn -0.707100 0.000800 -0.707100
vn 0.707100 0.000300 0.707100
vn 0.833200 0.000900 -0.553000
vn 0.943400 0.329600 -0.035700
vn 1.000000 0.000000 0.000000
vn 0.999800 0.004100 -0.017300
vn 0.781700 0.621700 -0.048700
vn 0.800000 0.600000 -0.000000
vn 0.757800 0.644100 -0.104200
vn 0.933300 0.351600 -0.073100
vn 0.999500 0.007600 -0.032200
vn 0.767600 0.000000 -0.641000
vn 0.114000 0.427600 -0.896800
vn 0.255800 0.959200 -0.120500
vn -0.819400 0.003700 0.573200
vn -0.707100 0.000300 0.707100
vn -0.027100 0.002700 0.999600
vn -0.310300 0.927700 0.207300
vn -0.557500 0.814600 0.160300
vn -0.053500 0.966600 0.250500
vn -0.040800 0.870800 0.489900
vn -0.297500 0.865300 0.403400
vn -0.505100 0.808100 0.303000
vn 0.000000 0.600000 0.800000
vn 0.000000 0.000000 1.000000
vn 0.000000 -1.000000 0.000000
g Cylinder_Cylinder_upholstery
s off
f 61/1/1 134/2/1 35/3/1
f 7/4/1 61/1/1 35/3/1
f 7/4/1 65/5/1 61/1/1
s 1
f 139/6/2 135/7/3 33/8/4 138/9/5
f 59/10/6 55/11/7 5/12/8 27/13/9
f 45/14/10 41/15/11 10/16/12
f 48/17/13 1/18/14 9/19/15 44/20/16
f 41/15/11 45/14/10 38/21/17
f 85/22/18 78/23/19 66/24/20 99/25/21
f 52/26/22 24/27/23 1/28/14 48/29/13
f 45/30/10 10/31/12 20/32/24 50/33/20
f 17/34/25 28/35/26 145/36/26 56/37/27
f 100/38/28 82/39/29 129/34/30
f 97/40/31 129/34/30 82/39/29
f 4/41/32 24/42/23 54/43/33
f 41/44/34 42/45/35 36/46/36 6/31/37
f 42/45/35 40/47/38 31/48/39 36/46/36
f 50/33/20 20/32/24 24/27/23 52/26/22
f 4/41/32 1/49/14 24/42/23
f 6/50/40 10/16/12 41/15/11
f 1/49/14 4/41/32 9/51/15
f 61/52/1 135/53/3 134/54/41
f 96/55/1 135/53/3 61/52/1
f 45/14/10 11/56/42 7/57/43 38/21/17
f 144/58/44 146/59/45 59/60/6 57/61/46
f 2/62/47 49/63/48 128/64/48 132/65/49
f 12/66/50 13/67/51 130/68/51 131/69/52
f 13/67/51 2/70/47 132/71/49 130/68/51
f 58/72/53 57/73/46 25/74/54 29/75/55
f 54/43/33 58/76/53 29/77/55 4/41/32
f 57/73/46 59/78/6 27/79/9 25/74/54
f 137/80/56 134/81/41 135/7/3 139/6/2
f 82/39/29 84/82/57 97/40/31
f 35/83/58 32/84/59 37/85/60 39/86/61
f 7/87/62 35/83/58 39/86/61 38/30/63
f 20/88/24 54/43/33 24/42/23
f 84/82/57 94/89/64 97/40/31
f 47/90/65 100/38/28 56/37/27
f 39/86/61 37/85/60 40/47/38 42/45/35
f 38/30/63 39/86/61 42/45/35 41/44/34
f 21/91/21 50/33/20 52/26/22 23/92/66
f 11/87/42 45/30/10 50/33/20 21/91/21
f 23/92/66 52/26/22 48/29/13 19/93/67
f 46/40/68 12/94/50 131/35/52 129/34/68
f 19/95/67 48/17/13 44/20/16 8/96/69
f 8/97/69 7/4/43 19/98/67
f 19/98/67 7/4/43 23/99/66
f 21/100/21 23/99/66 7/4/43
f 7/4/43 11/101/42 21/100/21
f 145/102/26 144/58/44 57/61/46 58/27/53
f 146/103/45 143/104/70 55/11/7 59/10/6
f 5/105/8 9/19/15 27/79/9
f 27/79/9 9/19/15 25/74/54
f 25/74/54 9/19/15 29/75/55
f 9/19/15 4/106/32 29/75/55
f 126/107/71 96/55/1 61/52/1
f 62/108/72 65/109/73 9/19/15
f 9/19/15 65/109/73 44/20/16
f 44/20/16 65/109/73 8/96/69
f 7/4/43 8/97/69 65/5/73
f 100/38/28 129/34/30 56/37/27
f 10/110/12 56/111/27 20/88/24
f 3/112/74 14/113/75 22/114/76
f 127/115/77 15/116/78 47/117/65 3/9/74
f 54/43/33 20/88/24 56/111/27
f 34/118/79 127/115/77 3/9/74 51/8/80
f 51/119/80 3/112/74 22/114/76 63/120/81
f 53/121/82 14/113/75 47/122/65
f 47/122/65 14/113/75 3/112/74
f 5/105/8 62/108/72 9/19/15
f 55/11/7 62/123/72 5/12/8
f 99/124/21 66/125/20 124/126/22 83/127/66
f 95/128/1 96/55/1 101/129/83
f 101/129/83 96/55/1 83/130/66
f 83/130/66 96/55/1 99/131/21
f 99/131/21 96/55/1 85/132/18
f 97/133/31 94/134/64 80/66/11
f 80/66/11 94/134/64 81/67/11
f 66/125/20 84/135/57 82/136/29 124/126/22
f 78/23/19 94/134/64 84/137/57 66/24/20
f 124/126/22 82/136/29 100/116/28 67/115/84
f 83/127/66 124/126/22 67/115/84 101/118/83
f 81/67/11 94/134/64 79/70/11
f 94/134/64 98/138/85 79/70/11
f 96/55/1 126/107/71 85/132/18
f 85/22/18 126/139/71 78/23/19
f 78/23/19 126/139/71 94/134/64
f 126/139/71 125/140/86 94/134/64
f 94/134/64 125/140/86 98/138/85
f 128/64/87 98/63/85 125/141/86
f 141/142/88 139/6/2 138/9/5 142/143/89
f 140/144/90 137/80/56 139/6/2 141/142/88
f 133/145/91 140/144/90 141/142/88 136/146/92
f 136/146/92 141/142/88 142/143/89 18/117/93
f 6/147/40 36/148/1 10/110/12
f 136/149/1 53/150/82 47/90/65
f 47/90/65 56/37/27 136/149/1
f 56/111/27 10/110/12 36/148/1
f 36/148/1 133/151/1 56/111/27
f 136/149/1 56/37/27 133/152/1
f 30/65/45 16/64/94 143/153/70 146/154/45
f 28/116/26 26/155/44 144/156/44 145/157/26
f 26/155/44 30/158/45 146/159/45 144/156/44
f 56/111/27 145/160/26 58/76/53 54/43/33
f 143/153/70 128/64/87 125/141/86
f 62/123/72 55/11/7 143/104/70
f 125/141/86 147/161/95 143/153/70
f 143/104/70 147/162/95 62/123/72
g Cylinder_Cylinder_bottom
s off
f 69/163/1 103/164/1 64/165/1 61/166/1 65/167/1
f 68/163/75 69/164/75 65/165/75 62/167/75
f 68/164/95 62/165/95 60/167/95 102/163/95
f 74/168/75 75/169/75 71/170/75 70/171/75
f 75/168/95 76/169/95 72/170/95 71/171/95
f 76/172/11 77/173/11 73/174/11 72/175/11
f 77/172/1 74/173/1 70/174/1 73/175/1
f 70/176/96 71/177/96 72/178/96 73/179/96
f 69/180/96 68/181/96 102/182/96 103/183/96
f 90/172/75 91/173/75 87/174/75 86/175/75
f 91/168/95 92/169/95 88/170/95 87/171/95
f 92/168/11 93/169/11 89/170/11 88/171/11
f 93/172/1 90/173/1 86/174/1 89/175/1
f 86/173/96 87/184/96 88/185/96 89/172/96
f 106/163/11 107/164/11 104/165/11 105/167/11
f 112/168/75 113/169/75 109/170/75 108/171/75
f 113/172/95 114/173/95 110/174/95 109/175/95
f 114/172/11 115/173/11 111/174/11 110/175/11
f 115/168/1 112/169/1 108/170/1 111/171/1
f 108/186/96 109/187/96 110/188/96 111/189/96
f 120/172/75 121/173/75 117/174/75 116/175/75
f 121/172/95 122/173/95 118/174/95 117/175/95
f 122/168/11 123/169/11 119/170/11 118/171/11
f 123/168/1 120/169/1 116/170/1 119/171/1
f 116/169/96 117/190/96 118/191/96 119/168/96
