# Blender v2.73 (sub 0) OBJ File: '3dbookshelf.blend'
# www.blender.org
o bookshelf_nodebox-39
v 0.437500 0.437500 0.500000
v 0.437500 0.437500 0.125000
v 0.437500 -0.437500 0.125000
v 0.437500 -0.062500 0.125000
v -0.437500 -0.062500 0.125000
v -0.437500 -0.062500 -0.500000
v -0.437500 -0.062500 -0.125000
v 0.437500 -0.062500 -0.500000
v 0.437500 -0.062500 -0.125000
v -0.437500 -0.062500 0.500000
v -0.500000 0.500000 0.500000
v -0.500000 0.500000 -0.500000
v 0.500000 -0.500000 0.500000
v -0.500000 -0.500000 0.500000
v -0.500000 -0.500000 -0.500000
v -0.437500 -0.437500 0.500000
v -0.437500 -0.437500 0.125000
v -0.437500 0.437500 -0.500000
v -0.437500 0.437500 -0.125000
v -0.437500 0.062500 -0.125000
v -0.437500 0.437500 0.125000
v -0.437500 0.062500 0.125000
v 0.437500 -0.437500 -0.500000
v 0.500000 0.500000 0.500000
v 0.500000 0.500000 -0.500000
v 0.437500 -0.437500 -0.125000
v -0.437500 -0.437500 -0.500000
v -0.437500 0.437500 0.500000
v 0.437500 -0.437500 0.500000
v 0.437500 0.062500 0.500000
v 0.437500 -0.062500 0.500000
v 0.437500 0.062500 0.125000
v -0.437500 0.062500 0.500000
v -0.437500 0.062500 -0.500000
v 0.437500 0.437500 -0.125000
v 0.437500 0.437500 -0.500000
v 0.437500 0.062500 -0.125000
v 0.437500 0.375000 -0.125000
v 0.437500 0.375000 -0.500000
v 0.312500 0.375000 -0.500000
v -0.312500 0.250000 -0.125000
v -0.250000 0.250000 -0.125000
v -0.250000 0.250000 -0.437500
v 0.000000 0.312500 -0.437500
v 0.000000 0.062500 -0.437500
v -0.062500 0.062500 -0.437500
v -0.312500 0.062500 -0.437500
v -0.312500 0.250000 -0.437500
v 0.000000 -0.187500 -0.437500
v 0.000000 -0.187500 -0.468750
v 0.000000 -0.437500 -0.437500
v 0.000000 0.312500 -0.125000
v 0.000000 0.437500 -0.125000
v 0.312500 0.312500 -0.406250
v 0.312500 0.062500 -0.500000
v 0.312500 0.062500 -0.406250
v 0.187500 0.375000 -0.437500
v 0.187500 0.375000 -0.468750
v 0.187500 0.062500 -0.437500
v -0.187500 0.062500 -0.468750
v -0.250000 0.062500 -0.468750
v -0.250000 0.312500 -0.468750
v -0.250000 -0.125000 -0.125000
v -0.250000 -0.125000 -0.437500
v -0.250000 -0.062500 -0.125000
v -0.437500 -0.125000 -0.437500
v -0.375000 -0.125000 -0.437500
v -0.375000 -0.437500 -0.437500
v 0.125000 0.437500 -0.468750
v 0.125000 0.062500 -0.468750
v 0.000000 0.062500 -0.468750
v -0.125000 0.375000 -0.125000
v -0.125000 0.250000 -0.437500
v -0.125000 0.250000 -0.125000
v -0.125000 -0.187500 -0.437500
v -0.125000 -0.437500 -0.437500
v -0.250000 -0.437500 -0.437500
v 0.125000 -0.187500 -0.125000
v 0.125000 -0.187500 -0.437500
v 0.125000 -0.125000 -0.125000
v -0.250000 -0.062500 -0.468750
v -0.250000 -0.437500 -0.468750
v -0.375000 -0.437500 -0.468750
v 0.250000 0.375000 -0.468750
v 0.250000 0.062500 -0.468750
v 0.062500 -0.187500 -0.468750
v 0.062500 -0.437500 -0.468750
v 0.125000 0.375000 -0.437500
v -0.437500 0.375000 -0.468750
v -0.437500 0.375000 -0.125000
v -0.312500 0.375000 -0.125000
v -0.187500 0.250000 -0.125000
v -0.187500 0.250000 -0.437500
v -0.187500 0.312500 -0.125000
v -0.312500 0.375000 -0.468750
v -0.312500 0.062500 -0.468750
v -0.437500 0.062500 -0.468750
v -0.062500 -0.187500 -0.468750
v -0.062500 -0.437500 -0.468750
v -0.125000 -0.437500 -0.468750
v 0.250000 -0.187500 -0.437500
v 0.250000 -0.187500 -0.125000
v 0.250000 -0.125000 -0.125000
v -0.375000 -0.062500 -0.125000
v -0.062500 0.312500 -0.437500
v 0.125000 -0.125000 -0.468750
v 0.062500 -0.125000 -0.468750
v -0.062500 0.375000 -0.125000
v -0.062500 0.312500 -0.125000
v -0.125000 -0.187500 -0.468750
v -0.125000 0.062500 -0.437500
v -0.187500 0.062500 -0.437500
v -0.062500 -0.187500 -0.437500
v -0.062500 -0.437500 -0.437500
v -0.125000 0.375000 -0.468750
v -0.062500 0.375000 -0.468750
v -0.062500 0.062500 -0.468750
v -0.375000 -0.125000 -0.125000
v 0.125000 0.437500 -0.125000
v 0.125000 0.375000 -0.125000
v 0.250000 0.312500 -0.406250
v 0.250000 0.062500 -0.406250
v 0.250000 -0.437500 -0.437500
v 0.312500 0.312500 -0.125000
v 0.437500 -0.437500 -0.468750
v 0.250000 -0.437500 -0.468750
v 0.250000 -0.125000 -0.468750
v -0.250000 0.312500 -0.125000
v 0.437500 -0.125000 -0.125000
v 0.437500 -0.125000 -0.468750
v 0.437500 0.062500 -0.500000
v 0.062500 -0.187500 -0.125000
v 0.062500 -0.125000 -0.125000
v 0.500000 -0.500000 -0.500000
v -0.437500 -0.437500 -0.125000
v 0.312500 0.375000 -0.125000
v -0.250000 0.062500 -0.437500
v 0.000000 0.437500 -0.468750
v -0.187500 0.312500 -0.468750
v -0.437500 -0.437500 -0.437500
v -0.125000 0.062500 -0.468750
v 0.125000 -0.437500 -0.437500
v 0.125000 -0.437500 -0.468750
v -0.375000 -0.062500 -0.468750
v 0.187500 0.062500 -0.468750
v 0.000000 -0.437500 -0.468750
v 0.125000 0.062500 -0.437500
v -0.437500 -0.125000 -0.125000
v 0.250000 0.375000 -0.125000
v 0.250000 0.312500 -0.125000
v -0.187500 -0.187500 -0.125000
v -0.187500 -0.187500 -0.437500
v -0.250000 -0.125000 -0.125000
v -0.250000 -0.125000 -0.437500
v -0.187500 -0.125000 -0.125000
v -0.187500 -0.125000 -0.437500
v -0.437500 0.375000 0.125000
v -0.437500 0.375000 0.500000
v -0.312500 0.375000 0.500000
v 0.312500 0.250000 0.125000
v 0.250000 0.250000 0.125000
v 0.250000 0.250000 0.437500
v 0.000000 0.312500 0.437500
v 0.000000 0.062500 0.437500
v 0.062500 0.062500 0.437500
v 0.312500 0.062500 0.437500
v 0.312500 0.250000 0.437500
v 0.000000 -0.187500 0.437500
v 0.000000 -0.187500 0.468750
v 0.000000 -0.437500 0.437500
v 0.000000 0.312500 0.125000
v 0.000000 0.437500 0.125000
v -0.312500 0.312500 0.406250
v -0.312500 0.062500 0.500000
v -0.312500 0.062500 0.406250
v -0.187500 0.375000 0.437500
v -0.187500 0.375000 0.468750
v -0.187500 0.062500 0.437500
v 0.187500 0.062500 0.468750
v 0.250000 0.062500 0.468750
v 0.250000 0.312500 0.468750
v 0.250000 -0.125000 0.125000
v 0.250000 -0.125000 0.437500
v 0.250000 -0.062500 0.125000
v 0.437500 -0.125000 0.437500
v 0.375000 -0.125000 0.437500
v 0.375000 -0.437500 0.437500
v -0.125000 0.437500 0.468750
v -0.125000 0.062500 0.468750
v 0.000000 0.062500 0.468750
v 0.125000 0.375000 0.125000
v 0.125000 0.250000 0.437500
v 0.125000 0.250000 0.125000
v 0.125000 -0.187500 0.437500
v 0.125000 -0.437500 0.437500
v 0.250000 -0.437500 0.437500
v -0.125000 -0.187500 0.125000
v -0.125000 -0.187500 0.437500
v -0.125000 -0.125000 0.125000
v 0.250000 -0.062500 0.468750
v 0.250000 -0.437500 0.468750
v 0.375000 -0.437500 0.468750
v -0.250000 0.375000 0.468750
v -0.250000 0.062500 0.468750
v -0.062500 -0.187500 0.468750
v -0.062500 -0.437500 0.468750
v -0.125000 0.375000 0.437500
v 0.437500 0.375000 0.468750
v 0.437500 0.375000 0.125000
v 0.312500 0.375000 0.125000
v 0.187500 0.250000 0.125000
v 0.187500 0.250000 0.437500
v 0.187500 0.312500 0.125000
v 0.312500 0.375000 0.468750
v 0.312500 0.062500 0.468750
v 0.437500 0.062500 0.468750
v 0.062500 -0.187500 0.468750
v 0.062500 -0.437500 0.468750
v 0.125000 -0.437500 0.468750
v -0.250000 -0.187500 0.437500
v -0.250000 -0.187500 0.125000
v -0.250000 -0.125000 0.125000
v 0.375000 -0.062500 0.125000
v 0.062500 0.312500 0.437500
v -0.125000 -0.125000 0.468750
v -0.062500 -0.125000 0.468750
v 0.062500 0.375000 0.125000
v 0.062500 0.312500 0.125000
v 0.125000 -0.187500 0.468750
v 0.125000 0.062500 0.437500
v 0.187500 0.062500 0.437500
v 0.062500 -0.187500 0.437500
v 0.062500 -0.437500 0.437500
v 0.125000 0.375000 0.468750
v 0.062500 0.375000 0.468750
v 0.062500 0.062500 0.468750
v 0.375000 -0.125000 0.125000
v -0.125000 0.437500 0.125000
v -0.125000 0.375000 0.125000
v -0.250000 0.312500 0.406250
v -0.250000 0.062500 0.406250
v -0.250000 -0.437500 0.437500
v -0.312500 0.312500 0.125000
v -0.437500 -0.437500 0.468750
v -0.250000 -0.437500 0.468750
v -0.250000 -0.125000 0.468750
v 0.250000 0.312500 0.125000
v -0.437500 -0.125000 0.125000
v -0.437500 -0.125000 0.468750
v -0.437500 0.062500 0.500000
v -0.062500 -0.187500 0.125000
v -0.062500 -0.125000 0.125000
v -0.312500 0.375000 0.125000
v 0.250000 0.062500 0.437500
v 0.000000 0.437500 0.468750
v 0.187500 0.312500 0.468750
v 0.437500 -0.437500 0.437500
v 0.125000 0.062500 0.468750
v -0.125000 -0.437500 0.437500
v -0.125000 -0.437500 0.468750
v 0.375000 -0.062500 0.468750
v -0.187500 0.062500 0.468750
v 0.000000 -0.437500 0.468750
v -0.125000 0.062500 0.437500
v 0.437500 -0.125000 0.125000
v -0.250000 0.375000 0.125000
v -0.250000 0.312500 0.125000
v 0.187500 -0.187500 0.125000
v 0.187500 -0.187500 0.437500
v 0.250000 -0.125000 0.125000
v 0.250000 -0.125000 0.437500
v 0.187500 -0.125000 0.125000
v 0.187500 -0.125000 0.437500
vt 0.937500 0.375000
vt 0.562500 0.375000
vt 0.562500 0.000000
vt 0.937500 0.000000
vt 0.062500 -0.000000
vt 0.062500 0.375000
vt 0.937500 0.562500
vt 0.937500 0.437500
vt 0.937500 0.062500
vt 1.000000 0.000000
vt 1.000000 1.000000
vt 0.937500 0.937500
vt 0.937500 1.000000
vt 0.062500 1.000000
vt 0.062500 0.625000
vt 0.937500 0.625000
vt 0.437500 0.625000
vt 0.437500 1.000000
vt 0.562500 0.625000
vt 0.562500 1.000000
vt 0.000000 0.000000
vt 0.000000 1.000000
vt 0.062500 0.562500
vt 0.062500 0.437500
vt 0.062500 0.062500
vt 0.062500 0.937500
vt 0.437500 0.000000
vt 0.437500 0.375000
vt 0.875000 0.281250
vt 0.906250 0.281250
vt 0.906250 0.421875
vt 0.875000 0.421875
vt 0.593750 0.453125
vt 0.531250 0.453125
vt 0.531250 0.281250
vt 0.593750 0.281250
vt 0.375000 0.281250
vt 0.406250 0.281250
vt 0.406250 0.375000
vt 0.375000 0.375000
vt 0.046875 0.750000
vt 0.031250 0.750000
vt 0.031250 0.625000
vt 0.046875 0.625000
vt 0.687500 0.781250
vt 0.671875 0.781250
vt 0.671875 0.906250
vt 0.687500 0.968750
vt 0.453125 0.687500
vt 0.265625 0.687500
vt 0.312500 0.656250
vt 0.453125 0.656250
vt 0.515625 0.968750
vt 0.515625 0.906250
vt 0.312500 0.375000
vt 0.312500 0.281250
vt 0.343750 0.281250
vt 0.343750 0.375000
vt 0.781250 0.031250
vt 0.812500 0.031250
vt 0.812500 0.203125
vt 0.781250 0.203125
vt 0.187500 0.281250
vt 0.187500 0.437500
vt 0.156250 0.437500
vt 0.156250 0.281250
vt 0.281250 0.406250
vt 0.250000 0.406250
vt 0.250000 0.281250
vt 0.281250 0.281250
vt 0.281250 0.875000
vt 0.109375 0.875000
vt 0.125000 0.843750
vt 0.281250 0.843750
vt 0.468750 0.031250
vt 0.468750 0.187500
vt 0.437500 0.187500
vt 0.437500 0.031250
vt 0.875000 0.031250
vt 0.968750 0.031250
vt 0.968750 0.203125
vt 0.875000 0.203125
vt 0.312500 0.437500
vt 0.281250 0.437500
vt 0.312500 0.156250
vt 0.281250 0.156250
vt 0.281250 0.031250
vt 0.312500 0.031250
vt 0.125000 0.406250
vt 0.093750 0.406250
vt 0.093750 0.281250
vt 0.125000 0.281250
vt 0.687500 0.718750
vt 0.515625 0.718750
vt 0.515625 0.656250
vt 0.671875 0.656250
vt 0.906250 0.812500
vt 0.921875 0.812500
vt 0.921875 0.968750
vt 0.906250 0.937500
vt 0.671875 0.937500
vt 0.250000 0.156250
vt 0.250000 0.031250
vt 0.921875 0.718750
vt 0.750000 0.718750
vt 0.750000 0.750000
vt 0.921875 0.750000
vt 0.187500 0.781250
vt 0.203125 0.750000
vt 0.203125 0.593750
vt 0.187500 0.593750
vt 0.750000 0.968750
vt 0.750000 0.937500
vt 0.812500 0.187500
vt 0.875000 0.187500
vt 0.718750 0.453125
vt 0.687500 0.453125
vt 0.687500 0.281250
vt 0.718750 0.281250
vt 0.250000 0.468750
vt 0.187500 0.468750
vt 0.906250 0.718750
vt 0.906250 0.593750
vt 0.921875 0.593750
vt 0.437500 0.218750
vt 0.375000 0.218750
vt 0.375000 0.031250
vt 0.343750 0.406250
vt 0.375000 0.406250
vt 0.453125 0.968750
vt 0.281250 0.968750
vt 0.281250 0.937500
vt 0.421875 0.937500
vt 0.515625 0.937500
vt 0.593750 0.437500
vt 0.625000 0.281250
vt 0.625000 0.437500
vt 0.968750 0.281250
vt 0.968750 0.468750
vt 0.906250 0.468750
vt 0.265625 0.531250
vt 0.312500 0.531250
vt 0.656250 0.453125
vt 0.625000 0.453125
vt 0.656250 0.281250
vt 0.046875 0.937500
vt 0.031250 0.968750
vt 0.031250 0.812500
vt 0.046875 0.812500
vt 0.687500 0.437500
vt 0.656250 0.437500
vt 0.093750 0.437500
vt 0.031250 0.437500
vt 0.031250 0.281250
vt 0.187500 0.187500
vt 0.187500 0.031250
vt 0.218750 0.031250
vt 0.218750 0.156250
vt 0.218750 0.187500
vt 0.125000 0.437500
vt 0.109375 0.687500
vt 0.109375 0.562500
vt 0.125000 0.562500
vt 0.125000 0.687500
vt -1.296875 1.078125
vt -1.343750 1.234375
vt 0.906250 0.906250
vt 0.437500 0.968750
vt 0.437500 0.812500
vt 0.453125 0.812500
vt 0.109375 0.750000
vt 0.125000 0.750000
vt 0.359375 0.781250
vt 0.359375 0.750000
vt 0.671875 0.562500
vt 0.687500 0.562500
vt 0.203125 0.968750
vt 0.203125 0.937500
vt 0.468750 0.437500
vt 0.406250 0.437500
vt 0.468750 0.281250
vt 0.421875 0.812500
vt 0.812500 0.281250
vt 0.843750 0.437500
vt 0.750000 0.281250
vt 0.750000 0.437500
vt 0.718750 0.437500
vt 0.750000 0.906250
vt 0.187500 0.156250
vt 0.125000 0.156250
vt 0.125000 0.031250
vt 0.031250 0.187500
vt 0.031250 0.031250
vt 0.125000 0.187500
vt 0.531250 0.031250
vt 0.562500 0.031250
vt 0.562500 0.187500
vt 0.531250 0.187500
vt 0.718750 0.187500
vt 0.656250 0.031250
vt 0.656250 0.187500
vt 0.625000 0.187500
vt 0.625000 0.031250
vt 0.375000 0.187500
vt 0.343750 0.187500
vt 0.343750 0.156250
vt 0.718750 0.203125
vt 0.687500 0.203125
vt 0.687500 0.187500
vt 0.750000 0.203125
vt 0.750000 0.187500
vt 0.812500 0.437500
vt 0.875000 0.453125
vt 0.843750 0.453125
vn -1.000000 0.000000 0.000000
vn 0.000000 1.000000 0.000000
vn -0.000000 -0.000000 1.000000
vn 0.000000 -1.000000 -0.000000
vn 1.000000 0.000000 0.000000
vn 0.000000 0.000000 -1.000000
g bookshelf_nodebox-39_wood
s off
f 2/1/1 32/2/1 30/3/1 1/4/1
f 16/5/2 29/4/2 3/1/2 17/6/2
f 30/7/3 31/8/3 29/9/3 13/10/3 24/11/3 1/12/3
f 131/13/2 34/14/2 20/15/2 37/16/2
f 135/15/2 26/16/2 23/13/2 27/14/2
f 36/14/4 35/15/4 19/16/4 18/13/4
f 26/15/1 9/17/1 8/18/1 23/14/1
f 33/5/2 30/4/2 32/1/2 22/6/2
f 2/6/4 1/5/4 28/4/4 21/1/4
f 34/18/5 18/14/5 19/15/5 20/17/5
f 15/10/6 12/11/6 18/12/6 34/7/6 6/8/6 27/9/6
f 5/1/4 4/6/4 31/5/4 10/4/4
f 7/19/5 135/16/5 27/13/5 6/20/5
f 10/3/5 16/4/5 17/1/5 5/2/5
f 9/15/4 7/16/4 6/13/4 8/14/4
f 14/21/1 11/10/1 12/11/1 15/22/1
f 11/21/2 24/10/2 25/11/2 12/22/2
f 134/22/4 13/21/4 14/10/4 15/11/4
f 25/22/5 24/21/5 13/10/5 134/11/5
f 6/8/6 34/7/6 131/23/6 8/24/6
f 25/22/6 134/21/6 23/25/6 8/24/6 131/23/6 36/26/6
f 33/23/3 28/26/3 11/22/3 14/21/3 16/25/3 10/24/3
f 13/10/3 29/9/3 16/25/3 14/21/3
f 10/24/3 31/8/3 30/7/3 33/23/3
f 36/13/1 131/20/1 37/19/1 35/16/1
f 36/26/6 18/12/6 12/11/6 25/22/6
f 23/25/6 134/21/6 15/10/6 27/9/6
f 11/22/3 28/26/3 1/12/3 24/11/3
f 29/5/1 31/27/1 4/28/1 3/6/1
f 21/6/5 28/5/5 33/27/5 22/28/5
g bookshelf_nodebox-39_inside-back
f 32/23/3 2/26/3 21/12/3 22/7/3
f 135/9/6 7/8/6 9/24/6 26/25/6
f 35/26/6 37/23/6 20/7/6 19/12/6
f 17/9/3 3/25/3 4/24/3 5/8/3
g bookshelf_nodebox-39_books
f 150/29/2 124/30/2 54/31/2 121/32/2
f 95/33/2 89/34/2 90/35/2 91/36/2
f 137/37/6 47/38/6 48/39/6 43/40/6
f 75/41/1 110/42/1 100/43/1 76/44/1
f 71/45/1 45/46/1 44/47/1 138/48/1
f 136/49/1 40/50/1 54/51/1 124/52/1
f 53/53/1 138/48/1 44/47/1 52/54/1
f 73/55/6 111/56/6 112/57/6 93/58/6
f 133/59/2 80/60/2 106/61/2 107/62/2
f 147/63/6 88/64/6 57/65/6 59/66/6
f 105/67/6 44/68/6 45/69/6 46/70/6
f 128/71/1 62/72/1 43/73/1 42/74/1
f 140/75/6 66/76/6 67/77/6 68/78/6
f 103/79/2 129/80/2 130/81/2 127/82/2
f 141/56/6 115/83/6 116/84/6 117/70/6
f 110/85/6 98/86/6 99/87/6 100/88/6
f 121/89/6 54/90/6 56/91/6 122/92/6
f 95/93/5 91/94/5 41/95/5 48/96/5
f 46/97/5 117/98/5 116/99/5 105/100/5
f 147/46/5 70/45/5 69/48/5 88/101/5
f 113/86/6 49/102/6 51/103/6 114/87/6
f 86/104/1 132/105/1 133/106/1 107/107/1
f 81/108/5 64/109/5 77/110/5 82/111/5
f 116/99/5 108/112/5 109/113/5 105/100/5
f 79/114/2 78/60/2 102/79/2 101/115/2
f 116/116/2 115/117/2 72/118/2 108/119/2
f 83/111/1 68/110/1 67/109/1 144/108/1
f 138/120/6 69/121/6 70/63/6 71/69/6
f 106/107/5 79/122/5 142/123/5 143/124/5
f 144/125/6 81/126/6 82/127/6 83/78/6
f 93/73/5 139/72/5 94/71/5 92/74/5
f 139/128/6 60/57/6 61/37/6 62/129/6
f 84/130/5 149/131/5 150/132/5 121/133/5
f 69/48/5 119/53/5 120/134/5 88/101/5
f 79/122/5 106/107/5 80/106/5 78/105/5
f 48/135/2 41/36/2 42/136/2 43/137/2
f 136/30/2 38/138/2 39/139/2 40/140/2
f 54/51/1 40/50/1 55/141/1 56/142/1
f 114/43/5 99/44/5 98/41/5 113/42/5
f 139/143/2 62/144/2 128/136/2 94/145/2
f 101/146/1 127/147/1 126/148/1 123/149/1
f 73/150/2 93/151/2 92/145/2 74/118/2
f 55/91/6 40/152/6 39/153/6 131/154/6
f 106/155/6 143/156/6 87/157/6 86/158/6 107/159/6
f 145/66/6 58/65/6 84/160/6 85/92/6
f 50/161/1 146/162/1 51/163/1 49/164/1
f 151/165/5 152/166/5 156/166/5 155/165/5
f 115/99/1 141/98/1 111/97/1 73/167/1
f 58/168/1 145/169/1 59/170/1 57/130/1
f 61/171/1 137/172/1 43/73/1 62/72/1
f 64/109/5 81/108/5 65/173/5 63/174/5
f 47/175/5 96/176/5 95/93/5 48/96/5
f 103/177/1 127/147/1 101/146/1 102/178/1
f 139/72/5 93/73/5 112/172/5 60/171/5
f 89/179/6 95/180/6 96/38/6 97/181/6
f 104/173/1 144/108/1 67/109/1 118/174/1
f 84/130/5 121/133/5 122/182/5 85/170/5
f 120/183/2 149/29/2 57/184/2
f 109/119/2 52/185/2 44/186/2 105/187/2
f 115/99/1 73/167/1 74/188/1 72/112/1
f 146/103/6 50/102/6 86/158/6 87/157/6
f 142/156/6 79/189/6 101/190/6 123/191/6
f 130/192/6 125/193/6 126/191/6 127/194/6
f 148/195/2 118/196/2 67/197/2 66/198/2
f 113/199/2 151/200/2 132/59/2
f 156/201/2 154/202/2 153/203/2 155/200/2
f 64/204/6 156/205/6 152/206/6
f 267/29/2 243/30/2 173/31/2 240/32/2
f 214/33/2 208/34/2 209/35/2 210/36/2
f 254/37/3 166/38/3 167/39/3 162/40/3
f 194/41/5 229/42/5 219/43/5 195/44/5
f 190/45/5 164/46/5 163/47/5 255/48/5
f 253/49/5 159/50/5 173/51/5 243/52/5
f 172/53/5 255/48/5 163/47/5 171/54/5
f 192/55/3 230/56/3 231/57/3 212/58/3
f 252/59/2 199/60/2 225/61/2 226/62/2
f 264/63/3 207/64/3 176/65/3 178/66/3
f 224/67/3 163/68/3 164/69/3 165/70/3
f 247/71/5 181/72/5 162/73/5 161/74/5
f 257/75/3 185/76/3 186/77/3 187/78/3
f 222/79/2 248/80/2 249/81/2 246/82/2
f 258/56/3 234/83/3 235/84/3 236/70/3
f 229/85/3 217/86/3 218/87/3 219/88/3
f 240/89/3 173/90/3 175/91/3 241/92/3
f 214/93/1 210/94/1 160/95/1 167/96/1
f 165/97/1 236/98/1 235/99/1 224/100/1
f 264/46/1 189/45/1 188/48/1 207/101/1
f 232/86/3 168/102/3 170/103/3 233/87/3
f 205/104/5 251/105/5 252/106/5 226/107/5
f 200/108/1 183/109/1 196/110/1 201/111/1
f 235/99/1 227/112/1 228/113/1 224/100/1
f 198/114/2 197/60/2 221/79/2 220/115/2
f 235/116/2 234/117/2 191/118/2 227/119/2
f 202/111/5 187/110/5 186/109/5 261/108/5
f 255/120/3 188/121/3 189/63/3 190/69/3
f 225/107/1 198/122/1 259/123/1 260/124/1
f 261/125/3 200/126/3 201/127/3 202/78/3
f 212/73/1 256/72/1 213/71/1 211/74/1
f 256/128/3 179/57/3 180/37/3 181/129/3
f 203/130/1 266/131/1 267/132/1 240/133/1
f 188/48/1 238/53/1 239/134/1 207/101/1
f 198/122/1 225/107/1 199/106/1 197/105/1
f 167/135/2 160/36/2 161/136/2 162/137/2
f 253/30/2 157/138/2 158/139/2 159/140/2
f 173/51/5 159/50/5 174/141/5 175/142/5
f 233/43/1 218/44/1 217/41/1 232/42/1
f 256/143/2 181/144/2 247/136/2 213/145/2
f 220/146/5 246/147/5 245/148/5 242/149/5
f 192/150/2 212/151/2 211/145/2 193/118/2
f 174/91/3 159/152/3 158/153/3 250/154/3
f 225/155/3 260/156/3 206/157/3 205/158/3 226/159/3
f 262/66/3 177/65/3 203/160/3 204/92/3
f 169/161/5 263/162/5 170/163/5 168/164/5
f 268/165/1 269/166/1 273/166/1 272/165/1
f 234/99/5 258/98/5 230/97/5 192/167/5
f 177/168/5 262/169/5 178/170/5 176/130/5
f 180/171/5 254/172/5 162/73/5 181/72/5
f 183/109/1 200/108/1 184/173/1 182/174/1
f 166/175/1 215/176/1 214/93/1 167/96/1
f 222/177/5 246/147/5 220/146/5 221/178/5
f 256/72/1 212/73/1 231/172/1 179/171/1
f 208/179/3 214/180/3 215/38/3 216/181/3
f 223/173/5 261/108/5 186/109/5 237/174/5
f 203/130/1 240/133/1 241/182/1 204/170/1
f 239/183/2 266/29/2 176/184/2
f 228/119/2 171/185/2 163/186/2 224/187/2
f 234/99/5 192/167/5 193/188/5 191/112/5
f 263/103/3 169/102/3 205/158/3 206/157/3
f 259/156/3 198/189/3 220/190/3 242/191/3
f 249/192/3 244/193/3 245/191/3 246/194/3
f 265/195/2 237/196/2 186/197/2 185/198/2
f 232/199/2 268/200/2 251/59/2
f 273/201/2 271/202/2 270/203/2 272/200/2
f 183/204/3 273/205/3 269/206/3
f 98/207/2 110/208/2 75/209/2
f 86/62/2 50/210/2 49/211/2
f 113/199/2 98/207/2 75/209/2
f 132/59/2 86/62/2 49/211/2
f 151/200/2 113/199/2 75/209/2
f 75/209/2 152/201/2 151/200/2
f 113/199/2 132/59/2 49/211/2
f 217/207/2 229/208/2 194/209/2
f 205/62/2 169/210/2 168/211/2
f 232/199/2 217/207/2 194/209/2
f 251/59/2 205/62/2 168/211/2
f 268/200/2 232/199/2 194/209/2
f 194/209/2 269/201/2 268/200/2
f 232/199/2 251/59/2 168/211/2
f 152/206/6 77/127/6 64/204/6
f 152/206/6 75/85/6 76/88/6
f 64/204/3 154/204/3 156/205/3
f 152/206/6 76/88/6 77/127/6
f 269/206/3 196/127/3 183/204/3
f 269/206/3 194/85/3 195/88/3
f 183/204/3 271/204/3 273/205/3
f 269/206/3 195/88/3 196/127/3
f 57/184/2 88/212/2 120/183/2
f 84/213/2 58/214/2 57/184/2
f 57/184/2 149/29/2 84/213/2
f 176/184/2 207/212/2 239/183/2
f 203/213/2 177/214/2 176/184/2
f 176/184/2 266/29/2 203/213/2
